<svg width="82" height="84" viewBox="0 0 82 84" fill="none" xmlns="http://www.w3.org/2000/svg">
<path fill-rule="evenodd" clip-rule="evenodd" d="M42.539 80.4087C42.297 80.1993 42.2706 79.8332 42.4801 79.5912C44.1078 77.7105 45.7917 75.9312 47.4426 74.1867C48.6262 72.936 49.7929 71.7031 50.9099 70.4636C53.614 67.4628 56.119 64.3293 58.1707 60.5265C61.8433 53.7193 64.0601 46.139 63.417 38.3978C63.0853 34.4048 61.6965 30.0456 59.312 26.5359C56.9301 23.0301 53.5832 20.4087 49.3313 19.7823C47.1745 19.4646 44.8702 19.6235 42.59 20.1756C44.3324 21.539 45.9096 23.1962 47.2634 25.1994C50.4702 29.9448 48.606 35.1507 44.9669 38.5783C41.3421 41.9925 35.7523 43.8543 31.1382 41.8277C28.6564 40.7377 27.1496 38.911 26.5934 36.7441C26.0413 34.5937 26.4407 32.1734 27.6325 29.8891C29.5506 26.2126 32.9898 23.1072 36.9385 21.0692C37.9161 20.5646 38.9285 20.1236 39.9606 19.7549C34.8432 16.5822 28.5246 15.5616 22.249 15.5613C21.9289 15.5613 21.6694 15.3018 21.6694 14.9818C21.6695 14.6617 21.9289 14.4022 22.249 14.4022C28.9385 14.4025 35.865 15.5435 41.3847 19.2961C44.0885 18.5189 46.8791 18.2495 49.5002 18.6356C54.1563 19.3215 57.7598 22.1888 60.2707 25.8845C62.7791 29.5764 64.2257 34.1315 64.5721 38.3018C65.2389 46.3272 62.9373 54.1328 59.1908 61.0769C57.0773 64.9944 54.5049 68.2057 51.771 71.2395C50.6065 72.5317 49.4287 73.7755 48.2451 75.0255C46.62 76.7417 44.984 78.4694 43.3565 80.3498C43.147 80.5918 42.781 80.6182 42.539 80.4087ZM41.179 20.5682C39.914 20.9659 38.6677 21.481 37.4701 22.0992C33.6869 24.0518 30.4456 27.003 28.6602 30.4252C27.5694 32.516 27.2504 34.6419 27.7161 36.4559C28.1775 38.2533 29.4245 39.809 31.6043 40.7665C35.6562 42.5461 40.7624 40.9461 44.1722 37.7345C47.5676 34.5364 49.0764 29.9526 46.303 25.8484C44.8474 23.6945 43.1141 21.9574 41.179 20.5682Z" fill="#197AFF"/>
<path fill-rule="evenodd" clip-rule="evenodd" d="M46.3912 79.4937C46.5379 79.7782 46.4261 80.1277 46.1416 80.2744C46.1119 80.2897 46.0695 80.3118 46.0158 80.3397C45.6052 80.553 44.5389 81.107 43.51 81.5886C42.9311 81.8595 42.346 82.1161 41.889 82.276C41.6663 82.3539 41.4405 82.421 41.2487 82.4465C41.1583 82.4586 41.0233 82.4692 40.8832 82.4366C40.732 82.4015 40.4768 82.2851 40.3863 81.9806C40.2574 81.5472 40.3593 81.0893 40.4818 80.726C40.6095 80.3473 40.8023 79.9548 40.9697 79.6162L40.9834 79.5886C41.1547 79.2421 41.2938 78.961 41.3717 78.7317C41.4026 78.6405 41.4159 78.5795 41.4207 78.5427C41.2851 78.2972 41.3446 77.9826 41.5732 77.8053C41.826 77.609 42.1901 77.6549 42.3863 77.9078C42.553 78.1226 42.5885 78.3668 42.5813 78.5609C42.5742 78.7517 42.5251 78.9399 42.4692 79.1044C42.3657 79.4091 42.195 79.7538 42.04 80.0669C42.0295 80.0881 42.0191 80.1091 42.0087 80.13C41.8356 80.48 41.6789 80.8036 41.5801 81.0965C41.5723 81.1195 41.5651 81.1418 41.5585 81.1634C41.952 81.0219 42.4715 80.7948 43.0187 80.5387C44.0227 80.0688 45.0643 79.5277 45.4794 79.3121C45.5348 79.2834 45.579 79.2604 45.6105 79.2441C45.895 79.0975 46.2445 79.2092 46.3912 79.4937ZM41.0766 81.2994C41.0767 81.2993 41.078 81.2992 41.0806 81.2992C41.0779 81.2994 41.0766 81.2994 41.0766 81.2994Z" fill="#197AFF"/>
</svg>
