<?xml version="1.0" encoding="UTF-8"?>
<svg id="Layer_1" data-name="Layer 1" xmlns="http://www.w3.org/2000/svg" viewBox="0 0 9.72 16.27">
  <defs>
    <style>
      .cls-1 {
        fill: #dadada;
      }

      .cls-2 {
        fill: #197aff;
      }
    </style>
  </defs>
  <g>
    <rect class="cls-2" x=".03" y="0" width="9.69" height=".83" rx=".41" ry=".41"/>
    <rect class="cls-2" x="0" y="15.44" width="9.69" height=".83" rx=".41" ry=".41"/>
  </g>
  <path class="cls-1" d="m6.3,8.11c-.05-.57.57-1.12.93-1.48.48-.48,1.04-.9,1.36-1.52.31-.62.39-1.34.4-2.01,0-.15-.03-1.77-.1-1.77H.82c-.07,0-.1,1.62-.1,1.77.01.67.09,1.39.4,2.01.31.62.88,1.03,1.36,1.52.36.36.98.91.93,1.48-.06.65-.68,1.24-1.13,1.66-1.49,1.37-1.62,3.24-1.51,5.16h8.19c.11-1.92-.02-3.79-1.51-5.16-.45-.42-1.08-1-1.13-1.66Z"/>
  <path class="cls-2" d="m7.95,2.57H1.76s-.11.55,0,1.07c.12.59,1.07,1.59,1.67,2.21.26.27.57.52.83.72.35.27.83.27,1.18,0,.26-.2.57-.45.83-.72.6-.62,1.49-1.48,1.67-2.21.13-.52,0-1.07,0-1.07Z"/>
</svg>