<?xml version="1.0" encoding="UTF-8"?>
<svg id="Layer_1" data-name="Layer 1" xmlns="http://www.w3.org/2000/svg" viewBox="0 0 50 50">
  <defs>
    <style>
      .cls-1 {
        fill: #fff;
      }

      .cls-2 {
        fill: #197aff;
      }

      .cls-3 {
        fill: #11346f;
        fill-rule: evenodd;
      }
    </style>
  </defs>
  <circle class="cls-1" cx="25" cy="25" r="25"/>
  <g>
    <polygon class="cls-2" points="15.88 34.8 16.75 36.11 24.13 32.2 32.82 36.11 33.68 35.67 33.68 33.94 32.82 26.55 38.46 20.48 38.46 18.74 29.34 17 25.6 10.05 24.13 10.05 19.79 17.44 11.54 19.17 11.54 20.48 17.18 26.55 15.88 34.8"/>
    <path d="m23.9,31.76l-7.38,3.91.47.88,7.38-3.91-.47-.88Zm9.12,3.89l-8.68-3.91-.41.91,8.68,3.91.41-.91Zm.44-.43l-.87.43.45.89.87-.43-.45-.89Zm-.28-1.29v1.74h1v-1.74h-1Zm-.86-7.32l.87,7.38.99-.12-.87-7.38-.99.12Zm5.77-6.48l-5.64,6.08.73.68,5.64-6.08-.73-.68Zm-.13-1.4v1.74h1v-1.74h-1Zm-8.71-1.25l9.12,1.74.19-.98-9.12-1.74-.19.98Zm-4.09-7.2l3.75,6.95.88-.47-3.75-6.95-.88.47Zm-1.02.26h1.46v-1h-1.46v1Zm-3.91,7.14l4.34-7.38-.86-.51-4.34,7.38.86.51Zm-8.58,1.97l8.25-1.74-.21-.98-8.25,1.74.21.98Zm.4.81v-1.3h-1v1.3h1Zm5.51,5.74l-5.64-6.08-.73.68,5.64,6.08.73-.68Zm-1.18,8.67l1.3-8.25-.99-.16-1.3,8.25.99.16Zm.79.95l-.87-1.3-.83.55.87,1.3.83-.55Zm6.97-3.63l.21-.46-.22-.1-.22.11.23.44Zm8.68,3.91l-.21.46.22.1.21-.11-.22-.45Zm.87-.43l.22.45.28-.14v-.31h-.5Zm0-1.74h.5v-.06s-.5.06-.5.06Zm-.87-7.38l-.37-.34-.16.17.03.23.5-.06Zm5.64-6.08l.37.34.13-.14v-.2h-.5Zm0-1.74h.5v-.41l-.41-.08-.09.49Zm-9.12-1.74l-.44.24.11.21.23.04.09-.49Zm-3.75-6.95l.44-.24-.14-.26h-.3v.5Zm-1.46,0v-.5h-.29l-.14.25.43.25Zm-4.34,7.38l.1.49.22-.05.11-.19-.43-.25Zm-8.25,1.74l-.1-.49-.4.08v.41h.5Zm0,1.3h-.5v.2l.13.14.37-.34Zm5.64,6.08l.49.08.04-.24-.17-.18-.37.34Zm-1.3,8.25l-.49-.08-.03.19.11.16.42-.28Zm.87,1.3l-.42.28.25.38.4-.21-.23-.44Z"/>
    <path class="cls-3" d="m24.57,38.09c-.41.25-.44.37-.44,1.52s.03,1.27.44,1.52c.39.24.92.1,1.18-.3.13-.2.2-1.37.12-2-.06-.52-.33-.81-.78-.85-.24-.02-.37,0-.52.1Zm13.99-10.16c-.23.21-.24.24-.24.61,0,.59.15.71,1.28,1.08,1,.32,1.15.34,1.46.17.31-.16.47-.49.43-.85-.05-.45-.31-.64-1.29-.96-1.03-.34-1.31-.34-1.64-.04Zm-28.83.06c-.58.2-.84.32-.99.47-.39.39-.29,1.06.2,1.33.31.17.44.15,1.45-.17,1.14-.36,1.29-.49,1.29-1.08,0-.37-.01-.4-.24-.61-.21-.2-.28-.22-.58-.22-.22,0-.62.1-1.13.27Zm15.55-17.39c.1.11,1.36,2.61,2.76,5.47.39.8.8,1.54.93,1.69.14.16.41.35.64.47.37.18.68.24,4.21.75,2.8.41,3.84.58,3.92.66.06.06.11.19.11.31,0,.19-.24.44-2.78,2.91-2.41,2.35-2.8,2.75-2.97,3.09-.34.68-.34.7.39,4.89.61,3.55.65,3.81.55,3.95-.22.33-.2.34-3.85-1.58-2.81-1.48-3.51-1.82-3.81-1.87-.76-.12-.82-.09-4.55,1.87-3.65,1.92-3.63,1.91-3.85,1.58-.09-.14-.06-.4.55-3.95.72-4.2.72-4.21.39-4.89-.17-.34-.55-.74-2.97-3.09-2.54-2.47-2.78-2.72-2.78-2.91,0-.12.05-.25.11-.31.11-.1.23-.12,5.5-.89,2.5-.36,2.8-.45,3.26-.99.13-.15.54-.89.93-1.69,1.4-2.85,2.66-5.36,2.76-5.47.06-.06.18-.11.27-.11s.22.05.27.11Zm9.03-.73c-.14.06-.39.34-.79.88-.75,1.02-.81,1.32-.37,1.77.47.47.96.34,1.51-.39.7-.92.85-1.19.85-1.47,0-.34-.2-.67-.48-.79-.27-.11-.46-.11-.72,0Zm-19.42.03c-.26.16-.41.44-.41.77,0,.2.07.36.31.71.83,1.21,1.14,1.49,1.61,1.4.45-.08.79-.58.71-1.02-.05-.27-1.09-1.7-1.35-1.86-.26-.16-.6-.16-.86,0Zm9.45-1.07c-.41.15-.81.42-1.01.67-.11.13-.96,1.8-1.9,3.71-1.43,2.89-1.74,3.47-1.86,3.5-.08.02-1.82.28-3.87.58-2.66.39-3.8.58-4.01.67-.4.18-.86.61-1.07,1.01-.15.29-.17.4-.17.97s.02.68.17.97c.13.25.86,1,2.9,3,1.5,1.47,2.77,2.73,2.82,2.8.07.12,0,.64-.56,3.93-.36,2.09-.65,3.88-.65,3.98,0,.62.47,1.42,1.04,1.78.36.23.97.37,1.38.32.42-.05.71-.19,4.38-2.13,1.6-.84,2.98-1.53,3.06-1.53.09,0,1.5.7,3.13,1.57,4.07,2.15,3.95,2.09,4.55,2.09.39,0,.56-.04.89-.19.82-.37,1.38-1.29,1.28-2.12-.02-.18-.32-1.95-.66-3.94-.54-3.13-.61-3.64-.53-3.75.05-.07,1.31-1.32,2.8-2.78,3.17-3.09,3.1-3,3.1-3.99,0-.58-.02-.68-.17-.97-.22-.42-.65-.83-1.05-1.01-.25-.11-1.21-.27-4.03-.68-2.04-.3-3.78-.55-3.86-.57-.13-.03-.44-.61-1.89-3.55-1.88-3.79-1.91-3.85-2.59-4.2-.41-.21-1.22-.28-1.61-.13Z"/>
  </g>
</svg>