<svg width="697" height="56" viewBox="0 0 697 56" fill="none" xmlns="http://www.w3.org/2000/svg">
<path d="M19.3853 11.0928H23.6489V37H19.3853V25.7085H7.55176V37H3.28809V11.0928H7.55176V21.6797H19.3853V11.0928ZM48.5444 27.0635C48.5444 27.4489 48.5143 27.8945 48.4541 28.4004H32.2305C32.4834 30.0143 33.1579 31.291 34.2539 32.2305C35.3499 33.1699 36.717 33.6396 38.355 33.6396C39.5353 33.6396 40.5892 33.3807 41.5166 32.8628C42.4561 32.3449 43.1908 31.6283 43.7207 30.7129H48.0566C47.2617 32.8206 46.0031 34.4767 44.2808 35.6812C42.5584 36.8856 40.5832 37.4878 38.355 37.4878C35.4403 37.4878 33.0013 36.4881 31.0381 34.4888C29.0749 32.4774 28.0933 29.9842 28.0933 27.0093C28.0933 25.0461 28.5389 23.2635 29.4302 21.6616C30.3215 20.0597 31.55 18.8071 33.1157 17.9038C34.6815 16.9884 36.4279 16.5308 38.355 16.5308C40.3423 16.5308 42.1188 17.0065 43.6846 17.958C45.2503 18.8975 46.4487 20.1681 47.2798 21.77C48.1229 23.3599 48.5444 25.1243 48.5444 27.0635ZM38.355 20.2344C36.8254 20.2344 35.5246 20.668 34.4526 21.5352C33.3807 22.4023 32.6761 23.5827 32.3389 25.0762H44.4253C44.0519 23.5586 43.3232 22.3722 42.2393 21.5171C41.1673 20.6619 39.8726 20.2344 38.355 20.2344ZM69.6279 17.0005L72.7896 17.0186V36.9819H69.4834L69.0859 34.561C68.1706 35.4884 67.0926 36.2111 65.8521 36.729C64.6115 37.2349 63.2746 37.4878 61.8413 37.4878C59.8901 37.4878 58.1196 37.0361 56.5298 36.1328C54.9399 35.2174 53.6934 33.9588 52.79 32.3569C51.8867 30.743 51.4351 28.9544 51.4351 26.9912C51.4351 25.016 51.8867 23.2334 52.79 21.6436C53.6934 20.0417 54.9399 18.7891 56.5298 17.8857C58.1196 16.9824 59.8901 16.5308 61.8413 16.5308C63.2866 16.5308 64.6356 16.7897 65.8882 17.3076C67.1408 17.8255 68.2248 18.5602 69.1401 19.5117L69.6279 17.0005ZM57.4692 31.6885C58.7098 32.929 60.2695 33.5493 62.1484 33.5493C64.0273 33.5493 65.5811 32.929 66.8096 31.6885C68.0501 30.4359 68.6704 28.8701 68.6704 26.9912C68.6704 25.1123 68.0501 23.5526 66.8096 22.312C65.5811 21.0715 64.0273 20.4512 62.1484 20.4512C60.2695 20.4512 58.7098 21.0775 57.4692 22.3301C56.2287 23.5706 55.6084 25.1243 55.6084 26.9912C55.6084 28.8701 56.2287 30.4359 57.4692 31.6885ZM88.2544 16.9102H90.0249V20.7944H87.8569C86.1707 20.7944 84.9001 21.2642 84.0449 22.2036C83.1898 23.1431 82.7622 24.5221 82.7622 26.3408V37H78.6611V17.0186H81.4434L82.1299 19.7466C83.5511 17.8556 85.5926 16.9102 88.2544 16.9102ZM124.947 17.0186H129.066L122.364 37H119.04L113.891 24.8413L108.76 37H105.436L98.751 17.0186H102.979L107.495 30.478L113.222 17.2354H114.559L120.358 30.5864L124.947 17.0186ZM143.14 16.5669C145.465 16.5669 147.301 17.3257 148.65 18.8433C150.011 20.3488 150.692 22.3903 150.692 24.9678V37H146.591V25.7988C146.591 23.9801 146.205 22.6011 145.435 21.6616C144.664 20.7222 143.52 20.2524 142.002 20.2524C140.448 20.2524 139.166 20.8185 138.154 21.9507C137.142 23.0828 136.636 24.5342 136.636 26.3047V37H132.535V9.86426H136.636V19.2949C137.419 18.4277 138.371 17.7593 139.491 17.2896C140.611 16.8078 141.827 16.5669 143.14 16.5669ZM173.004 17.0005L176.166 17.0186V36.9819H172.859L172.462 34.561C171.547 35.4884 170.469 36.2111 169.228 36.729C167.987 37.2349 166.651 37.4878 165.217 37.4878C163.266 37.4878 161.496 37.0361 159.906 36.1328C158.316 35.2174 157.069 33.9588 156.166 32.3569C155.263 30.743 154.811 28.9544 154.811 26.9912C154.811 25.016 155.263 23.2334 156.166 21.6436C157.069 20.0417 158.316 18.7891 159.906 17.8857C161.496 16.9824 163.266 16.5308 165.217 16.5308C166.663 16.5308 168.012 16.7897 169.264 17.3076C170.517 17.8255 171.601 18.5602 172.516 19.5117L173.004 17.0005ZM160.845 31.6885C162.086 32.929 163.646 33.5493 165.524 33.5493C167.403 33.5493 168.957 32.929 170.186 31.6885C171.426 30.4359 172.046 28.8701 172.046 26.9912C172.046 25.1123 171.426 23.5526 170.186 22.312C168.957 21.0715 167.403 20.4512 165.524 20.4512C163.646 20.4512 162.086 21.0775 160.845 22.3301C159.605 23.5706 158.984 25.1243 158.984 26.9912C158.984 28.8701 159.605 30.4359 160.845 31.6885ZM190.944 33.2783H193.22V37H190.167C187.975 37 186.247 36.3677 184.982 35.103C183.717 33.8263 183.085 32.0859 183.085 29.8818V20.5415H179.508V19.7466L186.463 12.3574H187.168V17.0186H193.112V20.5415H187.204V29.5566C187.204 30.749 187.523 31.6704 188.162 32.3208C188.812 32.9591 189.739 33.2783 190.944 33.2783ZM221.205 36.1328C219.579 37.0361 217.76 37.4878 215.749 37.4878C213.738 37.4878 211.919 37.0361 210.293 36.1328C208.667 35.2174 207.39 33.9648 206.463 32.375C205.535 30.7731 205.072 28.9845 205.072 27.0093C205.072 25.022 205.535 23.2334 206.463 21.6436C207.39 20.0417 208.667 18.7891 210.293 17.8857C211.919 16.9824 213.738 16.5308 215.749 16.5308C217.76 16.5308 219.579 16.9824 221.205 17.8857C222.831 18.7891 224.108 20.0417 225.035 21.6436C225.963 23.2454 226.426 25.034 226.426 27.0093C226.426 28.9845 225.963 30.7731 225.035 32.375C224.108 33.9648 222.831 35.2174 221.205 36.1328ZM211.07 31.7246C212.298 32.9531 213.858 33.5674 215.749 33.5674C217.64 33.5674 219.194 32.9531 220.41 31.7246C221.639 30.4961 222.253 28.9243 222.253 27.0093C222.253 25.0942 221.639 23.5225 220.41 22.2939C219.194 21.0654 217.64 20.4512 215.749 20.4512C213.858 20.4512 212.298 21.0654 211.07 22.2939C209.853 23.5225 209.245 25.0942 209.245 27.0093C209.245 28.9243 209.853 30.4961 211.07 31.7246ZM246.191 35.0488C244.541 36.6748 242.343 37.4878 239.597 37.4878C236.851 37.4878 234.646 36.6748 232.984 35.0488C231.334 33.4229 230.509 31.2609 230.509 28.563V17.0186H234.61V27.9849C234.61 29.7192 235.056 31.0863 235.947 32.0859C236.839 33.0736 238.055 33.5674 239.597 33.5674C241.138 33.5674 242.349 33.0675 243.228 32.0679C244.119 31.0682 244.565 29.7072 244.565 27.9849V17.0186H248.666V28.563C248.666 31.2609 247.841 33.4229 246.191 35.0488ZM263.788 16.9102H265.558V20.7944H263.39C261.704 20.7944 260.433 21.2642 259.578 22.2036C258.723 23.1431 258.295 24.5221 258.295 26.3408V37H254.194V17.0186H256.977L257.663 19.7466C259.084 17.8556 261.126 16.9102 263.788 16.9102ZM286.063 37.4878C284.112 37.4878 282.336 37.0301 280.734 36.1147C279.132 35.1994 277.873 33.9408 276.958 32.3389C276.055 30.737 275.603 28.9544 275.603 26.9912C275.603 25.028 276.055 23.2515 276.958 21.6616C277.873 20.0597 279.132 18.8071 280.734 17.9038C282.336 16.9884 284.118 16.5308 286.082 16.5308C288.539 16.5308 290.664 17.2233 292.459 18.6084C294.254 19.9935 295.428 21.8363 295.982 24.1367H291.917C291.387 22.9925 290.604 22.0952 289.568 21.4448C288.533 20.7824 287.364 20.4512 286.063 20.4512C284.269 20.4512 282.769 21.0775 281.565 22.3301C280.373 23.5827 279.776 25.1364 279.776 26.9912C279.776 28.846 280.379 30.4058 281.583 31.6704C282.787 32.9351 284.281 33.5674 286.063 33.5674C287.376 33.5674 288.539 33.2301 289.55 32.5557C290.574 31.8812 291.357 30.9357 291.899 29.7192H296.036C295.482 32.0558 294.296 33.9347 292.477 35.356C290.658 36.7772 288.521 37.4878 286.063 37.4878ZM315.458 35.0488C313.807 36.6748 311.609 37.4878 308.863 37.4878C306.117 37.4878 303.913 36.6748 302.251 35.0488C300.601 33.4229 299.776 31.2609 299.776 28.563V17.0186H303.877V27.9849C303.877 29.7192 304.323 31.0863 305.214 32.0859C306.105 33.0736 307.322 33.5674 308.863 33.5674C310.405 33.5674 311.615 33.0675 312.495 32.0679C313.386 31.0682 313.832 29.7072 313.832 27.9849V17.0186H317.933V28.563C317.933 31.2609 317.108 33.4229 315.458 35.0488ZM335.981 35.7534C334.5 36.9097 332.542 37.4878 330.109 37.4878C327.676 37.4878 325.719 36.8675 324.238 35.627C322.768 34.3864 322.004 32.7303 321.943 30.6587H325.954C326.002 31.6825 326.418 32.4774 327.201 33.0435C327.996 33.5975 329.013 33.8745 330.254 33.8745C331.386 33.8745 332.319 33.6457 333.054 33.188C333.789 32.7183 334.156 32.0799 334.156 31.2729C334.156 30.9116 334.066 30.5864 333.885 30.2974C333.717 30.0083 333.506 29.7795 333.253 29.6108C333.012 29.4302 332.663 29.2676 332.205 29.123C331.759 28.9785 331.356 28.8701 330.995 28.7979C330.645 28.7256 330.17 28.6353 329.567 28.5269C328.953 28.4185 328.465 28.3281 328.104 28.2559C327.743 28.1836 327.273 28.0692 326.695 27.9126C326.117 27.744 325.647 27.5693 325.286 27.3887C324.936 27.208 324.551 26.9671 324.129 26.666C323.708 26.3649 323.377 26.0337 323.136 25.6724C322.907 25.299 322.708 24.8473 322.54 24.3174C322.383 23.7874 322.305 23.2033 322.305 22.5649C322.305 20.7703 323.015 19.319 324.437 18.2109C325.87 17.0908 327.743 16.5308 330.055 16.5308C332.368 16.5308 334.222 17.1149 335.62 18.2832C337.029 19.4395 337.751 20.9871 337.788 22.9263H333.903C333.867 21.9868 333.506 21.2702 332.819 20.7764C332.133 20.2705 331.181 20.0176 329.965 20.0176C328.833 20.0176 327.935 20.2404 327.273 20.686C326.611 21.1196 326.279 21.7038 326.279 22.4385C326.279 22.7275 326.327 22.9865 326.424 23.2153C326.52 23.4321 326.683 23.6248 326.912 23.7935C327.153 23.9621 327.375 24.1006 327.58 24.209C327.797 24.3174 328.11 24.4198 328.52 24.5161C328.941 24.6125 329.284 24.6908 329.549 24.751C329.814 24.7992 330.206 24.8654 330.724 24.9497C332.675 25.2749 334.078 25.6182 334.933 25.9795C336.981 26.8587 338.065 28.4064 338.185 30.6226C338.197 30.7671 338.203 30.9237 338.203 31.0923C338.203 33.0314 337.462 34.5851 335.981 35.7534ZM351.337 33.2783H353.614V37H350.561C348.368 37 346.64 36.3677 345.375 35.103C344.111 33.8263 343.479 32.0859 343.479 29.8818V20.5415H339.901V19.7466L346.857 12.3574H347.562V17.0186H353.505V20.5415H347.598V29.5566C347.598 30.749 347.917 31.6704 348.555 32.3208C349.206 32.9591 350.133 33.2783 351.337 33.2783ZM372.06 36.1328C370.434 37.0361 368.615 37.4878 366.604 37.4878C364.592 37.4878 362.773 37.0361 361.147 36.1328C359.521 35.2174 358.245 33.9648 357.317 32.375C356.39 30.7731 355.926 28.9845 355.926 27.0093C355.926 25.022 356.39 23.2334 357.317 21.6436C358.245 20.0417 359.521 18.7891 361.147 17.8857C362.773 16.9824 364.592 16.5308 366.604 16.5308C368.615 16.5308 370.434 16.9824 372.06 17.8857C373.686 18.7891 374.962 20.0417 375.89 21.6436C376.817 23.2454 377.281 25.034 377.281 27.0093C377.281 28.9845 376.817 30.7731 375.89 32.375C374.962 33.9648 373.686 35.2174 372.06 36.1328ZM361.924 31.7246C363.153 32.9531 364.713 33.5674 366.604 33.5674C368.494 33.5674 370.048 32.9531 371.265 31.7246C372.493 30.4961 373.107 28.9243 373.107 27.0093C373.107 25.0942 372.493 23.5225 371.265 22.2939C370.048 21.0654 368.494 20.4512 366.604 20.4512C364.713 20.4512 363.153 21.0654 361.924 22.2939C360.708 23.5225 360.1 25.0942 360.1 27.0093C360.1 28.9243 360.708 30.4961 361.924 31.7246ZM404.001 16.5669C406.097 16.5669 407.795 17.2896 409.096 18.7349C410.409 20.1802 411.065 22.035 411.065 24.2993V37H406.964V25.311C406.964 23.6971 406.627 22.4505 405.952 21.5713C405.278 20.6921 404.32 20.2524 403.08 20.2524C401.743 20.2524 400.623 20.8005 399.719 21.8965C398.828 22.9925 398.382 24.3836 398.382 26.0698V37H394.372V25.311C394.372 23.6971 394.034 22.4505 393.36 21.5713C392.697 20.6921 391.74 20.2524 390.487 20.2524C389.15 20.2524 388.03 20.8005 387.127 21.8965C386.224 22.9925 385.772 24.3836 385.772 26.0698V37H381.671V17.0186H384.58L385.284 19.6021C386.043 18.6506 386.964 17.9098 388.048 17.3799C389.144 16.8379 390.295 16.5669 391.499 16.5669C392.836 16.5669 394.022 16.88 395.058 17.5063C396.106 18.1206 396.919 18.9757 397.497 20.0718C398.232 18.9878 399.171 18.1326 400.315 17.5063C401.46 16.88 402.688 16.5669 404.001 16.5669ZM435.635 27.0635C435.635 27.4489 435.605 27.8945 435.545 28.4004H419.321C419.574 30.0143 420.249 31.291 421.345 32.2305C422.441 33.1699 423.808 33.6396 425.446 33.6396C426.626 33.6396 427.68 33.3807 428.607 32.8628C429.547 32.3449 430.282 31.6283 430.812 30.7129H435.147C434.353 32.8206 433.094 34.4767 431.372 35.6812C429.649 36.8856 427.674 37.4878 425.446 37.4878C422.531 37.4878 420.092 36.4881 418.129 34.4888C416.166 32.4774 415.184 29.9842 415.184 27.0093C415.184 25.0461 415.63 23.2635 416.521 21.6616C417.412 20.0597 418.641 18.8071 420.207 17.9038C421.772 16.9884 423.519 16.5308 425.446 16.5308C427.433 16.5308 429.21 17.0065 430.775 17.958C432.341 18.8975 433.54 20.1681 434.371 21.77C435.214 23.3599 435.635 25.1243 435.635 27.0635ZM425.446 20.2344C423.916 20.2344 422.615 20.668 421.543 21.5352C420.472 22.4023 419.767 23.5827 419.43 25.0762H431.516C431.143 23.5586 430.414 22.3722 429.33 21.5171C428.258 20.6619 426.963 20.2344 425.446 20.2344ZM449.583 16.9102H451.353V20.7944H449.185C447.499 20.7944 446.228 21.2642 445.373 22.2036C444.518 23.1431 444.09 24.5221 444.09 26.3408V37H439.989V17.0186H442.771L443.458 19.7466C444.879 17.8556 446.921 16.9102 449.583 16.9102ZM466.926 35.7534C465.445 36.9097 463.488 37.4878 461.055 37.4878C458.622 37.4878 456.665 36.8675 455.183 35.627C453.714 34.3864 452.949 32.7303 452.889 30.6587H456.899C456.948 31.6825 457.363 32.4774 458.146 33.0435C458.941 33.5975 459.959 33.8745 461.199 33.8745C462.331 33.8745 463.265 33.6457 464 33.188C464.734 32.7183 465.102 32.0799 465.102 31.2729C465.102 30.9116 465.011 30.5864 464.831 30.2974C464.662 30.0083 464.451 29.7795 464.198 29.6108C463.957 29.4302 463.608 29.2676 463.15 29.123C462.705 28.9785 462.301 28.8701 461.94 28.7979C461.591 28.7256 461.115 28.6353 460.513 28.5269C459.898 28.4185 459.411 28.3281 459.049 28.2559C458.688 28.1836 458.218 28.0692 457.64 27.9126C457.062 27.744 456.592 27.5693 456.231 27.3887C455.882 27.208 455.496 26.9671 455.075 26.666C454.653 26.3649 454.322 26.0337 454.081 25.6724C453.852 25.299 453.653 24.8473 453.485 24.3174C453.328 23.7874 453.25 23.2033 453.25 22.5649C453.25 20.7703 453.961 19.319 455.382 18.2109C456.815 17.0908 458.688 16.5308 461 16.5308C463.313 16.5308 465.168 17.1149 466.565 18.2832C467.974 19.4395 468.697 20.9871 468.733 22.9263H464.849C464.812 21.9868 464.451 21.2702 463.765 20.7764C463.078 20.2705 462.127 20.0176 460.91 20.0176C459.778 20.0176 458.881 20.2404 458.218 20.686C457.556 21.1196 457.225 21.7038 457.225 22.4385C457.225 22.7275 457.273 22.9865 457.369 23.2153C457.465 23.4321 457.628 23.6248 457.857 23.7935C458.098 23.9621 458.321 24.1006 458.525 24.209C458.742 24.3174 459.055 24.4198 459.465 24.5161C459.886 24.6125 460.23 24.6908 460.495 24.751C460.76 24.7992 461.151 24.8654 461.669 24.9497C463.62 25.2749 465.023 25.6182 465.878 25.9795C467.926 26.8587 469.01 28.4064 469.13 30.6226C469.142 30.7671 469.148 30.9237 469.148 31.0923C469.148 33.0314 468.408 34.5851 466.926 35.7534Z" fill="#11346F"/>
<path d="M498.615 17.0005H503.746V36.9819H498.434L497.838 35.5728C496.116 36.9578 494.104 37.6504 491.804 37.6504C489.792 37.6504 487.986 37.1987 486.384 36.2954C484.794 35.38 483.553 34.1154 482.662 32.5015C481.771 30.8755 481.325 29.0387 481.325 26.9912C481.325 23.8958 482.307 21.3605 484.27 19.3853C486.233 17.3979 488.744 16.4043 491.804 16.4043C494.152 16.4043 496.188 17.1149 497.91 18.5361L498.615 17.0005ZM489.527 30.2612C490.37 31.1284 491.436 31.562 492.725 31.562C494.014 31.562 495.08 31.1284 495.923 30.2612C496.778 29.394 497.206 28.3101 497.206 27.0093C497.206 25.7085 496.778 24.6245 495.923 23.7573C495.08 22.8901 494.014 22.4565 492.725 22.4565C491.436 22.4565 490.37 22.8901 489.527 23.7573C488.684 24.6125 488.263 25.6965 488.263 27.0093C488.263 28.3101 488.684 29.394 489.527 30.2612ZM519.283 16.9282H521.107V23.2153H518.434C517.217 23.2153 516.338 23.5044 515.796 24.0825C515.254 24.6486 514.983 25.57 514.983 26.8467V37H508.1V17.0186H512.707L513.772 19.2407C514.471 18.4338 515.26 17.8496 516.139 17.4883C517.03 17.1149 518.078 16.9282 519.283 16.9282ZM543.961 26.8286C543.961 27.4549 543.919 28.0571 543.835 28.6353H528.984C529.213 29.7795 529.677 30.6466 530.375 31.2368C531.074 31.827 531.971 32.1221 533.067 32.1221C533.874 32.1221 534.591 31.9595 535.217 31.6343C535.856 31.297 536.343 30.8333 536.681 30.2432H543.528C542.829 32.5195 541.535 34.3262 539.644 35.6631C537.765 36.988 535.573 37.6504 533.067 37.6504C531.02 37.6504 529.165 37.1927 527.503 36.2773C525.853 35.3499 524.558 34.0732 523.619 32.4473C522.679 30.8213 522.209 29.0026 522.209 26.9912C522.209 23.932 523.233 21.3966 525.281 19.3853C527.34 17.3739 529.936 16.3682 533.067 16.3682C534.645 16.3682 536.115 16.6392 537.476 17.1812C538.837 17.7231 539.987 18.4639 540.926 19.4033C541.878 20.3307 542.618 21.4388 543.148 22.7275C543.69 24.0163 543.961 25.3833 543.961 26.8286ZM533.067 21.752C532.068 21.752 531.225 22.0169 530.538 22.5469C529.864 23.0648 529.388 23.8236 529.111 24.8232H537.187C536.572 22.7757 535.199 21.752 533.067 21.752ZM562.805 37.6504C560.107 37.6504 557.969 37 556.391 35.6992C554.813 34.3864 554.012 32.634 553.988 30.4419H560.619C560.619 31.1405 560.835 31.6764 561.269 32.0498C561.703 32.4111 562.263 32.5918 562.949 32.5918C563.491 32.5918 563.949 32.4593 564.322 32.1943C564.708 31.9173 564.9 31.5319 564.9 31.0381C564.9 30.5202 564.617 30.1408 564.051 29.8999C563.497 29.647 562.636 29.4242 561.468 29.2314C560.938 29.1471 560.474 29.0628 560.077 28.9785C559.691 28.8942 559.228 28.7738 558.686 28.6172C558.156 28.4486 557.698 28.2679 557.312 28.0752C556.939 27.8825 556.548 27.6296 556.138 27.3164C555.729 26.9912 555.391 26.6359 555.126 26.2505C554.874 25.853 554.663 25.3773 554.494 24.8232C554.338 24.2572 554.259 23.6369 554.259 22.9624C554.259 20.9631 555.042 19.3672 556.608 18.1748C558.174 16.9704 560.239 16.3682 562.805 16.3682C565.334 16.3682 567.363 16.9884 568.893 18.229C570.435 19.4575 571.224 21.0895 571.26 23.125H564.81C564.81 22.4987 564.623 22.029 564.25 21.7158C563.877 21.4027 563.365 21.2461 562.714 21.2461C562.16 21.2461 561.715 21.3786 561.377 21.6436C561.04 21.9085 560.872 22.2699 560.872 22.7275C560.872 22.9443 560.932 23.137 561.052 23.3057C561.173 23.4743 561.317 23.6128 561.486 23.7212C561.667 23.8296 561.913 23.932 562.227 24.0283C562.552 24.1126 562.847 24.1849 563.112 24.2451C563.377 24.2933 563.732 24.3595 564.178 24.4438C564.226 24.4559 564.262 24.4619 564.286 24.4619H564.304H564.322L564.34 24.48H564.358H564.376H564.395H564.413C566.304 24.8172 567.683 25.1906 568.55 25.6001C570.609 26.5757 571.639 28.292 571.639 30.749C571.639 32.8327 570.832 34.5068 569.218 35.7715C567.604 37.0241 565.466 37.6504 562.805 37.6504ZM591.006 17.0005H596.137V36.9819H590.826L590.229 35.5728C588.507 36.9578 586.496 37.6504 584.195 37.6504C582.184 37.6504 580.377 37.1987 578.775 36.2954C577.186 35.38 575.945 34.1154 575.054 32.5015C574.162 30.8755 573.717 29.0387 573.717 26.9912C573.717 23.8958 574.698 21.3605 576.662 19.3853C578.625 17.3979 581.136 16.4043 584.195 16.4043C586.544 16.4043 588.579 17.1149 590.302 18.5361L591.006 17.0005ZM581.919 30.2612C582.762 31.1284 583.828 31.562 585.117 31.562C586.405 31.562 587.471 31.1284 588.314 30.2612C589.17 29.394 589.597 28.3101 589.597 27.0093C589.597 25.7085 589.17 24.6245 588.314 23.7573C587.471 22.8901 586.405 22.4565 585.117 22.4565C583.828 22.4565 582.762 22.8901 581.919 23.7573C581.076 24.6125 580.654 25.6965 580.654 27.0093C580.654 28.3101 581.076 29.394 581.919 30.2612ZM613.987 17.0186H621.376L613.011 36.1147C612.084 38.2104 611.162 39.8424 610.247 41.0107C609.344 42.1911 608.29 43.0583 607.085 43.6123C605.881 44.1663 604.412 44.4434 602.677 44.4434H600.311V38.5176H602.208C603.508 38.5176 604.442 38.3068 605.008 37.8853C605.574 37.4637 606.098 36.6206 606.58 35.356L598.323 17.0186H605.785L610.03 28.021L613.987 17.0186ZM623.49 14.5254V8.67188H630.265V14.5254H623.49ZM623.436 37V17.0186H630.319V37H623.436ZM646.705 16.4224C649.03 16.4224 650.89 17.1872 652.288 18.7168C653.685 20.2464 654.383 22.2819 654.383 24.8232V37H647.5V25.7627C647.5 23.4502 646.633 22.2939 644.898 22.2939C643.826 22.2939 642.995 22.6493 642.405 23.3599C641.815 24.0584 641.52 25.0461 641.52 26.3228V37H634.637V17.0186H639.46L640.4 19.0781C641.147 18.235 642.062 17.5846 643.146 17.127C644.242 16.6572 645.428 16.4224 646.705 16.4224ZM674.491 17.0186H679.152V34.7778C679.152 37.9214 678.189 40.4025 676.262 42.2212C674.347 44.0399 671.739 44.9492 668.439 44.9492C665.609 44.9492 663.254 44.2747 661.375 42.9258C659.496 41.5889 658.328 39.734 657.87 37.3613H664.519C664.747 37.9997 665.223 38.4995 665.946 38.8608C666.668 39.2222 667.475 39.4028 668.367 39.4028C669.559 39.4028 670.553 39.0535 671.348 38.355C672.143 37.6564 672.54 36.729 672.54 35.5728V34.9766C670.974 35.9762 669.234 36.4761 667.319 36.4761C665.44 36.4761 663.736 36.0425 662.206 35.1753C660.676 34.3081 659.478 33.1097 658.611 31.5801C657.756 30.0505 657.328 28.3341 657.328 26.4312C657.328 24.5522 657.756 22.848 658.611 21.3184C659.478 19.7887 660.676 18.5843 662.206 17.7051C663.736 16.8258 665.44 16.3862 667.319 16.3862C669.716 16.3862 671.817 17.1571 673.624 18.6987L674.491 17.0186ZM665.386 29.5747C666.193 30.3937 667.216 30.8032 668.457 30.8032C669.698 30.8032 670.715 30.3937 671.51 29.5747C672.305 28.7557 672.703 27.7078 672.703 26.4312C672.703 25.1665 672.305 24.1247 671.51 23.3057C670.715 22.4867 669.698 22.0771 668.457 22.0771C667.216 22.0771 666.193 22.4867 665.386 23.3057C664.591 24.1247 664.193 25.1665 664.193 26.4312C664.193 27.7078 664.591 28.7557 665.386 29.5747Z" fill="#197AFF"/>
<path fill-rule="evenodd" clip-rule="evenodd" d="M625.976 50.8566C626.023 50.7813 626.05 50.6969 626.05 50.6079C626.05 50.2883 625.707 50.0293 625.284 50.0293C615.12 50.0293 604.955 50.0228 594.79 50.0163C574.458 50.0032 554.124 49.9901 533.791 50.0293C532.175 50.0324 530.54 50.0238 528.896 50.0151C523.077 49.9844 517.126 49.9529 511.343 50.4385C510.901 50.4756 510.555 50.5109 510.302 50.5451C510.177 50.562 510.06 50.5806 509.96 50.6021C509.91 50.6128 509.852 50.6268 509.793 50.6454C509.744 50.6608 509.644 50.6945 509.546 50.7576C509.459 50.813 509.219 50.9951 509.268 51.2894C509.312 51.555 509.561 51.6866 509.628 51.7194C509.782 51.7955 509.954 51.8232 510.016 51.8334L510.018 51.8336C510.199 51.8629 510.45 51.8834 510.727 51.8998C511.857 51.9667 514.078 51.9982 516.7 52.0118C520.048 52.0292 524.116 52.0173 527.531 52.0072C529.478 52.0015 531.212 51.9964 532.48 51.9977C548.539 52.0143 564.598 52.0207 580.657 52.0217C566.275 52.2907 551.894 52.6197 537.518 53.0424C520.909 53.1014 505.238 53.1566 492.462 53.2016C484.16 53.2308 477.08 53.2557 471.762 53.2746C471.339 53.2761 470.998 53.5363 471 53.8558C471.002 54.1753 471.346 54.4331 471.769 54.4316C477.087 54.4128 484.167 54.3878 492.469 54.3586C495.272 54.3487 498.215 54.3384 501.276 54.3276C500.689 54.3523 500.102 54.3772 499.515 54.4023C494.512 54.6163 491.958 54.7388 491.057 54.7991C490.944 54.8067 490.85 54.8138 490.777 54.8204C490.741 54.8236 490.705 54.8274 490.67 54.8317L490.668 54.832C490.648 54.8344 490.575 54.8436 490.497 54.8647C490.474 54.8712 490.425 54.8854 490.369 54.9101C490.334 54.9256 490.184 54.9914 490.082 55.1323C490.038 55.2035 489.989 55.3694 489.989 55.4615C490.009 55.5505 490.09 55.702 490.144 55.7634C490.263 55.8817 490.409 55.9305 490.444 55.9424C490.536 55.9733 490.618 55.9836 490.636 55.9859L490.638 55.9861C490.669 55.9901 490.697 55.9922 490.714 55.9935C490.779 55.9979 490.858 55.9992 490.928 55.9997C491.229 56.0019 491.839 55.9917 492.639 55.9738C494.857 55.9242 498.67 55.8123 501.941 55.7163C503.42 55.673 504.789 55.6328 505.85 55.6031C536.427 54.7473 567.032 54.2665 597.64 53.9832C616.669 53.9134 633.731 53.849 645.567 53.8006C662.079 53.7332 670.869 53.6895 674.672 53.6624C675.622 53.6556 676.263 53.6498 676.636 53.6449C676.818 53.6425 676.948 53.6402 677.017 53.6378C677.032 53.6372 677.059 53.6362 677.086 53.6342L677.087 53.6341C677.093 53.6337 677.141 53.6304 677.196 53.6203C677.244 53.6104 677.423 53.5487 677.54 53.4808C677.772 53.16 677.555 52.6445 677.349 52.5352C677.284 52.5145 677.188 52.4929 677.158 52.4881C677.141 52.4859 677.113 52.4828 677.102 52.4817C677.08 52.4798 677.062 52.4789 677.053 52.4784C677.032 52.4774 677.011 52.4768 676.993 52.4764C676.725 52.4697 675.551 52.4668 673.843 52.466C666.969 52.463 651.096 52.4967 648.123 52.5083C634.428 52.562 620.728 52.6356 607.028 52.7451C614.47 52.6373 621.911 52.5399 629.352 52.4484C648.122 52.2174 658.087 52.1318 676.402 52.0428C680.694 52.0219 684.985 52.0126 689.278 52.0033C690.134 52.0015 690.99 51.9996 691.846 51.9977H696.258C696.44 51.9977 696.536 51.9977 696.556 51.9976L696.565 51.9975C696.565 51.9975 696.573 51.9974 696.581 51.9972C696.589 51.997 696.617 51.9956 696.638 51.9941C697.188 51.7438 697.049 50.9776 696.634 50.8436C696.615 50.8423 696.589 50.841 696.582 50.8408L696.571 50.8406L696.563 50.8405L696.556 50.8404L696.526 50.8403L696.397 50.8402C696.167 50.8399 695.707 50.8396 695.155 50.8394C694.053 50.839 692.581 50.839 691.844 50.8406H690.175C672.653 50.8406 655.131 50.8467 637.609 50.8527C633.731 50.854 629.853 50.8554 625.976 50.8566ZM490.925 55.9727C490.916 55.974 490.914 55.974 490.922 55.9731C490.922 55.973 490.923 55.9729 490.925 55.9727ZM510.315 50.6977C510.315 50.6976 510.32 50.6985 510.329 50.7007C510.319 50.6989 510.314 50.6978 510.315 50.6977Z" fill="#197AFF"/>
</svg>
