<svg width="154" height="132" viewBox="0 0 154 132" fill="none" xmlns="http://www.w3.org/2000/svg">
<path d="M0.624828 81.62C0.624828 81.172 0.696828 80.812 0.840828 80.54C0.992828 80.268 1.19683 80.072 1.45283 79.952C1.70883 79.824 1.99283 79.76 2.30483 79.76C2.61683 79.76 2.89683 79.824 3.14483 79.952C3.40083 80.072 3.60483 80.268 3.75683 80.54C3.90883 80.812 3.98483 81.172 3.98483 81.62C3.98483 82.06 3.90883 82.416 3.75683 82.688C3.60483 82.96 3.40083 83.16 3.14483 83.288C2.89683 83.416 2.61683 83.48 2.30483 83.48C1.99283 83.48 1.70883 83.416 1.45283 83.288C1.19683 83.16 0.992828 82.96 0.840828 82.688C0.696828 82.416 0.624828 82.06 0.624828 81.62ZM11.8613 77.5977C12.6543 77.5977 13.3164 77.8555 13.8477 78.3711C14.3828 78.8828 14.6504 79.5234 14.6504 80.293C14.6504 81.0625 14.3848 81.7031 13.8535 82.2148C13.3223 82.7266 12.6582 82.9824 11.8613 82.9824H9.89844V86H8.84961V77.5977H11.8613ZM11.8027 81.9629C12.3184 81.9629 12.7422 81.8047 13.0742 81.4883C13.4062 81.1719 13.5723 80.7734 13.5723 80.293C13.5723 79.8125 13.4062 79.4141 13.0742 79.0977C12.7422 78.7773 12.3184 78.6172 11.8027 78.6172H9.89844V81.9629H11.8027ZM22.0391 82.7891C22.0391 82.9062 22.0332 83.0273 22.0215 83.1523H16.4961C16.5742 83.7539 16.8203 84.2363 17.2344 84.5996C17.6523 84.9629 18.166 85.1445 18.7754 85.1445C19.2207 85.1445 19.6172 85.0469 19.9648 84.8516C20.3125 84.6523 20.5879 84.377 20.791 84.0254H21.8691C21.5918 84.6934 21.1816 85.2129 20.6387 85.584C20.0996 85.9551 19.4785 86.1406 18.7754 86.1406C18.1582 86.1406 17.5957 85.9941 17.0879 85.7012C16.584 85.4082 16.1875 85.0039 15.8984 84.4883C15.6133 83.9727 15.4707 83.3965 15.4707 82.7598C15.4707 82.127 15.6133 81.5527 15.8984 81.0371C16.1875 80.5176 16.584 80.1113 17.0879 79.8184C17.5957 79.5254 18.1582 79.3789 18.7754 79.3789C19.416 79.3789 19.9863 79.5312 20.4863 79.8359C20.9863 80.1406 21.3691 80.5527 21.6348 81.0723C21.9043 81.5879 22.0391 82.1602 22.0391 82.7891ZM18.7754 80.3457C18.1895 80.3457 17.6934 80.5156 17.2871 80.8555C16.8809 81.1914 16.625 81.6426 16.5195 82.209H21.0195C20.9102 81.6348 20.6523 81.1816 20.2461 80.8496C19.8438 80.5137 19.3535 80.3457 18.7754 80.3457ZM26.5273 79.4844H27.1016V80.4512H26.4395C25.8535 80.4512 25.3984 80.6309 25.0742 80.9902C24.75 81.3496 24.5879 81.8457 24.5879 82.4785V86H23.5625V79.5195H24.2891L24.4531 80.5039C24.9219 79.8242 25.6133 79.4844 26.5273 79.4844ZM31.6602 79.5664V80.4219H29.6738V86H28.6543V80.4219H27.377V79.5664H28.6543V79.0391C28.6543 78.3398 28.8223 77.8203 29.1582 77.4805C29.4941 77.1406 30.0195 76.9707 30.7344 76.9707H31.6484V77.7969H30.916C30.4551 77.7969 30.127 77.8945 29.9316 78.0898C29.7363 78.2812 29.6387 78.6055 29.6387 79.0625V79.5664H31.6602ZM38.6797 82.7891C38.6797 82.9062 38.6738 83.0273 38.6621 83.1523H33.1367C33.2148 83.7539 33.4609 84.2363 33.875 84.5996C34.293 84.9629 34.8066 85.1445 35.416 85.1445C35.8613 85.1445 36.2578 85.0469 36.6055 84.8516C36.9531 84.6523 37.2285 84.377 37.4316 84.0254H38.5098C38.2324 84.6934 37.8223 85.2129 37.2793 85.584C36.7402 85.9551 36.1191 86.1406 35.416 86.1406C34.7988 86.1406 34.2363 85.9941 33.7285 85.7012C33.2246 85.4082 32.8281 85.0039 32.5391 84.4883C32.2539 83.9727 32.1113 83.3965 32.1113 82.7598C32.1113 82.127 32.2539 81.5527 32.5391 81.0371C32.8281 80.5176 33.2246 80.1113 33.7285 79.8184C34.2363 79.5254 34.7988 79.3789 35.416 79.3789C36.0566 79.3789 36.627 79.5312 37.127 79.8359C37.627 80.1406 38.0098 80.5527 38.2754 81.0723C38.5449 81.5879 38.6797 82.1602 38.6797 82.7891ZM35.416 80.3457C34.8301 80.3457 34.334 80.5156 33.9277 80.8555C33.5215 81.1914 33.2656 81.6426 33.1602 82.209H37.6602C37.5508 81.6348 37.293 81.1816 36.8867 80.8496C36.4844 80.5137 35.9941 80.3457 35.416 80.3457ZM43.0625 86.1406C42.4336 86.1406 41.8613 85.9941 41.3457 85.7012C40.8301 85.4082 40.4258 85.0039 40.1328 84.4883C39.8398 83.9688 39.6934 83.3926 39.6934 82.7598C39.6934 82.123 39.8398 81.5469 40.1328 81.0312C40.4258 80.5156 40.8301 80.1113 41.3457 79.8184C41.8613 79.5254 42.4336 79.3789 43.0625 79.3789C43.832 79.3789 44.498 79.5898 45.0605 80.0117C45.627 80.4336 46.0098 80.998 46.209 81.7051H45.2012C45.0098 81.2871 44.7246 80.959 44.3457 80.7207C43.9668 80.4824 43.5391 80.3633 43.0625 80.3633C42.3984 80.3633 41.8438 80.5938 41.3984 81.0547C40.957 81.5117 40.7363 82.0801 40.7363 82.7598C40.7363 83.4355 40.959 84.0039 41.4043 84.4648C41.8496 84.9258 42.4023 85.1562 43.0625 85.1562C43.5391 85.1562 43.9629 85.0352 44.334 84.793C44.7051 84.5508 44.9902 84.2129 45.1895 83.7793H46.2207C46.0215 84.4941 45.6348 85.0664 45.0605 85.4961C44.4902 85.9258 43.8242 86.1406 43.0625 86.1406ZM50.334 85.0566H51.0371V86H50.1992C49.5 86 48.9492 85.7988 48.5469 85.3965C48.1484 84.9902 47.9492 84.4355 47.9492 83.7324V80.4395H46.8066V80.2578L48.8105 78.1484H48.9688V79.5195H51.002V80.4395H48.9688V83.7031C48.9688 84.1406 49.0859 84.4766 49.3203 84.7109C49.5547 84.9414 49.8926 85.0566 50.334 85.0566ZM62.709 79.3789C63.3887 79.3789 63.9375 79.6094 64.3555 80.0703C64.7734 80.5312 64.9824 81.127 64.9824 81.8574V86H63.9688L63.9629 82.1738C63.9629 81.5879 63.834 81.1309 63.5762 80.8027C63.3184 80.4746 62.959 80.3105 62.498 80.3105C62.0215 80.3105 61.6133 80.5137 61.2734 80.9199C60.9375 81.3223 60.7695 81.8184 60.7695 82.4082V86H59.7734V82.1738C59.7734 81.5879 59.6445 81.1309 59.3867 80.8027C59.1289 80.4746 58.7656 80.3105 58.2969 80.3105C57.8203 80.3105 57.4121 80.5137 57.0723 80.9199C56.7363 81.3223 56.5684 81.8184 56.5684 82.4082V86H55.543V79.5195H56.2812L56.4453 80.4102C56.6953 80.0859 57.002 79.834 57.3652 79.6543C57.7324 79.4707 58.1191 79.3789 58.5254 79.3789C58.9785 79.3789 59.377 79.4883 59.7207 79.707C60.0645 79.9258 60.3281 80.2266 60.5117 80.6094C60.7539 80.2266 61.0684 79.9258 61.4551 79.707C61.8457 79.4883 62.2637 79.3789 62.709 79.3789ZM69.7109 86.1406C68.8398 86.1406 68.1426 85.8789 67.6191 85.3555C67.0996 84.832 66.8398 84.1348 66.8398 83.2637V79.5195H67.8594V83.0996C67.8594 83.7363 68.0254 84.2383 68.3574 84.6055C68.6895 84.9727 69.1406 85.1562 69.7109 85.1562C70.2852 85.1562 70.7363 84.9727 71.0645 84.6055C71.3965 84.2344 71.5625 83.7324 71.5625 83.0996V79.5195H72.582V83.2637C72.582 84.1348 72.3223 84.832 71.8027 85.3555C71.2832 85.8789 70.5859 86.1406 69.7109 86.1406ZM76.5781 86.1406C75.8125 86.1406 75.1973 85.9492 74.7324 85.5664C74.2676 85.1836 74.0215 84.666 73.9941 84.0137H74.9902C75.0176 84.3887 75.1777 84.6797 75.4707 84.8867C75.7676 85.0938 76.1484 85.1973 76.6133 85.1973C77.0625 85.1973 77.4277 85.1074 77.709 84.9277C77.9941 84.748 78.1367 84.502 78.1367 84.1895C78.1367 84.0684 78.1172 83.959 78.0781 83.8613C78.0391 83.7637 77.9766 83.6816 77.8906 83.6152C77.8047 83.5449 77.7188 83.4863 77.6328 83.4395C77.5469 83.3887 77.4277 83.3438 77.2754 83.3047C77.127 83.2656 76.998 83.2363 76.8887 83.2168C76.7832 83.1934 76.6387 83.166 76.4551 83.1348C76.3105 83.1113 76.1973 83.0918 76.1152 83.0762C76.0371 83.0605 75.9277 83.0371 75.7871 83.0059C75.6504 82.9746 75.541 82.9453 75.459 82.918C75.377 82.8906 75.2754 82.8555 75.1543 82.8125C75.0332 82.7695 74.9355 82.7227 74.8613 82.6719C74.791 82.6211 74.7109 82.5625 74.6211 82.4961C74.5312 82.4258 74.459 82.3496 74.4043 82.2676C74.3535 82.1855 74.3027 82.0957 74.252 81.998C74.2012 81.8965 74.1641 81.7832 74.1406 81.6582C74.1211 81.5332 74.1113 81.3984 74.1113 81.2539C74.1113 80.6953 74.3359 80.2441 74.7852 79.9004C75.2344 79.5527 75.8242 79.3789 76.5547 79.3789C77.2852 79.3789 77.8691 79.5605 78.3066 79.9238C78.748 80.2832 78.9785 80.7695 78.998 81.3828H78.0312C78.0117 81.0312 77.8711 80.7617 77.6094 80.5742C77.3477 80.3828 76.9883 80.2871 76.5312 80.2871C76.0938 80.2871 75.7461 80.373 75.4883 80.5449C75.2305 80.7129 75.1016 80.9375 75.1016 81.2188C75.1016 81.3281 75.1191 81.4277 75.1543 81.5176C75.1895 81.6035 75.248 81.6777 75.3301 81.7402C75.4121 81.8027 75.4941 81.8555 75.5762 81.8984C75.6582 81.9414 75.7715 81.9805 75.916 82.0156C76.0605 82.0508 76.1836 82.0781 76.2852 82.0977C76.3867 82.1172 76.5293 82.1406 76.7129 82.168C77.3535 82.2734 77.8125 82.3848 78.0898 82.502C78.7305 82.7715 79.0781 83.2441 79.1328 83.9199C79.1406 83.9941 79.1445 84.0684 79.1445 84.1426C79.1445 84.748 78.9102 85.2324 78.4414 85.5957C77.9727 85.959 77.3516 86.1406 76.5781 86.1406ZM83.5391 86.1406C82.9102 86.1406 82.3379 85.9941 81.8223 85.7012C81.3066 85.4082 80.9023 85.0039 80.6094 84.4883C80.3164 83.9688 80.1699 83.3926 80.1699 82.7598C80.1699 82.123 80.3164 81.5469 80.6094 81.0312C80.9023 80.5156 81.3066 80.1113 81.8223 79.8184C82.3379 79.5254 82.9102 79.3789 83.5391 79.3789C84.3086 79.3789 84.9746 79.5898 85.5371 80.0117C86.1035 80.4336 86.4863 80.998 86.6855 81.7051H85.6777C85.4863 81.2871 85.2012 80.959 84.8223 80.7207C84.4434 80.4824 84.0156 80.3633 83.5391 80.3633C82.875 80.3633 82.3203 80.5938 81.875 81.0547C81.4336 81.5117 81.2129 82.0801 81.2129 82.7598C81.2129 83.4355 81.4355 84.0039 81.8809 84.4648C82.3262 84.9258 82.8789 85.1562 83.5391 85.1562C84.0156 85.1562 84.4395 85.0352 84.8105 84.793C85.1816 84.5508 85.4668 84.2129 85.666 83.7793H86.6973C86.498 84.4941 86.1113 85.0664 85.5371 85.4961C84.9668 85.9258 84.3008 86.1406 83.5391 86.1406ZM88.1211 86V77.2051H89.1465V86H88.1211ZM97.25 82.7891C97.25 82.9062 97.2441 83.0273 97.2324 83.1523H91.707C91.7852 83.7539 92.0312 84.2363 92.4453 84.5996C92.8633 84.9629 93.377 85.1445 93.9863 85.1445C94.4316 85.1445 94.8281 85.0469 95.1758 84.8516C95.5234 84.6523 95.7988 84.377 96.002 84.0254H97.0801C96.8027 84.6934 96.3926 85.2129 95.8496 85.584C95.3105 85.9551 94.6895 86.1406 93.9863 86.1406C93.3691 86.1406 92.8066 85.9941 92.2988 85.7012C91.7949 85.4082 91.3984 85.0039 91.1094 84.4883C90.8242 83.9727 90.6816 83.3965 90.6816 82.7598C90.6816 82.127 90.8242 81.5527 91.1094 81.0371C91.3984 80.5176 91.7949 80.1113 92.2988 79.8184C92.8066 79.5254 93.3691 79.3789 93.9863 79.3789C94.627 79.3789 95.1973 79.5312 95.6973 79.8359C96.1973 80.1406 96.5801 80.5527 96.8457 81.0723C97.1152 81.5879 97.25 82.1602 97.25 82.7891ZM93.9863 80.3457C93.4004 80.3457 92.9043 80.5156 92.498 80.8555C92.0918 81.1914 91.8359 81.6426 91.7305 82.209H96.2305C96.1211 81.6348 95.8633 81.1816 95.457 80.8496C95.0547 80.5137 94.5645 80.3457 93.9863 80.3457ZM104.879 79.4844H105.453V80.4512H104.791C104.205 80.4512 103.75 80.6309 103.426 80.9902C103.102 81.3496 102.939 81.8457 102.939 82.4785V86H101.914V79.5195H102.641L102.805 80.5039C103.273 79.8242 103.965 79.4844 104.879 79.4844ZM112.391 82.7891C112.391 82.9062 112.385 83.0273 112.373 83.1523H106.848C106.926 83.7539 107.172 84.2363 107.586 84.5996C108.004 84.9629 108.518 85.1445 109.127 85.1445C109.572 85.1445 109.969 85.0469 110.316 84.8516C110.664 84.6523 110.939 84.377 111.143 84.0254H112.221C111.943 84.6934 111.533 85.2129 110.99 85.584C110.451 85.9551 109.83 86.1406 109.127 86.1406C108.51 86.1406 107.947 85.9941 107.439 85.7012C106.936 85.4082 106.539 85.0039 106.25 84.4883C105.965 83.9727 105.822 83.3965 105.822 82.7598C105.822 82.127 105.965 81.5527 106.25 81.0371C106.539 80.5176 106.936 80.1113 107.439 79.8184C107.947 79.5254 108.51 79.3789 109.127 79.3789C109.768 79.3789 110.338 79.5312 110.838 79.8359C111.338 80.1406 111.721 80.5527 111.986 81.0723C112.256 81.5879 112.391 82.1602 112.391 82.7891ZM109.127 80.3457C108.541 80.3457 108.045 80.5156 107.639 80.8555C107.232 81.1914 106.977 81.6426 106.871 82.209H111.371C111.262 81.6348 111.004 81.1816 110.598 80.8496C110.195 80.5137 109.705 80.3457 109.127 80.3457ZM116.773 86.1406C116.145 86.1406 115.572 85.9941 115.057 85.7012C114.541 85.4082 114.137 85.0039 113.844 84.4883C113.551 83.9688 113.404 83.3926 113.404 82.7598C113.404 82.123 113.551 81.5469 113.844 81.0312C114.137 80.5156 114.541 80.1113 115.057 79.8184C115.572 79.5254 116.145 79.3789 116.773 79.3789C117.543 79.3789 118.209 79.5898 118.771 80.0117C119.338 80.4336 119.721 80.998 119.92 81.7051H118.912C118.721 81.2871 118.436 80.959 118.057 80.7207C117.678 80.4824 117.25 80.3633 116.773 80.3633C116.109 80.3633 115.555 80.5938 115.109 81.0547C114.668 81.5117 114.447 82.0801 114.447 82.7598C114.447 83.4355 114.67 84.0039 115.115 84.4648C115.561 84.9258 116.113 85.1562 116.773 85.1562C117.25 85.1562 117.674 85.0352 118.045 84.793C118.416 84.5508 118.701 84.2129 118.9 83.7793H119.932C119.732 84.4941 119.346 85.0664 118.771 85.4961C118.201 85.9258 117.535 86.1406 116.773 86.1406ZM124.279 86.1406C123.299 86.1406 122.48 85.8203 121.824 85.1797C121.172 84.5352 120.846 83.7285 120.846 82.7598C120.846 82.1191 120.994 81.541 121.291 81.0254C121.588 80.5098 121.998 80.1074 122.521 79.8184C123.049 79.5254 123.635 79.3789 124.279 79.3789C124.924 79.3789 125.508 79.5254 126.031 79.8184C126.559 80.1074 126.971 80.5117 127.268 81.0312C127.568 81.5469 127.719 82.123 127.719 82.7598C127.719 83.3965 127.568 83.9746 127.268 84.4941C126.971 85.0098 126.559 85.4141 126.031 85.707C125.508 85.9961 124.924 86.1406 124.279 86.1406ZM122.562 84.4824C123.012 84.9316 123.584 85.1562 124.279 85.1562C124.975 85.1562 125.547 84.9316 125.996 84.4824C126.449 84.0293 126.676 83.4551 126.676 82.7598C126.676 82.0645 126.449 81.4922 125.996 81.043C125.547 80.5898 124.975 80.3633 124.279 80.3633C123.584 80.3633 123.012 80.5898 122.562 81.043C122.113 81.4922 121.889 82.0645 121.889 82.7598C121.889 83.4551 122.113 84.0293 122.562 84.4824ZM133.643 79.5195H134.686L131.955 86H131.029L128.223 79.5195H129.289L131.486 84.6758L133.643 79.5195ZM141.793 82.7891C141.793 82.9062 141.787 83.0273 141.775 83.1523H136.25C136.328 83.7539 136.574 84.2363 136.988 84.5996C137.406 84.9629 137.92 85.1445 138.529 85.1445C138.975 85.1445 139.371 85.0469 139.719 84.8516C140.066 84.6523 140.342 84.377 140.545 84.0254H141.623C141.346 84.6934 140.936 85.2129 140.393 85.584C139.854 85.9551 139.232 86.1406 138.529 86.1406C137.912 86.1406 137.35 85.9941 136.842 85.7012C136.338 85.4082 135.941 85.0039 135.652 84.4883C135.367 83.9727 135.225 83.3965 135.225 82.7598C135.225 82.127 135.367 81.5527 135.652 81.0371C135.941 80.5176 136.338 80.1113 136.842 79.8184C137.35 79.5254 137.912 79.3789 138.529 79.3789C139.17 79.3789 139.74 79.5312 140.24 79.8359C140.74 80.1406 141.123 80.5527 141.389 81.0723C141.658 81.5879 141.793 82.1602 141.793 82.7891ZM138.529 80.3457C137.943 80.3457 137.447 80.5156 137.041 80.8555C136.635 81.1914 136.379 81.6426 136.273 82.209H140.773C140.664 81.6348 140.406 81.1816 140 80.8496C139.598 80.5137 139.107 80.3457 138.529 80.3457ZM146.281 79.4844H146.855V80.4512H146.193C145.607 80.4512 145.152 80.6309 144.828 80.9902C144.504 81.3496 144.342 81.8457 144.342 82.4785V86H143.316V79.5195H144.043L144.207 80.5039C144.676 79.8242 145.367 79.4844 146.281 79.4844ZM152.686 79.5195H153.77L150.682 86.2695C150.33 87.0391 149.971 87.5723 149.604 87.8691C149.24 88.166 148.754 88.3145 148.145 88.3145H147.535V87.3887H148.057C148.486 87.3887 148.811 87.3008 149.029 87.125C149.248 86.9492 149.488 86.5879 149.75 86.041L149.984 85.5605L147.102 79.5195H148.215L150.518 84.4238L152.686 79.5195ZM10.8729 101.62C10.8729 101.172 10.9449 100.812 11.0889 100.54C11.2409 100.268 11.4449 100.072 11.7009 99.952C11.9569 99.824 12.2409 99.76 12.5529 99.76C12.8649 99.76 13.1449 99.824 13.3929 99.952C13.6489 100.072 13.8529 100.268 14.0049 100.54C14.1569 100.812 14.2329 101.172 14.2329 101.62C14.2329 102.06 14.1569 102.416 14.0049 102.688C13.8529 102.96 13.6489 103.16 13.3929 103.288C13.1449 103.416 12.8649 103.48 12.5529 103.48C12.2409 103.48 11.9569 103.416 11.7009 103.288C11.4449 103.16 11.2409 102.96 11.0889 102.688C10.9449 102.416 10.8729 102.06 10.8729 101.62ZM19.0977 106V97.5977H20.1465V106H19.0977ZM29.4922 99.3789C30.1719 99.3789 30.7207 99.6094 31.1387 100.07C31.5566 100.531 31.7656 101.127 31.7656 101.857V106H30.752L30.7461 102.174C30.7461 101.588 30.6172 101.131 30.3594 100.803C30.1016 100.475 29.7422 100.311 29.2812 100.311C28.8047 100.311 28.3965 100.514 28.0566 100.92C27.7207 101.322 27.5527 101.818 27.5527 102.408V106H26.5566V102.174C26.5566 101.588 26.4277 101.131 26.1699 100.803C25.9121 100.475 25.5488 100.311 25.0801 100.311C24.6035 100.311 24.1953 100.514 23.8555 100.92C23.5195 101.322 23.3516 101.818 23.3516 102.408V106H22.3262V99.5195H23.0645L23.2285 100.41C23.4785 100.086 23.7852 99.834 24.1484 99.6543C24.5156 99.4707 24.9023 99.3789 25.3086 99.3789C25.7617 99.3789 26.1602 99.4883 26.5039 99.707C26.8477 99.9258 27.1113 100.227 27.2949 100.609C27.5371 100.227 27.8516 99.9258 28.2383 99.707C28.6289 99.4883 29.0469 99.3789 29.4922 99.3789ZM37.1738 99.3789C37.8105 99.3789 38.3828 99.5254 38.8906 99.8184C39.3984 100.111 39.793 100.516 40.0742 101.031C40.3594 101.543 40.502 102.119 40.502 102.76C40.502 103.729 40.1875 104.535 39.5586 105.18C38.9297 105.82 38.1348 106.141 37.1738 106.141C36.6973 106.141 36.25 106.053 35.832 105.877C35.418 105.701 35.0586 105.453 34.7539 105.133V108.314H33.7285V99.5195H34.4316L34.6367 100.51C34.9414 100.154 35.3125 99.877 35.75 99.6777C36.1875 99.4785 36.6621 99.3789 37.1738 99.3789ZM35.3867 104.471C35.8438 104.928 36.4141 105.156 37.0977 105.156C37.7812 105.156 38.3477 104.93 38.7969 104.477C39.2461 104.02 39.4707 103.447 39.4707 102.76C39.4707 102.072 39.2461 101.502 38.7969 101.049C38.3477 100.592 37.7812 100.363 37.0977 100.363C36.4141 100.363 35.8438 100.592 35.3867 101.049C34.9336 101.506 34.707 102.076 34.707 102.76C34.707 103.443 34.9336 104.014 35.3867 104.471ZM45.0137 99.4844H45.5879V100.451H44.9258C44.3398 100.451 43.8848 100.631 43.5605 100.99C43.2363 101.35 43.0742 101.846 43.0742 102.479V106H42.0488V99.5195H42.7754L42.9395 100.504C43.4082 99.8242 44.0996 99.4844 45.0137 99.4844ZM49.3906 106.141C48.4102 106.141 47.5918 105.82 46.9355 105.18C46.2832 104.535 45.957 103.729 45.957 102.76C45.957 102.119 46.1055 101.541 46.4023 101.025C46.6992 100.51 47.1094 100.107 47.6328 99.8184C48.1602 99.5254 48.7461 99.3789 49.3906 99.3789C50.0352 99.3789 50.6191 99.5254 51.1426 99.8184C51.6699 100.107 52.082 100.512 52.3789 101.031C52.6797 101.547 52.8301 102.123 52.8301 102.76C52.8301 103.396 52.6797 103.975 52.3789 104.494C52.082 105.01 51.6699 105.414 51.1426 105.707C50.6191 105.996 50.0352 106.141 49.3906 106.141ZM47.6738 104.482C48.123 104.932 48.6953 105.156 49.3906 105.156C50.0859 105.156 50.6582 104.932 51.1074 104.482C51.5605 104.029 51.7871 103.455 51.7871 102.76C51.7871 102.064 51.5605 101.492 51.1074 101.043C50.6582 100.59 50.0859 100.363 49.3906 100.363C48.6953 100.363 48.123 100.59 47.6738 101.043C47.2246 101.492 47 102.064 47 102.76C47 103.455 47.2246 104.029 47.6738 104.482ZM58.7539 99.5195H59.7969L57.0664 106H56.1406L53.334 99.5195H54.4004L56.5977 104.676L58.7539 99.5195ZM66.9043 102.789C66.9043 102.906 66.8984 103.027 66.8867 103.152H61.3613C61.4395 103.754 61.6855 104.236 62.0996 104.6C62.5176 104.963 63.0312 105.145 63.6406 105.145C64.0859 105.145 64.4824 105.047 64.8301 104.852C65.1777 104.652 65.4531 104.377 65.6562 104.025H66.7344C66.457 104.693 66.0469 105.213 65.5039 105.584C64.9648 105.955 64.3438 106.141 63.6406 106.141C63.0234 106.141 62.4609 105.994 61.9531 105.701C61.4492 105.408 61.0527 105.004 60.7637 104.488C60.4785 103.973 60.3359 103.396 60.3359 102.76C60.3359 102.127 60.4785 101.553 60.7637 101.037C61.0527 100.518 61.4492 100.111 61.9531 99.8184C62.4609 99.5254 63.0234 99.3789 63.6406 99.3789C64.2812 99.3789 64.8516 99.5312 65.3516 99.8359C65.8516 100.141 66.2344 100.553 66.5 101.072C66.7695 101.588 66.9043 102.16 66.9043 102.789ZM63.6406 100.346C63.0547 100.346 62.5586 100.516 62.1523 100.855C61.7461 101.191 61.4902 101.643 61.3848 102.209H65.8848C65.7754 101.635 65.5176 101.182 65.1113 100.85C64.709 100.514 64.2188 100.346 63.6406 100.346ZM73.6602 97.2051H74.6797V106H73.8887L73.7539 105.08C73.4492 105.416 73.082 105.678 72.6523 105.865C72.2227 106.049 71.7578 106.141 71.2578 106.141C70.2891 106.141 69.4902 105.82 68.8613 105.18C68.2324 104.535 67.918 103.729 67.918 102.76C67.918 102.119 68.0586 101.543 68.3398 101.031C68.625 100.516 69.0215 100.111 69.5293 99.8184C70.041 99.5254 70.6172 99.3789 71.2578 99.3789C71.7344 99.3789 72.1777 99.4629 72.5879 99.6309C72.998 99.7988 73.3555 100.035 73.6602 100.34V97.2051ZM69.6348 104.477C70.0879 104.93 70.6562 105.156 71.3398 105.156C72.0234 105.156 72.5918 104.928 73.0449 104.471C73.498 104.01 73.7246 103.439 73.7246 102.76C73.7246 102.076 73.498 101.506 73.0449 101.049C72.5918 100.592 72.0234 100.363 71.3398 100.363C70.6562 100.363 70.0879 100.592 69.6348 101.049C69.1855 101.502 68.9609 102.072 68.9609 102.76C68.9609 103.447 69.1855 104.02 69.6348 104.477ZM82.7363 106.141C82.1074 106.141 81.5352 105.994 81.0195 105.701C80.5039 105.408 80.0996 105.004 79.8066 104.488C79.5137 103.969 79.3672 103.393 79.3672 102.76C79.3672 102.123 79.5137 101.547 79.8066 101.031C80.0996 100.516 80.5039 100.111 81.0195 99.8184C81.5352 99.5254 82.1074 99.3789 82.7363 99.3789C83.5059 99.3789 84.1719 99.5898 84.7344 100.012C85.3008 100.434 85.6836 100.998 85.8828 101.705H84.875C84.6836 101.287 84.3984 100.959 84.0195 100.721C83.6406 100.482 83.2129 100.363 82.7363 100.363C82.0723 100.363 81.5176 100.594 81.0723 101.055C80.6309 101.512 80.4102 102.08 80.4102 102.76C80.4102 103.436 80.6328 104.004 81.0781 104.465C81.5234 104.926 82.0762 105.156 82.7363 105.156C83.2129 105.156 83.6367 105.035 84.0078 104.793C84.3789 104.551 84.6641 104.213 84.8633 103.779H85.8945C85.6953 104.494 85.3086 105.066 84.7344 105.496C84.1641 105.926 83.498 106.141 82.7363 106.141ZM87.2773 98.4004V97.2285H88.3848V98.4004H87.2773ZM87.3184 106V99.5195H88.3438V106H87.3184ZM93.3535 99.4844H93.9277V100.451H93.2656C92.6797 100.451 92.2246 100.631 91.9004 100.99C91.5762 101.35 91.4141 101.846 91.4141 102.479V106H90.3887V99.5195H91.1152L91.2793 100.504C91.748 99.8242 92.4395 99.4844 93.3535 99.4844ZM97.666 106.141C97.0371 106.141 96.4648 105.994 95.9492 105.701C95.4336 105.408 95.0293 105.004 94.7363 104.488C94.4434 103.969 94.2969 103.393 94.2969 102.76C94.2969 102.123 94.4434 101.547 94.7363 101.031C95.0293 100.516 95.4336 100.111 95.9492 99.8184C96.4648 99.5254 97.0371 99.3789 97.666 99.3789C98.4355 99.3789 99.1016 99.5898 99.6641 100.012C100.23 100.434 100.613 100.998 100.812 101.705H99.8047C99.6133 101.287 99.3281 100.959 98.9492 100.721C98.5703 100.482 98.1426 100.363 97.666 100.363C97.002 100.363 96.4473 100.594 96.002 101.055C95.5605 101.512 95.3398 102.08 95.3398 102.76C95.3398 103.436 95.5625 104.004 96.0078 104.465C96.4531 104.926 97.0059 105.156 97.666 105.156C98.1426 105.156 98.5664 105.035 98.9375 104.793C99.3086 104.551 99.5938 104.213 99.793 103.779H100.824C100.625 104.494 100.238 105.066 99.6641 105.496C99.0938 105.926 98.4277 106.141 97.666 106.141ZM105.014 106.141C104.143 106.141 103.445 105.879 102.922 105.355C102.402 104.832 102.143 104.135 102.143 103.264V99.5195H103.162V103.1C103.162 103.736 103.328 104.238 103.66 104.605C103.992 104.973 104.443 105.156 105.014 105.156C105.588 105.156 106.039 104.973 106.367 104.605C106.699 104.234 106.865 103.732 106.865 103.1V99.5195H107.885V103.264C107.885 104.135 107.625 104.832 107.105 105.355C106.586 105.879 105.889 106.141 105.014 106.141ZM109.83 106V97.2051H110.855V106H109.83ZM118.426 99.5195H119.24V106H118.396L118.285 105.016C117.98 105.371 117.609 105.648 117.172 105.848C116.738 106.043 116.262 106.141 115.742 106.141C115.113 106.141 114.543 105.994 114.031 105.701C113.52 105.408 113.117 105.004 112.824 104.488C112.535 103.969 112.391 103.393 112.391 102.76C112.391 101.791 112.709 100.986 113.346 100.346C113.986 99.7012 114.785 99.3789 115.742 99.3789C116.262 99.3789 116.742 99.4785 117.184 99.6777C117.625 99.877 117.998 100.156 118.303 100.516L118.426 99.5195ZM114.113 104.471C114.566 104.928 115.135 105.156 115.818 105.156C116.502 105.156 117.068 104.93 117.518 104.477C117.971 104.02 118.197 103.447 118.197 102.76C118.197 102.072 117.971 101.502 117.518 101.049C117.068 100.592 116.502 100.363 115.818 100.363C115.135 100.363 114.566 100.592 114.113 101.049C113.66 101.506 113.434 102.076 113.434 102.76C113.434 103.443 113.66 104.014 114.113 104.471ZM123.98 105.057H124.684V106H123.846C123.146 106 122.596 105.799 122.193 105.396C121.795 104.99 121.596 104.436 121.596 103.732V100.439H120.453V100.258L122.457 98.1484H122.615V99.5195H124.648V100.439H122.615V103.703C122.615 104.141 122.732 104.477 122.967 104.711C123.201 104.941 123.539 105.057 123.98 105.057ZM126.008 98.4004V97.2285H127.115V98.4004H126.008ZM126.049 106V99.5195H127.074V106H126.049ZM132.043 106.141C131.062 106.141 130.244 105.82 129.588 105.18C128.936 104.535 128.609 103.729 128.609 102.76C128.609 102.119 128.758 101.541 129.055 101.025C129.352 100.51 129.762 100.107 130.285 99.8184C130.812 99.5254 131.398 99.3789 132.043 99.3789C132.688 99.3789 133.271 99.5254 133.795 99.8184C134.322 100.107 134.734 100.512 135.031 101.031C135.332 101.547 135.482 102.123 135.482 102.76C135.482 103.396 135.332 103.975 135.031 104.494C134.734 105.01 134.322 105.414 133.795 105.707C133.271 105.996 132.688 106.141 132.043 106.141ZM130.326 104.482C130.775 104.932 131.348 105.156 132.043 105.156C132.738 105.156 133.311 104.932 133.76 104.482C134.213 104.029 134.439 103.455 134.439 102.76C134.439 102.064 134.213 101.492 133.76 101.043C133.311 100.59 132.738 100.363 132.043 100.363C131.348 100.363 130.775 100.59 130.326 101.043C129.877 101.492 129.652 102.064 129.652 102.76C129.652 103.455 129.877 104.029 130.326 104.482ZM140.275 99.3789C141.033 99.3789 141.639 99.6348 142.092 100.146C142.549 100.658 142.777 101.316 142.777 102.121V106H141.758V102.361C141.758 101.705 141.607 101.199 141.307 100.844C141.006 100.488 140.574 100.311 140.012 100.311C139.457 100.311 138.992 100.518 138.617 100.932C138.242 101.346 138.055 101.857 138.055 102.467V106H137.029V99.5195H137.756L137.955 100.533C138.201 100.17 138.525 99.8867 138.928 99.6836C139.33 99.4805 139.779 99.3789 140.275 99.3789Z" fill="#262626"/>
<path d="M15.2627 57.1729H11.5303V59.3262H14.9004V61.2471H11.5303V65H9.41113V55.1973H15.2627V57.1729ZM20.1094 65.2119C19.043 65.2119 18.1816 64.8997 17.5254 64.2754C16.8737 63.651 16.5479 62.8285 16.5479 61.8076V57.4395H18.5918V61.5752C18.5918 62.113 18.7262 62.5345 18.9951 62.8398C19.264 63.1406 19.6354 63.291 20.1094 63.291C20.5833 63.291 20.9525 63.1383 21.2168 62.833C21.4811 62.5277 21.6133 62.1084 21.6133 61.5752V57.4395H23.6572V61.8076C23.6572 62.8285 23.3337 63.651 22.6865 64.2754C22.0394 64.8997 21.1803 65.2119 20.1094 65.2119ZM25.5166 65V54.7119H27.5605V65H25.5166ZM29.5225 65V54.7119H31.5664V65H29.5225ZM33.4053 62.0537V60.085H37.9717V62.0537H33.4053ZM45.8467 59.832C46.2796 60.0553 46.6146 60.3721 46.8516 60.7822C47.0885 61.1878 47.207 61.6504 47.207 62.1699C47.207 62.9538 46.904 63.6214 46.2979 64.1729C45.6963 64.7243 44.9694 65 44.1172 65H39.9541V55.1973H44.0078C44.8509 55.1973 45.5527 55.4388 46.1133 55.9219C46.6738 56.4004 46.9541 56.9997 46.9541 57.7197C46.9541 58.139 46.8561 58.5355 46.6602 58.9092C46.4642 59.2829 46.193 59.5905 45.8467 59.832ZM44.5957 58.8066C44.7962 58.6107 44.8965 58.3577 44.8965 58.0479C44.8965 57.738 44.7962 57.4873 44.5957 57.2959C44.3952 57.1045 44.1309 57.0088 43.8027 57.0088H42.0391V59.0938H43.8027C44.1354 59.0938 44.3997 58.998 44.5957 58.8066ZM43.9189 63.0518C44.2653 63.0518 44.5433 62.9492 44.7529 62.7441C44.9671 62.5391 45.0742 62.2747 45.0742 61.9512C45.0742 61.6322 44.9671 61.3701 44.7529 61.165C44.5433 60.96 44.2653 60.8574 43.9189 60.8574H42.0391V63.0518H43.9189ZM52.3887 65.2119C51.6185 65.2119 50.9212 65.0387 50.2969 64.6924C49.6725 64.346 49.1826 63.8675 48.8271 63.2568C48.4762 62.6462 48.3008 61.9671 48.3008 61.2197C48.3008 60.4632 48.4762 59.7819 48.8271 59.1758C49.1826 58.5651 49.6725 58.0889 50.2969 57.7471C50.9212 57.4007 51.6185 57.2275 52.3887 57.2275C53.1543 57.2275 53.8493 57.4007 54.4736 57.7471C55.098 58.0889 55.5879 58.5651 55.9434 59.1758C56.2988 59.7865 56.4766 60.4678 56.4766 61.2197C56.4766 61.9671 56.2988 62.6462 55.9434 63.2568C55.5879 63.8675 55.098 64.346 54.4736 64.6924C53.8493 65.0387 53.1543 65.2119 52.3887 65.2119ZM50.9395 62.7168C51.3177 63.0996 51.8008 63.291 52.3887 63.291C52.9766 63.291 53.4596 63.0996 53.8379 62.7168C54.2161 62.3294 54.4053 61.8304 54.4053 61.2197C54.4053 60.609 54.2161 60.1123 53.8379 59.7295C53.4596 59.3421 52.9766 59.1484 52.3887 59.1484C51.8008 59.1484 51.3177 59.3421 50.9395 59.7295C50.5612 60.1123 50.3721 60.609 50.3721 61.2197C50.3721 61.8304 50.5612 62.3294 50.9395 62.7168ZM63.4971 54.7119H65.541V65H64.0303L63.791 64.3711C63.1211 64.9408 62.3304 65.2256 61.4189 65.2256C60.2751 65.2256 59.3271 64.8451 58.5752 64.084C57.8232 63.3229 57.4473 62.3682 57.4473 61.2197C57.4473 60.6546 57.5475 60.126 57.748 59.6338C57.9486 59.137 58.222 58.7132 58.5684 58.3623C58.9193 58.0114 59.3408 57.7357 59.833 57.5352C60.3252 57.3301 60.8538 57.2275 61.4189 57.2275C62.1891 57.2275 62.8818 57.4349 63.4971 57.8496V54.7119ZM60.1133 62.7031C60.5052 63.0951 60.9974 63.291 61.5898 63.291C62.1823 63.291 62.6722 63.0951 63.0596 62.7031C63.4515 62.3066 63.6475 61.8122 63.6475 61.2197C63.6475 60.6273 63.4515 60.1351 63.0596 59.7432C62.6722 59.3467 62.1823 59.1484 61.5898 59.1484C60.9974 59.1484 60.5052 59.3444 60.1133 59.7363C59.7259 60.1283 59.5322 60.6227 59.5322 61.2197C59.5322 61.8167 59.7259 62.3112 60.1133 62.7031ZM72.7256 57.4395H74.8994L71.6045 64.8975C71.29 65.6084 70.9824 66.1598 70.6816 66.5518C70.3854 66.9482 70.0391 67.2422 69.6426 67.4336C69.2461 67.6296 68.7653 67.7275 68.2002 67.7275H67.3594V65.8887H68.0703C68.5534 65.8887 68.8975 65.7998 69.1025 65.6221C69.3122 65.4443 69.5355 65.0638 69.7725 64.4805L69.7998 64.4189L66.6006 57.4395H68.8223L70.8389 62.0879L72.7256 57.4395ZM91.0664 65H88.9062L87.9424 58.6016L85.0166 64.9795H84.4971L81.5713 58.6084L80.6074 65H78.4473L79.9785 55.1973H82.1045L84.7568 61.2061L87.416 55.1973H89.5488L91.0664 65ZM98.6338 57.4258H100.165V64.9863H98.5586L98.3809 64.3096C97.6927 64.9111 96.877 65.2119 95.9336 65.2119C95.1862 65.2119 94.5094 65.0387 93.9033 64.6924C93.2972 64.346 92.8232 63.8675 92.4814 63.2568C92.1396 62.6416 91.9688 61.958 91.9688 61.2061C91.9688 60.4587 92.1396 59.7819 92.4814 59.1758C92.8232 58.5651 93.2972 58.0889 93.9033 57.7471C94.5094 57.4007 95.1862 57.2275 95.9336 57.2275C96.8952 57.2275 97.7223 57.5352 98.415 58.1504L98.6338 57.4258ZM94.6211 62.6895C95.013 63.0814 95.5052 63.2773 96.0977 63.2773C96.6901 63.2773 97.18 63.0814 97.5674 62.6895C97.9593 62.2975 98.1553 61.8031 98.1553 61.2061C98.1553 60.609 97.9593 60.1146 97.5674 59.7227C97.18 59.3307 96.6901 59.1348 96.0977 59.1348C95.5052 59.1348 95.013 59.333 94.6211 59.7295C94.2337 60.1214 94.04 60.6136 94.04 61.2061C94.04 61.7985 94.2337 62.293 94.6211 62.6895ZM104.813 65.2119C103.866 65.2119 103.1 64.9658 102.517 64.4736C101.938 63.9769 101.646 63.3229 101.642 62.5117H103.631C103.635 62.8353 103.752 63.0837 103.979 63.2568C104.212 63.43 104.517 63.5166 104.896 63.5166C105.196 63.5166 105.449 63.4505 105.654 63.3184C105.864 63.1862 105.969 62.9993 105.969 62.7578C105.969 62.6348 105.932 62.5277 105.859 62.4365C105.791 62.3454 105.682 62.2702 105.531 62.2109C105.381 62.1471 105.233 62.0993 105.087 62.0674C104.941 62.0309 104.75 61.9922 104.513 61.9512C104.299 61.9147 104.118 61.8828 103.973 61.8555C103.827 61.8236 103.649 61.778 103.439 61.7188C103.234 61.6595 103.061 61.5957 102.92 61.5273C102.779 61.4544 102.628 61.3587 102.469 61.2402C102.314 61.1217 102.188 60.9919 102.093 60.8506C102.002 60.7048 101.924 60.5293 101.86 60.3242C101.801 60.1191 101.771 59.8936 101.771 59.6475C101.771 58.932 102.052 58.3509 102.612 57.9043C103.173 57.4531 103.907 57.2275 104.813 57.2275C105.725 57.2275 106.456 57.46 107.008 57.9248C107.559 58.3851 107.837 58.9935 107.842 59.75H105.9C105.896 59.4538 105.793 59.2305 105.593 59.0801C105.397 58.9297 105.119 58.8545 104.759 58.8545C104.444 58.8545 104.196 58.9206 104.014 59.0527C103.836 59.1849 103.747 59.3604 103.747 59.5791C103.747 59.6611 103.761 59.7363 103.788 59.8047C103.82 59.8685 103.872 59.9255 103.945 59.9756C104.023 60.0212 104.093 60.0622 104.157 60.0986C104.226 60.1305 104.326 60.1647 104.458 60.2012C104.595 60.2331 104.704 60.2581 104.786 60.2764C104.873 60.29 105.003 60.3128 105.176 60.3447C105.91 60.4769 106.438 60.6136 106.762 60.7549C107.577 61.1195 107.985 61.7575 107.985 62.6689C107.985 63.4391 107.696 64.0566 107.117 64.5215C106.538 64.9818 105.771 65.2119 104.813 65.2119ZM112.169 65.2119C111.221 65.2119 110.455 64.9658 109.872 64.4736C109.293 63.9769 109.002 63.3229 108.997 62.5117H110.986C110.991 62.8353 111.107 63.0837 111.335 63.2568C111.567 63.43 111.873 63.5166 112.251 63.5166C112.552 63.5166 112.805 63.4505 113.01 63.3184C113.219 63.1862 113.324 62.9993 113.324 62.7578C113.324 62.6348 113.288 62.5277 113.215 62.4365C113.146 62.3454 113.037 62.2702 112.887 62.2109C112.736 62.1471 112.588 62.0993 112.442 62.0674C112.297 62.0309 112.105 61.9922 111.868 61.9512C111.654 61.9147 111.474 61.8828 111.328 61.8555C111.182 61.8236 111.005 61.778 110.795 61.7188C110.59 61.6595 110.417 61.5957 110.275 61.5273C110.134 61.4544 109.984 61.3587 109.824 61.2402C109.669 61.1217 109.544 60.9919 109.448 60.8506C109.357 60.7048 109.28 60.5293 109.216 60.3242C109.157 60.1191 109.127 59.8936 109.127 59.6475C109.127 58.932 109.407 58.3509 109.968 57.9043C110.528 57.4531 111.262 57.2275 112.169 57.2275C113.08 57.2275 113.812 57.46 114.363 57.9248C114.915 58.3851 115.193 58.9935 115.197 59.75H113.256C113.251 59.4538 113.149 59.2305 112.948 59.0801C112.752 58.9297 112.474 58.8545 112.114 58.8545C111.8 58.8545 111.551 58.9206 111.369 59.0527C111.191 59.1849 111.103 59.3604 111.103 59.5791C111.103 59.6611 111.116 59.7363 111.144 59.8047C111.175 59.8685 111.228 59.9255 111.301 59.9756C111.378 60.0212 111.449 60.0622 111.513 60.0986C111.581 60.1305 111.681 60.1647 111.813 60.2012C111.95 60.2331 112.06 60.2581 112.142 60.2764C112.228 60.29 112.358 60.3128 112.531 60.3447C113.265 60.4769 113.794 60.6136 114.117 60.7549C114.933 61.1195 115.341 61.7575 115.341 62.6689C115.341 63.4391 115.051 64.0566 114.473 64.5215C113.894 64.9818 113.126 65.2119 112.169 65.2119ZM123.011 57.4258H124.542V64.9863H122.936L122.758 64.3096C122.07 64.9111 121.254 65.2119 120.311 65.2119C119.563 65.2119 118.886 65.0387 118.28 64.6924C117.674 64.346 117.2 63.8675 116.858 63.2568C116.517 62.6416 116.346 61.958 116.346 61.2061C116.346 60.4587 116.517 59.7819 116.858 59.1758C117.2 58.5651 117.674 58.0889 118.28 57.7471C118.886 57.4007 119.563 57.2275 120.311 57.2275C121.272 57.2275 122.099 57.5352 122.792 58.1504L123.011 57.4258ZM118.998 62.6895C119.39 63.0814 119.882 63.2773 120.475 63.2773C121.067 63.2773 121.557 63.0814 121.944 62.6895C122.336 62.2975 122.532 61.8031 122.532 61.2061C122.532 60.609 122.336 60.1146 121.944 59.7227C121.557 59.3307 121.067 59.1348 120.475 59.1348C119.882 59.1348 119.39 59.333 118.998 59.7295C118.611 60.1214 118.417 60.6136 118.417 61.2061C118.417 61.7985 118.611 62.293 118.998 62.6895ZM132.608 57.4395H133.935V64.125C133.935 65.3053 133.59 66.235 132.902 66.9141C132.214 67.5977 131.271 67.9395 130.072 67.9395C129.047 67.9395 128.192 67.6934 127.509 67.2012C126.825 66.709 126.397 66.0299 126.224 65.1641H128.254C128.363 65.4876 128.587 65.7383 128.924 65.916C129.266 66.0983 129.637 66.1895 130.038 66.1895C130.571 66.1895 131.02 66.0277 131.385 65.7041C131.749 65.3851 131.932 64.9567 131.932 64.4189V64.1318C131.289 64.583 130.569 64.8086 129.771 64.8086C129.079 64.8086 128.443 64.6423 127.864 64.3096C127.29 63.9769 126.837 63.5212 126.504 62.9424C126.176 62.359 126.012 61.7188 126.012 61.0215C126.012 60.3288 126.176 59.693 126.504 59.1143C126.837 58.5309 127.29 58.0706 127.864 57.7334C128.443 57.3962 129.079 57.2275 129.771 57.2275C130.751 57.2275 131.588 57.5488 132.28 58.1914L132.608 57.4395ZM130.011 62.9834C130.567 62.9834 131.027 62.7988 131.392 62.4297C131.756 62.056 131.938 61.5866 131.938 61.0215C131.938 60.4609 131.756 59.9984 131.392 59.6338C131.032 59.2646 130.571 59.0801 130.011 59.0801C129.455 59.0801 128.994 59.2646 128.63 59.6338C128.265 59.9984 128.083 60.4609 128.083 61.0215C128.083 61.5866 128.263 62.056 128.623 62.4297C128.988 62.7988 129.45 62.9834 130.011 62.9834ZM143.238 61.1924C143.238 61.3975 143.225 61.598 143.197 61.7939H137.476C137.562 62.3089 137.767 62.7054 138.091 62.9834C138.419 63.2568 138.831 63.3936 139.328 63.3936C139.679 63.3936 139.993 63.3161 140.271 63.1611C140.554 63.0062 140.773 62.792 140.928 62.5186H143.074C142.801 63.3434 142.327 63.9997 141.652 64.4873C140.978 64.9704 140.203 65.2119 139.328 65.2119C138.594 65.2119 137.927 65.0387 137.325 64.6924C136.728 64.3415 136.259 63.8607 135.917 63.25C135.575 62.6393 135.404 61.9626 135.404 61.2197C135.404 60.4723 135.573 59.7933 135.91 59.1826C136.252 58.5719 136.721 58.0934 137.318 57.7471C137.92 57.4007 138.59 57.2275 139.328 57.2275C140.085 57.2275 140.764 57.4076 141.365 57.7676C141.967 58.123 142.429 58.6016 142.753 59.2031C143.076 59.8047 143.238 60.4678 143.238 61.1924ZM139.328 58.9707C138.877 58.9707 138.494 59.096 138.18 59.3467C137.865 59.5973 137.649 59.9482 137.53 60.3994H141.194C141.053 59.9391 140.821 59.5859 140.497 59.3398C140.178 59.0938 139.788 58.9707 139.328 58.9707Z" fill="#11346F"/>
<path d="M61.761 17.1909C61.3673 18.1018 60.9591 19.0432 60.6237 19.9904C59.4348 23.3442 58.8331 26.4766 58.7833 29.5676C58.7707 29.8504 58.8168 30.1327 58.9186 30.3967C59.0204 30.6608 59.1757 30.901 59.3748 31.1022C60.4665 32.2302 61.7594 32.8454 63.217 32.9316C65.8694 33.0871 68.483 33.4622 70.6902 33.8087C72.0912 34.0284 73.2302 34.1687 74.2755 34.2489C75.9089 34.3748 77.4865 33.96 78.8148 33.5366C79.3379 33.3676 79.844 33.1885 80.3806 32.9958C80.6206 32.9113 80.8623 32.8268 81.1073 32.7364L81.1842 32.7094L81.5315 33.5949C81.7704 34.2044 82.0092 34.8114 82.2481 35.4159C82.4424 35.9111 82.5624 35.9913 83.0981 35.9913H87.8014C89.5869 35.9913 91.3944 35.9913 93.1807 35.9989H93.1883C93.5998 35.9989 93.844 35.8722 93.9986 35.5764V17.6548C93.8085 17.3684 93.6006 17.2163 93.397 17.2137H93.3911C93.1866 17.2137 92.9754 17.3642 92.7793 17.6489L92.7666 17.6675C92.6999 17.7655 92.6297 17.8669 92.5528 17.9616C91.7078 19.006 90.5578 19.7868 88.9363 20.418C88.7879 20.4844 88.6255 20.5133 88.4633 20.5019C88.3012 20.4906 88.1444 20.4394 88.0068 20.3529C86.5381 19.5231 85.0002 19.126 83.4361 19.1699C83.0719 19.1809 82.7145 19.2172 82.3376 19.2544C82.1686 19.2722 81.9912 19.2899 81.8146 19.3051L81.7571 19.3102L81.5721 18.9333C81.225 18.2185 80.7043 17.6021 80.0575 17.1405C79.4107 16.679 78.6584 16.387 77.8696 16.2912C77.0808 16.1955 76.2805 16.299 75.5421 16.5925C74.8036 16.8859 74.1506 17.3598 73.6426 17.9709C72.8255 18.9451 72.4596 20.1231 72.55 21.4708C72.5568 21.5663 72.5331 21.7818 72.4173 21.8376C71.9889 22.0455 71.5622 22.2364 71.1101 22.4384L70.7121 22.6167L70.6006 22.6665L70.593 22.5448C70.593 22.4865 70.5862 22.4299 70.5828 22.3758C70.5761 22.2584 70.5693 22.1443 70.56 22.0311C70.2888 18.8201 70.3623 16.0155 70.784 13.4425C71.0797 11.6418 71.5588 10.2433 72.2914 9.04005C72.3726 8.89489 72.485 8.76965 72.6207 8.67346C72.7564 8.57727 72.9118 8.51256 73.0756 8.48404C74.0617 8.29307 74.9245 8.28547 75.7145 8.46123C76.0948 8.54573 76.475 8.65305 76.8443 8.75613C77.2465 8.86936 77.6631 8.98682 78.0771 9.07301C78.7447 9.21328 79.3827 9.09414 79.8728 8.73501C80.1065 8.55998 80.3003 8.33723 80.4413 8.08154C80.5824 7.82586 80.6674 7.5431 80.6907 7.25204C80.7203 6.96643 80.6645 6.66814 80.6062 6.35211C80.5784 6.2017 80.5488 6.04622 80.5285 5.88736L80.5209 5.83074L80.5716 5.80286C80.9502 5.59161 81.3811 5.18432 81.2789 4.44156C81.2425 4.15477 81.161 3.87555 81.0372 3.61431C80.3612 2.2395 79.3523 1.28718 78.0425 0.782715H76.546L76.4894 0.801302C76.4335 0.823435 76.375 0.838483 76.3153 0.84609C73.7474 1.09452 71.4515 2.02148 69.4928 3.60079C69.3238 3.73937 69.1548 3.89231 68.9942 4.04019C68.7395 4.28768 68.4648 4.51378 68.1729 4.71619C67.3017 5.28487 66.7947 5.95242 66.5302 6.88108C66.2936 7.71171 65.9615 8.52799 65.6404 9.31722C65.5095 9.63916 65.3743 9.97209 65.2475 10.3008C65.103 10.6734 65.2162 11.0182 65.5289 11.1568C65.6048 11.1945 65.688 11.2154 65.7727 11.2181C65.8574 11.2209 65.9417 11.2054 66.02 11.1727C66.0982 11.14 66.1684 11.0908 66.226 11.0286C66.2836 10.9664 66.3271 10.8925 66.3536 10.812C66.8074 9.65606 67.322 8.34546 67.7639 7.04754C67.9329 6.54054 68.1797 6.20255 68.5548 5.94313C68.8753 5.7328 69.1796 5.49863 69.4649 5.24262C71.667 3.15463 74.376 2.06542 77.5169 2.00543C77.668 1.99787 77.8188 2.02685 77.9563 2.08993C78.8707 2.56191 79.5909 3.33924 79.9919 4.28693C80.1153 4.56831 80.0553 4.79393 79.8128 4.96293C79.7714 4.99081 79.7283 5.02293 79.6894 5.05588C79.512 5.19615 79.2914 5.37107 78.9652 5.20376C78.5166 4.97307 78.318 4.57001 78.1828 4.20497C78.0476 3.83993 77.7484 3.68698 77.4155 3.80444C77.0826 3.92189 76.9254 4.23285 77.0344 4.58775C77.353 5.62963 78.0138 6.26676 78.999 6.48224C79.3024 6.54815 79.4511 6.72306 79.4672 7.03318C79.477 7.15657 79.458 7.28057 79.4115 7.39528C79.365 7.51 79.2923 7.61228 79.1993 7.69397C79.0805 7.78766 78.9418 7.85302 78.794 7.88508C78.6461 7.91715 78.4928 7.91508 78.3459 7.87902C78.0133 7.80667 77.6848 7.71727 77.3614 7.61116C77.1924 7.55962 77.0234 7.50638 76.8494 7.45906C75.1273 6.98079 73.613 6.99346 72.2221 7.49708C71.9616 7.58907 71.734 7.75606 71.5681 7.97704C71.198 8.53559 70.8169 9.14061 70.5397 9.78534C69.6863 11.7694 69.4243 13.8515 69.2799 15.6268C69.0694 18.2125 69.1582 21.0238 69.5494 24.2188C69.6677 25.1779 69.3635 25.9164 68.6478 26.4158C68.2988 26.6575 68.216 27.0005 68.4315 27.3106C68.6469 27.6208 69.001 27.6487 69.35 27.4129C70.364 26.72 70.8355 25.7466 70.7992 24.4351C70.7992 24.3777 70.7992 24.0861 70.9386 24.0025C71.4118 23.7219 71.901 23.4532 72.3751 23.193L72.8187 22.9496L72.8939 22.9074L72.9345 22.9842C74.033 25.09 76.0813 26.1479 78.16 25.6798C80.7009 25.1069 82.0182 23.4067 82.0765 20.6258V20.5583L82.1425 20.5447C83.0011 20.3642 83.8855 20.343 84.7518 20.4822C85.8393 20.6512 86.8711 21.056 87.907 21.7142C88.1749 21.8832 88.4014 21.9162 88.6413 21.8156C88.8577 21.726 89.0791 21.639 89.2928 21.5545C89.802 21.3641 90.3012 21.1481 90.7885 20.9072C91.2304 20.6671 91.6583 20.4022 92.0704 20.1138C92.252 19.9913 92.4405 19.8603 92.6281 19.7445L92.7582 19.66V34.7543L92.6872 34.7652L92.6433 34.7728C92.6219 34.7774 92.6001 34.7799 92.5782 34.7804H90.5899C88.2983 34.7804 85.9289 34.7804 83.5975 34.7881C83.3305 34.7881 83.2502 34.6376 83.1852 34.4703C82.8269 33.5408 82.4568 32.6046 82.1416 31.8086C81.9253 31.2602 81.6684 31.1562 81.0862 31.3793L80.7237 31.5196C79.8719 31.8475 78.9906 32.1871 78.1042 32.466C76.9753 32.8217 75.6368 33.1656 74.2721 33.0254C72.7241 32.8665 71.1727 32.6367 69.5874 32.3959C67.9245 32.1424 65.7292 31.8399 63.495 31.7342C62.2977 31.6878 61.1645 31.1807 60.3321 30.3189C60.1315 30.1038 60.0193 29.8211 60.0178 29.5271C60.0482 28.6821 60.0972 27.6909 60.2307 26.6989C60.6254 23.7752 61.4813 20.7915 62.775 17.8314C62.8731 17.6067 62.9787 17.3811 63.0809 17.163C63.1992 16.9095 63.3209 16.6493 63.4316 16.389C63.4758 16.294 63.4964 16.1897 63.4919 16.085C63.4873 15.9803 63.4577 15.8782 63.4054 15.7874C63.357 15.7077 63.2901 15.6409 63.2103 15.5925C63.1306 15.5441 63.0405 15.5156 62.9474 15.5094C62.6398 15.484 62.4244 15.6294 62.2892 15.9538C62.1176 16.3671 61.936 16.7862 61.761 17.1909ZM79.7807 23.5141C79.4556 23.8427 79.0688 24.1037 78.6424 24.282C78.216 24.4604 77.7586 24.5526 77.2964 24.5534H77.2862C75.3664 24.5483 73.7491 22.9243 73.7541 21.0044C73.7592 19.0846 75.3791 17.4732 77.2913 17.4732H77.3006C79.2196 17.4782 80.8378 19.1015 80.8327 21.0222C80.8306 21.4864 80.7366 21.9457 80.556 22.3734C80.3755 22.8011 80.1119 23.1888 79.7807 23.5141Z" fill="#262626"/>
<path d="M63.6722 13.3655C63.6736 13.1813 63.7478 13.0051 63.8788 12.8756C64.0098 12.746 64.1868 12.6736 64.371 12.6743C64.5498 12.6837 64.7187 12.7591 64.8452 12.8858C64.9716 13.0125 65.0465 13.1817 65.0555 13.3605C65.0566 13.4521 65.0395 13.5431 65.0053 13.6281C64.971 13.7132 64.9202 13.7906 64.8559 13.8559C64.7915 13.9212 64.7149 13.9731 64.6304 14.0086C64.5458 14.0441 64.4551 14.0624 64.3634 14.0627C64.2716 14.0648 64.1803 14.0481 64.095 14.0138C64.0098 13.9794 63.9325 13.928 63.8678 13.8628C63.8032 13.7976 63.7524 13.7198 63.7188 13.6343C63.6852 13.5488 63.6693 13.4574 63.6722 13.3655Z" fill="#262626"/>
<path d="M81.0201 14.4547L81.0294 14.3297C81.0582 13.9553 81.0869 13.5692 81.1021 13.1864C81.0991 13.1279 81.108 13.0694 81.1283 13.0145C81.1487 12.9596 81.18 12.9094 81.2204 12.867C81.2632 12.8339 81.3125 12.8102 81.365 12.7972C81.4175 12.7843 81.4722 12.7824 81.5254 12.7918C81.796 12.8153 82.0676 12.8246 82.3392 12.8196C82.6772 12.8146 82.8884 12.6118 82.9028 12.2772C82.9324 11.5674 82.9526 10.8491 82.9645 10.1418C82.9704 9.75821 82.7405 9.48443 82.4059 9.47767C82.0713 9.47091 81.8448 9.72441 81.8347 10.1249C81.8263 10.441 81.8279 10.7612 81.8296 11.0713C81.8296 11.2082 81.8296 11.3451 81.8296 11.4812V11.6079H81.0108C80.879 11.6079 80.7573 11.6079 80.6264 11.6079C80.5526 11.6045 80.4789 11.6159 80.4096 11.6415C80.3404 11.6671 80.2769 11.7062 80.223 11.7567C80.1691 11.8072 80.1259 11.868 80.0959 11.9355C80.0659 12.0029 80.0498 12.0757 80.0484 12.1496C79.9909 12.818 79.9191 13.6503 79.8625 14.4497C79.8524 14.5491 79.8668 14.6495 79.9044 14.7421C79.9419 14.8347 80.0015 14.9168 80.0779 14.9812C80.1493 15.0376 80.2332 15.0757 80.3226 15.0924C80.412 15.109 80.504 15.1036 80.5909 15.0766C80.8587 15.0014 80.9939 14.8029 81.0201 14.4547Z" fill="#262626"/>
<path d="M86.4345 14.7464C86.7556 14.6797 87.0598 14.6163 87.364 14.5462C87.4573 14.5312 87.5468 14.498 87.6272 14.4484C87.7077 14.3988 87.7776 14.3338 87.833 14.2572C87.8695 14.1938 87.8928 14.1237 87.9013 14.0511C87.9099 13.9784 87.9036 13.9048 87.8828 13.8347C87.8186 13.5685 87.6065 13.4189 87.3124 13.4189C87.2443 13.4195 87.1763 13.4269 87.1096 13.4409C86.4852 13.5668 85.8371 13.6944 85.1822 13.8237C84.9507 13.8693 84.7867 13.9623 84.6963 14.1009C84.6059 14.2394 84.5882 14.422 84.6389 14.6467C84.6853 14.8538 84.731 15.0608 84.7783 15.2754L84.8696 15.6861L84.7504 15.7165L84.2519 15.8416C83.8817 15.9345 83.5328 16.0215 83.1821 16.117C82.8314 16.2125 82.6354 16.4855 82.6996 16.7829C82.7128 16.8599 82.7414 16.9335 82.7838 16.9991C82.8262 17.0648 82.8815 17.1212 82.9463 17.1648C83.0199 17.2069 83.1012 17.2338 83.1854 17.2439C83.2696 17.2541 83.3549 17.2473 83.4364 17.224C84.1817 17.0491 84.9431 16.8539 85.6993 16.6426C86.159 16.5142 86.148 16.1246 86.0999 15.9032C86.0559 15.6971 86.0103 15.4909 85.9647 15.2805L85.8743 14.8656L85.9985 14.8385L86.4345 14.7464Z" fill="#262626"/>
<path d="M80.7489 21.0213C80.7438 22.9056 79.1688 24.4748 77.2844 24.4689C75.4 24.463 73.8309 22.8904 73.8359 21.0044C73.8457 20.0902 74.2144 19.2165 74.8625 18.5717C75.5106 17.9269 76.3862 17.5627 77.3005 17.5576C79.1831 17.5661 80.754 19.1386 80.7489 21.0213ZM79.3665 21.0289C79.3693 20.6195 79.2508 20.2185 79.0259 19.8764C78.801 19.5343 78.4798 19.2665 78.1028 19.1068C77.7258 18.9471 77.31 18.9027 76.9078 18.9791C76.5056 19.0555 76.1351 19.2494 75.843 19.5362C75.5509 19.823 75.3503 20.19 75.2665 20.5907C75.1827 20.9914 75.2195 21.408 75.3723 21.7878C75.5251 22.1676 75.7869 22.4937 76.1248 22.7248C76.4627 22.9559 76.8615 23.0818 77.2709 23.0865C77.5442 23.0913 77.8158 23.0416 78.0697 22.9404C78.3236 22.8392 78.5549 22.6884 78.7499 22.4969C78.945 22.3054 79.1 22.0769 79.2058 21.8249C79.3117 21.5728 79.3663 21.3022 79.3665 21.0289Z" fill="#197AFF"/>
<path d="M79.3665 21.029C79.364 21.4384 79.2402 21.8379 79.0108 22.1771C78.7814 22.5163 78.4566 22.7799 78.0775 22.9346C77.6984 23.0893 77.282 23.1283 76.8808 23.0465C76.4795 22.9647 76.1116 22.7659 75.8233 22.4751C75.535 22.1843 75.3393 21.8146 75.2609 21.4127C75.1826 21.0108 75.2251 20.5947 75.383 20.217C75.541 19.8392 75.8074 19.5167 76.1485 19.2902C76.4896 19.0637 76.8902 18.9433 77.2996 18.9443C77.5727 18.9437 77.8433 18.9972 78.0955 19.102C78.3477 19.2067 78.5767 19.3605 78.769 19.5545C78.9613 19.7484 79.1131 19.9786 79.2157 20.2318C79.3183 20.4849 79.3695 20.7559 79.3665 21.029ZM77.292 21.705C77.4286 21.7055 77.5623 21.6653 77.676 21.5896C77.7897 21.514 77.8784 21.4062 77.9307 21.28C77.983 21.1538 77.9966 21.0149 77.9698 20.881C77.9429 20.747 77.8769 20.6241 77.78 20.5278C77.6831 20.4315 77.5598 20.3662 77.4257 20.3402C77.2916 20.3142 77.1527 20.3287 77.0269 20.3817C76.901 20.4348 76.7938 20.5242 76.7188 20.6383C76.6439 20.7525 76.6045 20.8864 76.6059 21.023C76.6146 21.2016 76.6899 21.3705 76.8169 21.4964C76.9438 21.6223 77.1134 21.6961 77.292 21.7033V21.705Z" fill="#262626"/>
</svg>
