<svg width="124" height="112" viewBox="0 0 124 112" fill="none" xmlns="http://www.w3.org/2000/svg">
<path d="M4.06428 82.62C4.06428 82.172 4.13628 81.812 4.28028 81.54C4.43228 81.268 4.63628 81.072 4.89228 80.952C5.14828 80.824 5.43228 80.76 5.74428 80.76C6.05628 80.76 6.33628 80.824 6.58428 80.952C6.84028 81.072 7.04428 81.268 7.19628 81.54C7.34828 81.812 7.42428 82.172 7.42428 82.62C7.42428 83.06 7.34828 83.416 7.19628 83.688C7.04428 83.96 6.84028 84.16 6.58428 84.288C6.33628 84.416 6.05628 84.48 5.74428 84.48C5.43228 84.48 5.14828 84.416 4.89228 84.288C4.63628 84.16 4.43228 83.96 4.28028 83.688C4.13628 83.416 4.06428 83.06 4.06428 82.62ZM16.9414 82.6406C17.3281 82.8086 17.6328 83.0762 17.8555 83.4434C18.082 83.8105 18.1953 84.2246 18.1953 84.6855C18.1953 85.3379 17.9512 85.8867 17.4629 86.332C16.9746 86.7773 16.3711 87 15.6523 87H12.2891V78.5977H15.6055C16.2891 78.5977 16.8535 78.8027 17.2988 79.2129C17.748 79.623 17.9727 80.1348 17.9727 80.748C17.9727 81.1309 17.8789 81.4961 17.6914 81.8438C17.5039 82.1914 17.2539 82.457 16.9414 82.6406ZM16.9004 80.8887C16.9004 80.5332 16.7734 80.2344 16.5195 79.9922C16.2656 79.75 15.9531 79.6289 15.582 79.6289H13.332V82.1484H15.5879C15.959 82.1484 16.2695 82.0273 16.5195 81.7852C16.7734 81.5391 16.9004 81.2402 16.9004 80.8887ZM15.6406 85.957C16.0625 85.957 16.4121 85.8262 16.6895 85.5645C16.9668 85.2988 17.1055 84.9668 17.1055 84.5684C17.1055 84.1738 16.9648 83.8438 16.6836 83.5781C16.4062 83.3125 16.0586 83.1797 15.6406 83.1797H13.332V85.957H15.6406ZM22.8242 87.1406C21.8438 87.1406 21.0254 86.8203 20.3691 86.1797C19.7168 85.5352 19.3906 84.7285 19.3906 83.7598C19.3906 83.1191 19.5391 82.541 19.8359 82.0254C20.1328 81.5098 20.543 81.1074 21.0664 80.8184C21.5938 80.5254 22.1797 80.3789 22.8242 80.3789C23.4688 80.3789 24.0527 80.5254 24.5762 80.8184C25.1035 81.1074 25.5156 81.5117 25.8125 82.0312C26.1133 82.5469 26.2637 83.123 26.2637 83.7598C26.2637 84.3965 26.1133 84.9746 25.8125 85.4941C25.5156 86.0098 25.1035 86.4141 24.5762 86.707C24.0527 86.9961 23.4688 87.1406 22.8242 87.1406ZM21.1074 85.4824C21.5566 85.9316 22.1289 86.1562 22.8242 86.1562C23.5195 86.1562 24.0918 85.9316 24.541 85.4824C24.9941 85.0293 25.2207 84.4551 25.2207 83.7598C25.2207 83.0645 24.9941 82.4922 24.541 82.043C24.0918 81.5898 23.5195 81.3633 22.8242 81.3633C22.1289 81.3633 21.5566 81.5898 21.1074 82.043C20.6582 82.4922 20.4336 83.0645 20.4336 83.7598C20.4336 84.4551 20.6582 85.0293 21.1074 85.4824ZM30.7344 87.1406C29.7539 87.1406 28.9355 86.8203 28.2793 86.1797C27.627 85.5352 27.3008 84.7285 27.3008 83.7598C27.3008 83.1191 27.4492 82.541 27.7461 82.0254C28.043 81.5098 28.4531 81.1074 28.9766 80.8184C29.5039 80.5254 30.0898 80.3789 30.7344 80.3789C31.3789 80.3789 31.9629 80.5254 32.4863 80.8184C33.0137 81.1074 33.4258 81.5117 33.7227 82.0312C34.0234 82.5469 34.1738 83.123 34.1738 83.7598C34.1738 84.3965 34.0234 84.9746 33.7227 85.4941C33.4258 86.0098 33.0137 86.4141 32.4863 86.707C31.9629 86.9961 31.3789 87.1406 30.7344 87.1406ZM29.0176 85.4824C29.4668 85.9316 30.0391 86.1562 30.7344 86.1562C31.4297 86.1562 32.002 85.9316 32.4512 85.4824C32.9043 85.0293 33.1309 84.4551 33.1309 83.7598C33.1309 83.0645 32.9043 82.4922 32.4512 82.043C32.002 81.5898 31.4297 81.3633 30.7344 81.3633C30.0391 81.3633 29.4668 81.5898 29.0176 82.043C28.5684 82.4922 28.3438 83.0645 28.3438 83.7598C28.3438 84.4551 28.5684 85.0293 29.0176 85.4824ZM37.7715 87.1406C37.0059 87.1406 36.3906 86.9492 35.9258 86.5664C35.4609 86.1836 35.2148 85.666 35.1875 85.0137H36.1836C36.2109 85.3887 36.3711 85.6797 36.6641 85.8867C36.9609 86.0938 37.3418 86.1973 37.8066 86.1973C38.2559 86.1973 38.6211 86.1074 38.9023 85.9277C39.1875 85.748 39.3301 85.502 39.3301 85.1895C39.3301 85.0684 39.3105 84.959 39.2715 84.8613C39.2324 84.7637 39.1699 84.6816 39.084 84.6152C38.998 84.5449 38.9121 84.4863 38.8262 84.4395C38.7402 84.3887 38.6211 84.3438 38.4688 84.3047C38.3203 84.2656 38.1914 84.2363 38.082 84.2168C37.9766 84.1934 37.832 84.166 37.6484 84.1348C37.5039 84.1113 37.3906 84.0918 37.3086 84.0762C37.2305 84.0605 37.1211 84.0371 36.9805 84.0059C36.8438 83.9746 36.7344 83.9453 36.6523 83.918C36.5703 83.8906 36.4688 83.8555 36.3477 83.8125C36.2266 83.7695 36.1289 83.7227 36.0547 83.6719C35.9844 83.6211 35.9043 83.5625 35.8145 83.4961C35.7246 83.4258 35.6523 83.3496 35.5977 83.2676C35.5469 83.1855 35.4961 83.0957 35.4453 82.998C35.3945 82.8965 35.3574 82.7832 35.334 82.6582C35.3145 82.5332 35.3047 82.3984 35.3047 82.2539C35.3047 81.6953 35.5293 81.2441 35.9785 80.9004C36.4277 80.5527 37.0176 80.3789 37.748 80.3789C38.4785 80.3789 39.0625 80.5605 39.5 80.9238C39.9414 81.2832 40.1719 81.7695 40.1914 82.3828H39.2246C39.2051 82.0312 39.0645 81.7617 38.8027 81.5742C38.541 81.3828 38.1816 81.2871 37.7246 81.2871C37.2871 81.2871 36.9395 81.373 36.6816 81.5449C36.4238 81.7129 36.2949 81.9375 36.2949 82.2188C36.2949 82.3281 36.3125 82.4277 36.3477 82.5176C36.3828 82.6035 36.4414 82.6777 36.5234 82.7402C36.6055 82.8027 36.6875 82.8555 36.7695 82.8984C36.8516 82.9414 36.9648 82.9805 37.1094 83.0156C37.2539 83.0508 37.377 83.0781 37.4785 83.0977C37.5801 83.1172 37.7227 83.1406 37.9062 83.168C38.5469 83.2734 39.0059 83.3848 39.2832 83.502C39.9238 83.7715 40.2715 84.2441 40.3262 84.9199C40.334 84.9941 40.3379 85.0684 40.3379 85.1426C40.3379 85.748 40.1035 86.2324 39.6348 86.5957C39.166 86.959 38.5449 87.1406 37.7715 87.1406ZM44.5039 86.0566H45.207V87H44.3691C43.6699 87 43.1191 86.7988 42.7168 86.3965C42.3184 85.9902 42.1191 85.4355 42.1191 84.7324V81.4395H40.9766V81.2578L42.9805 79.1484H43.1387V80.5195H45.1719V81.4395H43.1387V84.7031C43.1387 85.1406 43.2559 85.4766 43.4902 85.7109C43.7246 85.9414 44.0625 86.0566 44.5039 86.0566ZM52.5488 83.7891C52.5488 83.9062 52.543 84.0273 52.5312 84.1523H47.0059C47.084 84.7539 47.3301 85.2363 47.7441 85.5996C48.1621 85.9629 48.6758 86.1445 49.2852 86.1445C49.7305 86.1445 50.127 86.0469 50.4746 85.8516C50.8223 85.6523 51.0977 85.377 51.3008 85.0254H52.3789C52.1016 85.6934 51.6914 86.2129 51.1484 86.584C50.6094 86.9551 49.9883 87.1406 49.2852 87.1406C48.668 87.1406 48.1055 86.9941 47.5977 86.7012C47.0938 86.4082 46.6973 86.0039 46.4082 85.4883C46.123 84.9727 45.9805 84.3965 45.9805 83.7598C45.9805 83.127 46.123 82.5527 46.4082 82.0371C46.6973 81.5176 47.0938 81.1113 47.5977 80.8184C48.1055 80.5254 48.668 80.3789 49.2852 80.3789C49.9258 80.3789 50.4961 80.5312 50.9961 80.8359C51.4961 81.1406 51.8789 81.5527 52.1445 82.0723C52.4141 82.5879 52.5488 83.1602 52.5488 83.7891ZM49.2852 81.3457C48.6992 81.3457 48.2031 81.5156 47.7969 81.8555C47.3906 82.1914 47.1348 82.6426 47.0293 83.209H51.5293C51.4199 82.6348 51.1621 82.1816 50.7559 81.8496C50.3535 81.5137 49.8633 81.3457 49.2852 81.3457ZM59.3047 78.2051H60.3242V87H59.5332L59.3984 86.0801C59.0938 86.416 58.7266 86.6777 58.2969 86.8652C57.8672 87.0488 57.4023 87.1406 56.9023 87.1406C55.9336 87.1406 55.1348 86.8203 54.5059 86.1797C53.877 85.5352 53.5625 84.7285 53.5625 83.7598C53.5625 83.1191 53.7031 82.543 53.9844 82.0312C54.2695 81.5156 54.666 81.1113 55.1738 80.8184C55.6855 80.5254 56.2617 80.3789 56.9023 80.3789C57.3789 80.3789 57.8223 80.4629 58.2324 80.6309C58.6426 80.7988 59 81.0352 59.3047 81.3398V78.2051ZM55.2793 85.4766C55.7324 85.9297 56.3008 86.1562 56.9844 86.1562C57.668 86.1562 58.2363 85.9277 58.6895 85.4707C59.1426 85.0098 59.3691 84.4395 59.3691 83.7598C59.3691 83.0762 59.1426 82.5059 58.6895 82.0488C58.2363 81.5918 57.668 81.3633 56.9844 81.3633C56.3008 81.3633 55.7324 81.5918 55.2793 82.0488C54.8301 82.502 54.6055 83.0723 54.6055 83.7598C54.6055 84.4473 54.8301 85.0195 55.2793 85.4766ZM65.4805 79.4004V78.2285H66.5879V79.4004H65.4805ZM65.5215 87V80.5195H66.5469V87H65.5215ZM75.7578 80.3789C76.4375 80.3789 76.9863 80.6094 77.4043 81.0703C77.8223 81.5312 78.0312 82.127 78.0312 82.8574V87H77.0176L77.0117 83.1738C77.0117 82.5879 76.8828 82.1309 76.625 81.8027C76.3672 81.4746 76.0078 81.3105 75.5469 81.3105C75.0703 81.3105 74.6621 81.5137 74.3223 81.9199C73.9863 82.3223 73.8184 82.8184 73.8184 83.4082V87H72.8223V83.1738C72.8223 82.5879 72.6934 82.1309 72.4355 81.8027C72.1777 81.4746 71.8145 81.3105 71.3457 81.3105C70.8691 81.3105 70.4609 81.5137 70.1211 81.9199C69.7852 82.3223 69.6172 82.8184 69.6172 83.4082V87H68.5918V80.5195H69.3301L69.4941 81.4102C69.7441 81.0859 70.0508 80.834 70.4141 80.6543C70.7812 80.4707 71.168 80.3789 71.5742 80.3789C72.0273 80.3789 72.4258 80.4883 72.7695 80.707C73.1133 80.9258 73.377 81.2266 73.5605 81.6094C73.8027 81.2266 74.1172 80.9258 74.5039 80.707C74.8945 80.4883 75.3125 80.3789 75.7578 80.3789ZM87.1602 80.3789C87.8398 80.3789 88.3887 80.6094 88.8066 81.0703C89.2246 81.5312 89.4336 82.127 89.4336 82.8574V87H88.4199L88.4141 83.1738C88.4141 82.5879 88.2852 82.1309 88.0273 81.8027C87.7695 81.4746 87.4102 81.3105 86.9492 81.3105C86.4727 81.3105 86.0645 81.5137 85.7246 81.9199C85.3887 82.3223 85.2207 82.8184 85.2207 83.4082V87H84.2246V83.1738C84.2246 82.5879 84.0957 82.1309 83.8379 81.8027C83.5801 81.4746 83.2168 81.3105 82.748 81.3105C82.2715 81.3105 81.8633 81.5137 81.5234 81.9199C81.1875 82.3223 81.0195 82.8184 81.0195 83.4082V87H79.9941V80.5195H80.7324L80.8965 81.4102C81.1465 81.0859 81.4531 80.834 81.8164 80.6543C82.1836 80.4707 82.5703 80.3789 82.9766 80.3789C83.4297 80.3789 83.8281 80.4883 84.1719 80.707C84.5156 80.9258 84.7793 81.2266 84.9629 81.6094C85.2051 81.2266 85.5195 80.9258 85.9062 80.707C86.2969 80.4883 86.7148 80.3789 87.1602 80.3789ZM94.1621 87.1406C93.291 87.1406 92.5938 86.8789 92.0703 86.3555C91.5508 85.832 91.291 85.1348 91.291 84.2637V80.5195H92.3105V84.0996C92.3105 84.7363 92.4766 85.2383 92.8086 85.6055C93.1406 85.9727 93.5918 86.1562 94.1621 86.1562C94.7363 86.1562 95.1875 85.9727 95.5156 85.6055C95.8477 85.2344 96.0137 84.7324 96.0137 84.0996V80.5195H97.0332V84.2637C97.0332 85.1348 96.7734 85.832 96.2539 86.3555C95.7344 86.8789 95.0371 87.1406 94.1621 87.1406ZM102.225 80.3789C102.982 80.3789 103.588 80.6348 104.041 81.1465C104.498 81.6582 104.727 82.3164 104.727 83.1211V87H103.707V83.3613C103.707 82.7051 103.557 82.1992 103.256 81.8438C102.955 81.4883 102.523 81.3105 101.961 81.3105C101.406 81.3105 100.941 81.5176 100.566 81.9316C100.191 82.3457 100.004 82.8574 100.004 83.4668V87H98.9785V80.5195H99.7051L99.9043 81.5332C100.15 81.1699 100.475 80.8867 100.877 80.6836C101.279 80.4805 101.729 80.3789 102.225 80.3789ZM106.637 79.4004V78.2285H107.744V79.4004H106.637ZM106.678 87V80.5195H107.703V87H106.678ZM112.438 86.0566H113.141V87H112.303C111.604 87 111.053 86.7988 110.65 86.3965C110.252 85.9902 110.053 85.4355 110.053 84.7324V81.4395H108.91V81.2578L110.914 79.1484H111.072V80.5195H113.105V81.4395H111.072V84.7031C111.072 85.1406 111.189 85.4766 111.424 85.7109C111.658 85.9414 111.996 86.0566 112.438 86.0566ZM119.246 80.5195H120.33L117.242 87.2695C116.891 88.0391 116.531 88.5723 116.164 88.8691C115.801 89.166 115.314 89.3145 114.705 89.3145H114.096V88.3887H114.617C115.047 88.3887 115.371 88.3008 115.59 88.125C115.809 87.9492 116.049 87.5879 116.311 87.041L116.545 86.5605L113.662 80.5195H114.775L117.078 85.4238L119.246 80.5195ZM1.37483 102.62C1.37483 102.172 1.44683 101.812 1.59083 101.54C1.74283 101.268 1.94683 101.072 2.20283 100.952C2.45883 100.824 2.74283 100.76 3.05483 100.76C3.36683 100.76 3.64683 100.824 3.89483 100.952C4.15083 101.072 4.35483 101.268 4.50683 101.54C4.65883 101.812 4.73483 102.172 4.73483 102.62C4.73483 103.06 4.65883 103.416 4.50683 103.688C4.35483 103.96 4.15083 104.16 3.89483 104.288C3.64683 104.416 3.36683 104.48 3.05483 104.48C2.74283 104.48 2.45883 104.416 2.20283 104.288C1.94683 104.16 1.74283 103.96 1.59083 103.688C1.44683 103.416 1.37483 103.06 1.37483 102.62ZM10.6484 106.016H14.3398V107H9.59961V98.5977H10.6484V106.016ZM15.5762 99.4004V98.2285H16.6836V99.4004H15.5762ZM15.6172 107V100.52H16.6426V107H15.6172ZM22.1562 100.566V101.422H20.1699V107H19.1504V101.422H17.873V100.566H19.1504V100.039C19.1504 99.3398 19.3184 98.8203 19.6543 98.4805C19.9902 98.1406 20.5156 97.9707 21.2305 97.9707H22.1445V98.7969H21.4121C20.9512 98.7969 20.623 98.8945 20.4277 99.0898C20.2324 99.2812 20.1348 99.6055 20.1348 100.062V100.566H22.1562ZM29.1758 103.789C29.1758 103.906 29.1699 104.027 29.1582 104.152H23.6328C23.7109 104.754 23.957 105.236 24.3711 105.6C24.7891 105.963 25.3027 106.145 25.9121 106.145C26.3574 106.145 26.7539 106.047 27.1016 105.852C27.4492 105.652 27.7246 105.377 27.9277 105.025H29.0059C28.7285 105.693 28.3184 106.213 27.7754 106.584C27.2363 106.955 26.6152 107.141 25.9121 107.141C25.2949 107.141 24.7324 106.994 24.2246 106.701C23.7207 106.408 23.3242 106.004 23.0352 105.488C22.75 104.973 22.6074 104.396 22.6074 103.76C22.6074 103.127 22.75 102.553 23.0352 102.037C23.3242 101.518 23.7207 101.111 24.2246 100.818C24.7324 100.525 25.2949 100.379 25.9121 100.379C26.5527 100.379 27.123 100.531 27.623 100.836C28.123 101.141 28.5059 101.553 28.7715 102.072C29.041 102.588 29.1758 103.16 29.1758 103.789ZM25.9121 101.346C25.3262 101.346 24.8301 101.516 24.4238 101.855C24.0176 102.191 23.7617 102.643 23.6562 103.209H28.1562C28.0469 102.635 27.7891 102.182 27.3828 101.85C26.9805 101.514 26.4902 101.346 25.9121 101.346ZM33.3184 106.057H34.0215V107H33.1836C32.4844 107 31.9336 106.799 31.5312 106.396C31.1328 105.99 30.9336 105.436 30.9336 104.732V101.439H29.791V101.258L31.7949 99.1484H31.9531V100.52H33.9863V101.439H31.9531V104.703C31.9531 105.141 32.0703 105.477 32.3047 105.711C32.5391 105.941 32.877 106.057 33.3184 106.057ZM35.3457 99.4004V98.2285H36.4531V99.4004H35.3457ZM35.3867 107V100.52H36.4121V107H35.3867ZM45.623 100.379C46.3027 100.379 46.8516 100.609 47.2695 101.07C47.6875 101.531 47.8965 102.127 47.8965 102.857V107H46.8828L46.877 103.174C46.877 102.588 46.748 102.131 46.4902 101.803C46.2324 101.475 45.873 101.311 45.4121 101.311C44.9355 101.311 44.5273 101.514 44.1875 101.92C43.8516 102.322 43.6836 102.818 43.6836 103.408V107H42.6875V103.174C42.6875 102.588 42.5586 102.131 42.3008 101.803C42.043 101.475 41.6797 101.311 41.2109 101.311C40.7344 101.311 40.3262 101.514 39.9863 101.92C39.6504 102.322 39.4824 102.818 39.4824 103.408V107H38.457V100.52H39.1953L39.3594 101.41C39.6094 101.086 39.916 100.834 40.2793 100.654C40.6465 100.471 41.0332 100.379 41.4395 100.379C41.8926 100.379 42.291 100.488 42.6348 100.707C42.9785 100.926 43.2422 101.227 43.4258 101.609C43.668 101.227 43.9824 100.926 44.3691 100.707C44.7598 100.488 45.1777 100.379 45.623 100.379ZM55.918 103.789C55.918 103.906 55.9121 104.027 55.9004 104.152H50.375C50.4531 104.754 50.6992 105.236 51.1133 105.6C51.5312 105.963 52.0449 106.145 52.6543 106.145C53.0996 106.145 53.4961 106.047 53.8438 105.852C54.1914 105.652 54.4668 105.377 54.6699 105.025H55.748C55.4707 105.693 55.0605 106.213 54.5176 106.584C53.9785 106.955 53.3574 107.141 52.6543 107.141C52.0371 107.141 51.4746 106.994 50.9668 106.701C50.4629 106.408 50.0664 106.004 49.7773 105.488C49.4922 104.973 49.3496 104.396 49.3496 103.76C49.3496 103.127 49.4922 102.553 49.7773 102.037C50.0664 101.518 50.4629 101.111 50.9668 100.818C51.4746 100.525 52.0371 100.379 52.6543 100.379C53.2949 100.379 53.8652 100.531 54.3652 100.836C54.8652 101.141 55.248 101.553 55.5137 102.072C55.7832 102.588 55.918 103.16 55.918 103.789ZM52.6543 101.346C52.0684 101.346 51.5723 101.516 51.166 101.855C50.7598 102.191 50.5039 102.643 50.3984 103.209H54.8984C54.7891 102.635 54.5312 102.182 54.125 101.85C53.7227 101.514 53.2324 101.346 52.6543 101.346ZM63.5059 107.141C62.5254 107.141 61.707 106.82 61.0508 106.18C60.3984 105.535 60.0723 104.729 60.0723 103.76C60.0723 103.119 60.2207 102.541 60.5176 102.025C60.8145 101.51 61.2246 101.107 61.748 100.818C62.2754 100.525 62.8613 100.379 63.5059 100.379C64.1504 100.379 64.7344 100.525 65.2578 100.818C65.7852 101.107 66.1973 101.512 66.4941 102.031C66.7949 102.547 66.9453 103.123 66.9453 103.76C66.9453 104.396 66.7949 104.975 66.4941 105.494C66.1973 106.01 65.7852 106.414 65.2578 106.707C64.7344 106.996 64.1504 107.141 63.5059 107.141ZM61.7891 105.482C62.2383 105.932 62.8105 106.156 63.5059 106.156C64.2012 106.156 64.7734 105.932 65.2227 105.482C65.6758 105.029 65.9023 104.455 65.9023 103.76C65.9023 103.064 65.6758 102.492 65.2227 102.043C64.7734 101.59 64.2012 101.363 63.5059 101.363C62.8105 101.363 62.2383 101.59 61.7891 102.043C61.3398 102.492 61.1152 103.064 61.1152 103.76C61.1152 104.455 61.3398 105.029 61.7891 105.482ZM71.8555 100.566V101.422H69.8691V107H68.8496V101.422H67.5723V100.566H68.8496V100.039C68.8496 99.3398 69.0176 98.8203 69.3535 98.4805C69.6895 98.1406 70.2148 97.9707 70.9297 97.9707H71.8438V98.7969H71.1113C70.6504 98.7969 70.3223 98.8945 70.127 99.0898C69.9316 99.2812 69.834 99.6055 69.834 100.062V100.566H71.8555ZM78.6875 107.141C78.0586 107.141 77.4863 106.994 76.9707 106.701C76.4551 106.408 76.0508 106.004 75.7578 105.488C75.4648 104.969 75.3184 104.393 75.3184 103.76C75.3184 103.123 75.4648 102.547 75.7578 102.031C76.0508 101.516 76.4551 101.111 76.9707 100.818C77.4863 100.525 78.0586 100.379 78.6875 100.379C79.457 100.379 80.123 100.59 80.6855 101.012C81.252 101.434 81.6348 101.998 81.834 102.705H80.8262C80.6348 102.287 80.3496 101.959 79.9707 101.721C79.5918 101.482 79.1641 101.363 78.6875 101.363C78.0234 101.363 77.4688 101.594 77.0234 102.055C76.582 102.512 76.3613 103.08 76.3613 103.76C76.3613 104.436 76.584 105.004 77.0293 105.465C77.4746 105.926 78.0273 106.156 78.6875 106.156C79.1641 106.156 79.5879 106.035 79.959 105.793C80.3301 105.551 80.6152 105.213 80.8145 104.779H81.8457C81.6465 105.494 81.2598 106.066 80.6855 106.496C80.1152 106.926 79.4492 107.141 78.6875 107.141ZM86.1934 107.141C85.2129 107.141 84.3945 106.82 83.7383 106.18C83.0859 105.535 82.7598 104.729 82.7598 103.76C82.7598 103.119 82.9082 102.541 83.2051 102.025C83.502 101.51 83.9121 101.107 84.4355 100.818C84.9629 100.525 85.5488 100.379 86.1934 100.379C86.8379 100.379 87.4219 100.525 87.9453 100.818C88.4727 101.107 88.8848 101.512 89.1816 102.031C89.4824 102.547 89.6328 103.123 89.6328 103.76C89.6328 104.396 89.4824 104.975 89.1816 105.494C88.8848 106.01 88.4727 106.414 87.9453 106.707C87.4219 106.996 86.8379 107.141 86.1934 107.141ZM84.4766 105.482C84.9258 105.932 85.498 106.156 86.1934 106.156C86.8887 106.156 87.4609 105.932 87.9102 105.482C88.3633 105.029 88.5898 104.455 88.5898 103.76C88.5898 103.064 88.3633 102.492 87.9102 102.043C87.4609 101.59 86.8887 101.363 86.1934 101.363C85.498 101.363 84.9258 101.59 84.4766 102.043C84.0273 102.492 83.8027 103.064 83.8027 103.76C83.8027 104.455 84.0273 105.029 84.4766 105.482ZM98.3457 100.379C99.0254 100.379 99.5742 100.609 99.9922 101.07C100.41 101.531 100.619 102.127 100.619 102.857V107H99.6055L99.5996 103.174C99.5996 102.588 99.4707 102.131 99.2129 101.803C98.9551 101.475 98.5957 101.311 98.1348 101.311C97.6582 101.311 97.25 101.514 96.9102 101.92C96.5742 102.322 96.4062 102.818 96.4062 103.408V107H95.4102V103.174C95.4102 102.588 95.2812 102.131 95.0234 101.803C94.7656 101.475 94.4023 101.311 93.9336 101.311C93.457 101.311 93.0488 101.514 92.709 101.92C92.373 102.322 92.2051 102.818 92.2051 103.408V107H91.1797V100.52H91.918L92.082 101.41C92.332 101.086 92.6387 100.834 93.002 100.654C93.3691 100.471 93.7559 100.379 94.1621 100.379C94.6152 100.379 95.0137 100.488 95.3574 100.707C95.7012 100.926 95.9648 101.227 96.1484 101.609C96.3906 101.227 96.7051 100.926 97.0918 100.707C97.4824 100.488 97.9004 100.379 98.3457 100.379ZM105.969 100.566V101.422H103.982V107H102.963V101.422H101.686V100.566H102.963V100.039C102.963 99.3398 103.131 98.8203 103.467 98.4805C103.803 98.1406 104.328 97.9707 105.043 97.9707H105.957V98.7969H105.225C104.764 98.7969 104.436 98.8945 104.24 99.0898C104.045 99.2812 103.947 99.6055 103.947 100.062V100.566H105.969ZM109.854 107.141C108.873 107.141 108.055 106.82 107.398 106.18C106.746 105.535 106.42 104.729 106.42 103.76C106.42 103.119 106.568 102.541 106.865 102.025C107.162 101.51 107.572 101.107 108.096 100.818C108.623 100.525 109.209 100.379 109.854 100.379C110.498 100.379 111.082 100.525 111.605 100.818C112.133 101.107 112.545 101.512 112.842 102.031C113.143 102.547 113.293 103.123 113.293 103.76C113.293 104.396 113.143 104.975 112.842 105.494C112.545 106.01 112.133 106.414 111.605 106.707C111.082 106.996 110.498 107.141 109.854 107.141ZM108.137 105.482C108.586 105.932 109.158 106.156 109.854 106.156C110.549 106.156 111.121 105.932 111.57 105.482C112.023 105.029 112.25 104.455 112.25 103.76C112.25 103.064 112.023 102.492 111.57 102.043C111.121 101.59 110.549 101.363 109.854 101.363C109.158 101.363 108.586 101.59 108.137 102.043C107.688 102.492 107.463 103.064 107.463 103.76C107.463 104.455 107.688 105.029 108.137 105.482ZM117.805 100.484H118.379V101.451H117.717C117.131 101.451 116.676 101.631 116.352 101.99C116.027 102.35 115.865 102.846 115.865 103.479V107H114.84V100.52H115.566L115.73 101.504C116.199 100.824 116.891 100.484 117.805 100.484ZM122.158 106.057H122.861V107H122.023C121.324 107 120.773 106.799 120.371 106.396C119.973 105.99 119.773 105.436 119.773 104.732V101.439H118.631V101.258L120.635 99.1484H120.793V100.52H122.826V101.439H120.793V104.703C120.793 105.141 120.91 105.477 121.145 105.711C121.379 105.941 121.717 106.057 122.158 106.057Z" fill="#262626"/>
<path d="M20.1699 55.1973C20.8171 55.1973 21.4027 55.3431 21.9268 55.6348C22.4554 55.9219 22.8701 56.3252 23.1709 56.8447C23.4762 57.3597 23.6289 57.9339 23.6289 58.5674C23.6289 59.5335 23.2985 60.3379 22.6377 60.9805C21.9769 61.6185 21.1543 61.9375 20.1699 61.9375H18.5156V65H16.3965V55.1973H20.1699ZM20.0742 59.9756C20.4889 59.9756 20.8262 59.8434 21.0859 59.5791C21.3457 59.3148 21.4756 58.9775 21.4756 58.5674C21.4756 58.1572 21.3457 57.8223 21.0859 57.5625C20.8307 57.2982 20.4935 57.166 20.0742 57.166H18.5156V59.9756H20.0742ZM32.2217 61.1924C32.2217 61.3975 32.208 61.598 32.1807 61.7939H26.459C26.5456 62.3089 26.7507 62.7054 27.0742 62.9834C27.4023 63.2568 27.8148 63.3936 28.3115 63.3936C28.6624 63.3936 28.9769 63.3161 29.2549 63.1611C29.5374 63.0062 29.7562 62.792 29.9111 62.5186H32.0576C31.7842 63.3434 31.3102 63.9997 30.6357 64.4873C29.9613 64.9704 29.1865 65.2119 28.3115 65.2119C27.5778 65.2119 26.9102 65.0387 26.3086 64.6924C25.7116 64.3415 25.2422 63.8607 24.9004 63.25C24.5586 62.6393 24.3877 61.9626 24.3877 61.2197C24.3877 60.4723 24.5563 59.7933 24.8936 59.1826C25.2354 58.5719 25.7048 58.0934 26.3018 57.7471C26.9033 57.4007 27.5732 57.2275 28.3115 57.2275C29.068 57.2275 29.7471 57.4076 30.3486 57.7676C30.9502 58.123 31.4128 58.6016 31.7363 59.2031C32.0599 59.8047 32.2217 60.4678 32.2217 61.1924ZM28.3115 58.9707C27.8604 58.9707 27.4775 59.096 27.1631 59.3467C26.8486 59.5973 26.6322 59.9482 26.5137 60.3994H30.1777C30.0365 59.9391 29.804 59.5859 29.4805 59.3398C29.1615 59.0938 28.7718 58.9707 28.3115 58.9707ZM37.2598 63.1816H38.1895V65H36.7402C35.9108 65 35.2546 64.7607 34.7715 64.2822C34.293 63.7992 34.0537 63.1383 34.0537 62.2998V59.0801H32.6865V58.6426L35.6738 55.4639H36.0635V57.4395H38.1484V59.0801H36.0977V62.0264C36.0977 62.3955 36.1979 62.6803 36.3984 62.8809C36.599 63.0814 36.8861 63.1816 37.2598 63.1816ZM55.0811 65H52.9209L51.957 58.6016L49.0312 64.9795H48.5117L45.5859 58.6084L44.6221 65H42.4619L43.9932 55.1973H46.1191L48.7715 61.2061L51.4307 55.1973H53.5635L55.0811 65ZM62.6484 57.4258H64.1797V64.9863H62.5732L62.3955 64.3096C61.7074 64.9111 60.8916 65.2119 59.9482 65.2119C59.2008 65.2119 58.5241 65.0387 57.918 64.6924C57.3118 64.346 56.8379 63.8675 56.4961 63.2568C56.1543 62.6416 55.9834 61.958 55.9834 61.2061C55.9834 60.4587 56.1543 59.7819 56.4961 59.1758C56.8379 58.5651 57.3118 58.0889 57.918 57.7471C58.5241 57.4007 59.2008 57.2275 59.9482 57.2275C60.9098 57.2275 61.737 57.5352 62.4297 58.1504L62.6484 57.4258ZM58.6357 62.6895C59.0277 63.0814 59.5199 63.2773 60.1123 63.2773C60.7048 63.2773 61.1947 63.0814 61.582 62.6895C61.974 62.2975 62.1699 61.8031 62.1699 61.2061C62.1699 60.609 61.974 60.1146 61.582 59.7227C61.1947 59.3307 60.7048 59.1348 60.1123 59.1348C59.5199 59.1348 59.0277 59.333 58.6357 59.7295C58.2484 60.1214 58.0547 60.6136 58.0547 61.2061C58.0547 61.7985 58.2484 62.293 58.6357 62.6895ZM68.8281 65.2119C67.8802 65.2119 67.1146 64.9658 66.5312 64.4736C65.9525 63.9769 65.6608 63.3229 65.6562 62.5117H67.6455C67.6501 62.8353 67.7663 63.0837 67.9941 63.2568C68.2266 63.43 68.5319 63.5166 68.9102 63.5166C69.2109 63.5166 69.4639 63.4505 69.6689 63.3184C69.8786 63.1862 69.9834 62.9993 69.9834 62.7578C69.9834 62.6348 69.9469 62.5277 69.874 62.4365C69.8057 62.3454 69.6963 62.2702 69.5459 62.2109C69.3955 62.1471 69.2474 62.0993 69.1016 62.0674C68.9557 62.0309 68.7643 61.9922 68.5273 61.9512C68.3132 61.9147 68.1331 61.8828 67.9873 61.8555C67.8415 61.8236 67.6637 61.778 67.4541 61.7188C67.249 61.6595 67.0758 61.5957 66.9346 61.5273C66.7933 61.4544 66.6429 61.3587 66.4834 61.2402C66.3285 61.1217 66.2031 60.9919 66.1074 60.8506C66.0163 60.7048 65.9388 60.5293 65.875 60.3242C65.8158 60.1191 65.7861 59.8936 65.7861 59.6475C65.7861 58.932 66.0664 58.3509 66.627 57.9043C67.1875 57.4531 67.9212 57.2275 68.8281 57.2275C69.7396 57.2275 70.471 57.46 71.0225 57.9248C71.5739 58.3851 71.8519 58.9935 71.8564 59.75H69.915C69.9105 59.4538 69.8079 59.2305 69.6074 59.0801C69.4115 58.9297 69.1335 58.8545 68.7734 58.8545C68.459 58.8545 68.2106 58.9206 68.0283 59.0527C67.8506 59.1849 67.7617 59.3604 67.7617 59.5791C67.7617 59.6611 67.7754 59.7363 67.8027 59.8047C67.8346 59.8685 67.887 59.9255 67.96 59.9756C68.0374 60.0212 68.1081 60.0622 68.1719 60.0986C68.2402 60.1305 68.3405 60.1647 68.4727 60.2012C68.6094 60.2331 68.7188 60.2581 68.8008 60.2764C68.8874 60.29 69.0173 60.3128 69.1904 60.3447C69.9242 60.4769 70.4528 60.6136 70.7764 60.7549C71.5921 61.1195 72 61.7575 72 62.6689C72 63.4391 71.7106 64.0566 71.1318 64.5215C70.5531 64.9818 69.7852 65.2119 68.8281 65.2119ZM76.1836 65.2119C75.2357 65.2119 74.4701 64.9658 73.8867 64.4736C73.3079 63.9769 73.0163 63.3229 73.0117 62.5117H75.001C75.0055 62.8353 75.1217 63.0837 75.3496 63.2568C75.582 63.43 75.8874 63.5166 76.2656 63.5166C76.5664 63.5166 76.8193 63.4505 77.0244 63.3184C77.234 63.1862 77.3389 62.9993 77.3389 62.7578C77.3389 62.6348 77.3024 62.5277 77.2295 62.4365C77.1611 62.3454 77.0518 62.2702 76.9014 62.2109C76.751 62.1471 76.6029 62.0993 76.457 62.0674C76.3112 62.0309 76.1198 61.9922 75.8828 61.9512C75.6686 61.9147 75.4886 61.8828 75.3428 61.8555C75.1969 61.8236 75.0192 61.778 74.8096 61.7188C74.6045 61.6595 74.4313 61.5957 74.29 61.5273C74.1488 61.4544 73.9984 61.3587 73.8389 61.2402C73.6839 61.1217 73.5586 60.9919 73.4629 60.8506C73.3717 60.7048 73.2943 60.5293 73.2305 60.3242C73.1712 60.1191 73.1416 59.8936 73.1416 59.6475C73.1416 58.932 73.4219 58.3509 73.9824 57.9043C74.543 57.4531 75.2767 57.2275 76.1836 57.2275C77.0951 57.2275 77.8265 57.46 78.3779 57.9248C78.9294 58.3851 79.2074 58.9935 79.2119 59.75H77.2705C77.266 59.4538 77.1634 59.2305 76.9629 59.0801C76.7669 58.9297 76.4889 58.8545 76.1289 58.8545C75.8145 58.8545 75.5661 58.9206 75.3838 59.0527C75.2061 59.1849 75.1172 59.3604 75.1172 59.5791C75.1172 59.6611 75.1309 59.7363 75.1582 59.8047C75.1901 59.8685 75.2425 59.9255 75.3154 59.9756C75.3929 60.0212 75.4635 60.0622 75.5273 60.0986C75.5957 60.1305 75.696 60.1647 75.8281 60.2012C75.9648 60.2331 76.0742 60.2581 76.1562 60.2764C76.2428 60.29 76.3727 60.3128 76.5459 60.3447C77.2796 60.4769 77.8083 60.6136 78.1318 60.7549C78.9476 61.1195 79.3555 61.7575 79.3555 62.6689C79.3555 63.4391 79.0661 64.0566 78.4873 64.5215C77.9085 64.9818 77.1406 65.2119 76.1836 65.2119ZM87.0254 57.4258H88.5566V64.9863H86.9502L86.7725 64.3096C86.0843 64.9111 85.2686 65.2119 84.3252 65.2119C83.5778 65.2119 82.901 65.0387 82.2949 64.6924C81.6888 64.346 81.2148 63.8675 80.873 63.2568C80.5312 62.6416 80.3604 61.958 80.3604 61.2061C80.3604 60.4587 80.5312 59.7819 80.873 59.1758C81.2148 58.5651 81.6888 58.0889 82.2949 57.7471C82.901 57.4007 83.5778 57.2275 84.3252 57.2275C85.2868 57.2275 86.1139 57.5352 86.8066 58.1504L87.0254 57.4258ZM83.0127 62.6895C83.4046 63.0814 83.8968 63.2773 84.4893 63.2773C85.0817 63.2773 85.5716 63.0814 85.959 62.6895C86.3509 62.2975 86.5469 61.8031 86.5469 61.2061C86.5469 60.609 86.3509 60.1146 85.959 59.7227C85.5716 59.3307 85.0817 59.1348 84.4893 59.1348C83.8968 59.1348 83.4046 59.333 83.0127 59.7295C82.6253 60.1214 82.4316 60.6136 82.4316 61.2061C82.4316 61.7985 82.6253 62.293 83.0127 62.6895ZM96.623 57.4395H97.9492V64.125C97.9492 65.3053 97.6051 66.235 96.917 66.9141C96.2288 67.5977 95.2855 67.9395 94.0869 67.9395C93.0615 67.9395 92.207 67.6934 91.5234 67.2012C90.8398 66.709 90.4115 66.0299 90.2383 65.1641H92.2686C92.3779 65.4876 92.6012 65.7383 92.9385 65.916C93.2803 66.0983 93.6517 66.1895 94.0527 66.1895C94.5859 66.1895 95.0348 66.0277 95.3994 65.7041C95.764 65.3851 95.9463 64.9567 95.9463 64.4189V64.1318C95.3037 64.583 94.5837 64.8086 93.7861 64.8086C93.0934 64.8086 92.4577 64.6423 91.8789 64.3096C91.3047 63.9769 90.8512 63.5212 90.5186 62.9424C90.1904 62.359 90.0264 61.7188 90.0264 61.0215C90.0264 60.3288 90.1904 59.693 90.5186 59.1143C90.8512 58.5309 91.3047 58.0706 91.8789 57.7334C92.4577 57.3962 93.0934 57.2275 93.7861 57.2275C94.766 57.2275 95.6022 57.5488 96.2949 58.1914L96.623 57.4395ZM94.0254 62.9834C94.5814 62.9834 95.0417 62.7988 95.4062 62.4297C95.7708 62.056 95.9531 61.5866 95.9531 61.0215C95.9531 60.4609 95.7708 59.9984 95.4062 59.6338C95.0462 59.2646 94.5859 59.0801 94.0254 59.0801C93.4694 59.0801 93.0091 59.2646 92.6445 59.6338C92.2799 59.9984 92.0977 60.4609 92.0977 61.0215C92.0977 61.5866 92.2777 62.056 92.6377 62.4297C93.0023 62.7988 93.4648 62.9834 94.0254 62.9834ZM107.253 61.1924C107.253 61.3975 107.239 61.598 107.212 61.7939H101.49C101.577 62.3089 101.782 62.7054 102.105 62.9834C102.434 63.2568 102.846 63.3936 103.343 63.3936C103.694 63.3936 104.008 63.3161 104.286 63.1611C104.569 63.0062 104.787 62.792 104.942 62.5186H107.089C106.815 63.3434 106.341 63.9997 105.667 64.4873C104.993 64.9704 104.218 65.2119 103.343 65.2119C102.609 65.2119 101.941 65.0387 101.34 64.6924C100.743 64.3415 100.273 63.8607 99.9316 63.25C99.5898 62.6393 99.4189 61.9626 99.4189 61.2197C99.4189 60.4723 99.5876 59.7933 99.9248 59.1826C100.267 58.5719 100.736 58.0934 101.333 57.7471C101.935 57.4007 102.604 57.2275 103.343 57.2275C104.099 57.2275 104.778 57.4076 105.38 57.7676C105.981 58.123 106.444 58.6016 106.768 59.2031C107.091 59.8047 107.253 60.4678 107.253 61.1924ZM103.343 58.9707C102.892 58.9707 102.509 59.096 102.194 59.3467C101.88 59.5973 101.663 59.9482 101.545 60.3994H105.209C105.068 59.9391 104.835 59.5859 104.512 59.3398C104.193 59.0938 103.803 58.9707 103.343 58.9707Z" fill="#11346F"/>
<path d="M63.5 19.5H59.5L58.5 18L59 16L63.5 15.5L65 16.5L65.5 18.5L63.5 19.5Z" fill="#197AFF"/>
<path fill-rule="evenodd" clip-rule="evenodd" d="M50.8764 0.105935C50.5247 0.217893 46.0281 2.71398 45.8336 2.90523C45.6355 3.10009 45.6898 3.52223 45.9408 3.7381C46.0637 3.84382 46.2251 3.93034 46.2994 3.93034C46.3736 3.93034 47.4573 3.35741 48.7075 2.6571C49.9577 1.95686 51.0966 1.34347 51.2385 1.29406C51.9529 1.04511 52.7247 1.63469 52.7233 2.42825C52.722 3.20162 51.6128 6.93951 50.6947 9.26446C49.2505 12.9218 47.7525 15.0934 46.6739 15.0934C45.1435 15.0934 43.0323 12.1215 42.3363 8.98735C41.9881 7.41993 42.5408 6.14201 43.9024 5.36577C44.6857 4.91925 44.8415 4.76896 44.8415 4.45968C44.8415 4.11765 44.6017 3.84826 44.2974 3.84826C43.9808 3.84826 42.897 4.47429 42.3866 4.952C41.2253 6.03884 40.7761 7.49315 41.1048 9.10145C41.8546 12.7691 44.3191 16.1383 46.377 16.3088L46.8329 16.3467L46.7805 16.8486C46.6603 18.0013 46.6296 19.832 46.7206 20.4286C46.7948 20.9149 46.8584 21.0831 47.0232 21.2289C47.258 21.4368 47.3732 21.4537 47.6613 21.3225C47.986 21.1746 48.0603 20.9068 47.9509 20.2788C47.8385 19.6336 47.9062 17.6417 48.0776 16.549L48.1904 15.8295L48.7421 15.245C50.2858 13.6091 51.8694 10.2638 53.1268 5.98236L53.5968 4.38178L54.0359 4.11707C55.973 2.94931 58.7333 2.5888 61.4068 3.15451C61.9419 3.26778 62.0623 3.26778 62.5974 3.15451C65.2709 2.5888 68.0288 2.94898 69.9688 4.11707L70.4083 4.38178L70.7252 5.48988C72.0076 9.97446 73.6769 13.5651 75.2585 15.2412L75.8137 15.8295L75.9269 16.549C75.9893 16.9447 76.0645 17.841 76.0942 18.5408C76.1378 19.5678 76.1216 19.9437 76.0106 20.4909C75.7363 21.8426 74.8612 23.4358 73.3846 25.2714C72.5982 26.249 70.5109 28.293 69.3918 29.1812C68.5759 29.8288 68.36 30.0427 68.3389 30.2245C68.281 30.725 68.768 31.0494 69.2238 30.8139C69.6191 30.6096 71.1016 29.3988 71.933 28.6012C74.1128 26.5105 75.6341 24.5563 76.5382 22.6859C77.1775 21.3633 77.3069 20.7868 77.3114 19.2385C77.3135 18.5161 77.2844 17.5698 77.2467 17.1356L77.1784 16.3461L77.6307 16.3086C79.6982 16.1372 82.2236 12.6578 82.9052 9.04153C83.2152 7.3972 82.7637 6.00428 81.5678 4.91531C80.963 4.36463 78.4583 2.94537 78.0912 2.94537C77.9579 2.94537 77.775 3.01924 77.6847 3.10953C77.4781 3.31604 77.4668 3.77693 77.6642 3.94569C77.7432 4.01324 78.439 4.42365 79.2104 4.85761C80.2045 5.41691 80.7148 5.75713 80.9626 6.02587C81.6923 6.81738 81.929 7.8113 81.6679 8.98735C81.2414 10.9076 80.1802 12.9963 79.0419 14.1558C78.137 15.0774 77.2913 15.3266 76.6502 14.8606C75.4162 13.9635 73.9216 11.2067 72.638 7.45982C71.9465 5.44104 71.2803 2.95374 71.2803 2.3905C71.2803 1.74304 71.9081 1.17447 72.538 1.25138C72.7267 1.27436 73.3639 1.57642 74.1391 2.01022C75.9166 3.00496 75.8209 2.96318 76.0883 2.86148C76.5492 2.68632 76.6647 2.2764 76.3505 1.9301C76.1178 1.67368 73.5796 0.247279 73.0941 0.100189C72.307 -0.13842 71.5023 0.0531568 70.8578 0.632321C70.3422 1.09583 70.1199 1.53218 70.0676 2.18374C70.0448 2.46716 70.0179 2.69912 70.0077 2.69912C69.9975 2.69912 69.7162 2.58601 69.3826 2.44779C67.4742 1.6571 64.7137 1.44189 62.5149 1.91238C62.0841 2.00455 61.9153 2.00422 61.4671 1.91032C59.1824 1.43154 56.5847 1.63978 54.5914 2.4615C54.2744 2.59217 54.0066 2.69912 53.9965 2.69912C53.9863 2.69912 53.9588 2.46051 53.9354 2.16888C53.8174 0.699299 52.2768 -0.339683 50.8764 0.105935ZM55.7208 7.54289C54.7781 7.67266 53.725 8.1759 53.4189 8.64286C53.2741 8.86382 53.3109 9.26955 53.4891 9.41754C53.767 9.64802 54.0276 9.61421 54.5234 9.28317C55.6239 8.54855 57.2124 8.54781 58.3115 9.28145C58.7054 9.54452 58.8456 9.59697 59.0402 9.5542C59.3339 9.48969 59.4397 9.371 59.508 9.02962C59.5541 8.79955 59.5203 8.73003 59.2267 8.45095C58.4782 7.73906 57.0269 7.36313 55.7208 7.54289ZM66.8875 7.54289C65.9448 7.67266 64.8917 8.1759 64.5856 8.64286C64.4408 8.86382 64.4776 9.26955 64.6558 9.41754C64.9337 9.64802 65.1943 9.61421 65.6901 9.28317C66.7906 8.54855 68.3791 8.54781 69.4782 9.28145C69.8721 9.54452 70.0123 9.59697 70.2069 9.5542C70.5006 9.48969 70.6064 9.371 70.6747 9.02962C70.7208 8.79955 70.687 8.73003 70.3934 8.45095C69.6449 7.73906 68.1936 7.36313 66.8875 7.54289ZM55.0418 12.6708C54.4889 12.8264 54.2126 12.9708 53.8877 13.2741C53.5821 13.5597 53.5538 13.829 53.7973 14.1384C54.0258 14.4288 54.3355 14.4178 54.8448 14.1014C55.5457 13.6658 56.5072 13.6855 57.1911 14.1496C57.5906 14.4205 57.918 14.4167 58.137 14.1384C58.3875 13.82 58.3531 13.5554 58.0205 13.2419C57.419 12.6748 55.9969 12.4021 55.0418 12.6708ZM67.0947 12.6752C66.8475 12.7444 66.489 12.8928 66.298 13.0046C65.6927 13.3592 65.5498 13.7351 65.8671 14.1384C66.0981 14.432 66.4061 14.4173 66.9364 14.0879C67.3294 13.8437 67.4224 13.8211 68.037 13.8211C68.6517 13.8211 68.7446 13.8437 69.1377 14.0879C69.6729 14.4205 69.9755 14.4324 70.2134 14.1302C70.919 13.2334 68.7362 12.2149 67.0947 12.6752ZM61.0168 15.1069C59.9507 15.1685 59.1101 15.3916 58.7257 15.7149C58.1103 16.2325 57.8133 17.5196 58.0899 18.4704C58.3786 19.463 58.906 19.8603 60.5447 20.3193L61.3452 20.5436V22.0425V23.5414L61.0373 23.6235C60.4748 23.7734 59.3436 23.9455 58.5535 24.0015C57.5277 24.0741 56.5267 23.936 55.8667 23.6306C54.6301 23.0585 53.5738 21.5492 52.881 19.3645C52.5303 18.2587 52.2087 17.9893 51.7086 18.3826C51.4186 18.6106 51.426 18.9345 51.743 19.8803C52.4173 21.8923 53.4503 23.4811 54.6502 24.3519C55.1892 24.7431 55.2027 24.761 55.6816 25.7247C56.2592 26.8874 56.501 27.8902 56.5605 29.3694L56.6081 30.5536L56.2876 30.3581C55.0877 29.6262 53.3655 28.1967 52.0239 26.819C50.8412 25.6043 50.1873 24.8004 49.388 23.5781C48.7344 22.5788 48.5648 22.4589 48.1263 22.6856C47.8651 22.8206 47.7484 23.1 47.8369 23.3787C47.8668 23.4729 48.1407 23.928 48.4455 24.3901C50.321 27.2334 53.002 29.7667 56.3525 31.8615L56.5738 31.9998L56.5989 34.4064L56.624 36.813L56.9339 37.4394C57.4668 38.517 58.6862 39.4112 60.1721 39.8142C61.0857 40.0619 62.9184 40.0619 63.832 39.8142C65.3179 39.4112 66.5373 38.517 67.0703 37.4394L67.3802 36.8129L67.4264 32.4991L67.4726 28.1853L67.6932 27.3664C67.8908 26.633 68.5634 25.1071 68.8358 24.7746C68.8932 24.7044 69.1065 24.5332 69.3097 24.3941C70.1606 23.8116 71.0739 22.6263 71.6986 21.2937C72.1317 20.3697 72.5248 19.1377 72.4952 18.7966C72.4505 18.2816 71.8627 18.0524 71.5047 18.4103C71.4411 18.4738 71.2714 18.8969 71.1276 19.3506C70.7757 20.46 70.4532 21.1579 69.9263 21.9493C69.0849 23.2137 68.2535 23.7759 66.9526 23.9605C65.9718 24.0997 64.188 23.9488 62.9668 23.6235L62.6589 23.5414V22.0425V20.5436L63.4595 20.3193C64.6327 19.9907 65.2251 19.691 65.528 19.2729C66.4021 18.0667 66.064 16.0026 64.9088 15.4917C64.0957 15.1322 62.7984 15.0039 61.0168 15.1069ZM63.2747 16.367C64.2076 16.4433 64.4637 16.5501 64.6391 16.9361C64.9291 17.5743 64.7555 18.5111 64.3041 18.7445C63.897 18.9549 62.397 19.3616 62.028 19.3616C61.6367 19.3616 60.4484 19.0536 59.8497 18.7971C59.5536 18.6702 59.4544 18.5726 59.3457 18.301C59.1691 17.8597 59.1767 17.3504 59.3664 16.9331C59.4959 16.6481 59.5748 16.5821 59.8922 16.4933C60.3297 16.3708 61.7002 16.2569 62.2895 16.2941C62.5152 16.3083 62.9586 16.3412 63.2747 16.367ZM62.8642 24.8593C64.04 25.1306 64.8144 25.2213 65.9974 25.2259L67.1599 25.2304L67.0337 25.5177C66.9641 25.6757 66.792 26.1585 66.6511 26.5906L66.3949 27.3763L66.0283 27.144C65.143 26.5829 63.8509 26.3281 62.7701 26.5016C62.4154 26.5584 62.0698 26.605 62.0021 26.605C61.9343 26.605 61.5887 26.5584 61.234 26.5016C60.1532 26.3281 58.8611 26.5829 57.9758 27.144L57.6093 27.3763L57.353 26.5906C57.2121 26.1585 57.04 25.6757 56.9706 25.5177L56.8442 25.2304L58.0478 25.2229C59.2731 25.2154 60.304 25.0823 61.3863 24.7919C61.7024 24.7071 62.0164 24.6534 62.0842 24.6727C62.1519 24.6919 62.5029 24.7759 62.8642 24.8593ZM61.033 27.7037L61.3365 27.754L61.3614 30.9776C61.3848 34.0131 61.3954 34.2113 61.5427 34.3739C61.7553 34.6086 62.2488 34.6086 62.4615 34.3739C62.6088 34.2113 62.6194 34.013 62.6428 30.9729L62.6676 27.7446L63.0944 27.6922C64.3855 27.5336 65.9933 28.2985 66.1478 29.1448C66.1751 29.2943 66.1864 31.0232 66.1729 32.987C66.1452 37.0405 66.1714 36.8756 65.4452 37.5868C64.6577 38.3579 63.4664 38.766 62.0021 38.766C60.5121 38.766 59.3493 38.3552 58.5148 37.5342C57.8068 36.8377 57.8146 36.8901 57.8146 32.7646C57.8146 29.9255 57.8374 29.1526 57.9276 28.9419C58.2789 28.1213 59.8262 27.5043 61.033 27.7037Z" fill="black"/>
</svg>
