<svg width="144" height="114" viewBox="0 0 144 114" fill="none" xmlns="http://www.w3.org/2000/svg">
<path d="M20.1287 82.62C20.1287 82.172 20.2007 81.812 20.3447 81.54C20.4967 81.268 20.7007 81.072 20.9567 80.952C21.2127 80.824 21.4967 80.76 21.8087 80.76C22.1207 80.76 22.4007 80.824 22.6487 80.952C22.9047 81.072 23.1087 81.268 23.2607 81.54C23.4127 81.812 23.4887 82.172 23.4887 82.62C23.4887 83.06 23.4127 83.416 23.2607 83.688C23.1087 83.96 22.9047 84.16 22.6487 84.288C22.4007 84.416 22.1207 84.48 21.8087 84.48C21.4967 84.48 21.2127 84.416 20.9567 84.288C20.7007 84.16 20.4967 83.96 20.3447 83.688C20.2007 83.416 20.1287 83.06 20.1287 82.62ZM31.3652 78.5977C32.1582 78.5977 32.8203 78.8555 33.3516 79.3711C33.8867 79.8828 34.1543 80.5234 34.1543 81.293C34.1543 82.0625 33.8887 82.7031 33.3574 83.2148C32.8262 83.7266 32.1621 83.9824 31.3652 83.9824H29.4023V87H28.3535V78.5977H31.3652ZM31.3066 82.9629C31.8223 82.9629 32.2461 82.8047 32.5781 82.4883C32.9102 82.1719 33.0762 81.7734 33.0762 81.293C33.0762 80.8125 32.9102 80.4141 32.5781 80.0977C32.2461 79.7773 31.8223 79.6172 31.3066 79.6172H29.4023V82.9629H31.3066ZM38.5195 80.4844H39.0938V81.4512H38.4316C37.8457 81.4512 37.3906 81.6309 37.0664 81.9902C36.7422 82.3496 36.5801 82.8457 36.5801 83.4785V87H35.5547V80.5195H36.2812L36.4453 81.5039C36.9141 80.8242 37.6055 80.4844 38.5195 80.4844ZM42.8965 87.1406C41.916 87.1406 41.0977 86.8203 40.4414 86.1797C39.7891 85.5352 39.4629 84.7285 39.4629 83.7598C39.4629 83.1191 39.6113 82.541 39.9082 82.0254C40.2051 81.5098 40.6152 81.1074 41.1387 80.8184C41.666 80.5254 42.252 80.3789 42.8965 80.3789C43.541 80.3789 44.125 80.5254 44.6484 80.8184C45.1758 81.1074 45.5879 81.5117 45.8848 82.0312C46.1855 82.5469 46.3359 83.123 46.3359 83.7598C46.3359 84.3965 46.1855 84.9746 45.8848 85.4941C45.5879 86.0098 45.1758 86.4141 44.6484 86.707C44.125 86.9961 43.541 87.1406 42.8965 87.1406ZM41.1797 85.4824C41.6289 85.9316 42.2012 86.1562 42.8965 86.1562C43.5918 86.1562 44.1641 85.9316 44.6133 85.4824C45.0664 85.0293 45.293 84.4551 45.293 83.7598C45.293 83.0645 45.0664 82.4922 44.6133 82.043C44.1641 81.5898 43.5918 81.3633 42.8965 81.3633C42.2012 81.3633 41.6289 81.5898 41.1797 82.043C40.7305 82.4922 40.5059 83.0645 40.5059 83.7598C40.5059 84.4551 40.7305 85.0293 41.1797 85.4824ZM55.0488 80.3789C55.7285 80.3789 56.2773 80.6094 56.6953 81.0703C57.1133 81.5312 57.3223 82.127 57.3223 82.8574V87H56.3086L56.3027 83.1738C56.3027 82.5879 56.1738 82.1309 55.916 81.8027C55.6582 81.4746 55.2988 81.3105 54.8379 81.3105C54.3613 81.3105 53.9531 81.5137 53.6133 81.9199C53.2773 82.3223 53.1094 82.8184 53.1094 83.4082V87H52.1133V83.1738C52.1133 82.5879 51.9844 82.1309 51.7266 81.8027C51.4688 81.4746 51.1055 81.3105 50.6367 81.3105C50.1602 81.3105 49.752 81.5137 49.4121 81.9199C49.0762 82.3223 48.9082 82.8184 48.9082 83.4082V87H47.8828V80.5195H48.6211L48.7852 81.4102C49.0352 81.0859 49.3418 80.834 49.7051 80.6543C50.0723 80.4707 50.459 80.3789 50.8652 80.3789C51.3184 80.3789 51.7168 80.4883 52.0605 80.707C52.4043 80.9258 52.668 81.2266 52.8516 81.6094C53.0938 81.2266 53.4082 80.9258 53.7949 80.707C54.1855 80.4883 54.6035 80.3789 55.0488 80.3789ZM62.209 87.1406C61.2285 87.1406 60.4102 86.8203 59.7539 86.1797C59.1016 85.5352 58.7754 84.7285 58.7754 83.7598C58.7754 83.1191 58.9238 82.541 59.2207 82.0254C59.5176 81.5098 59.9277 81.1074 60.4512 80.8184C60.9785 80.5254 61.5645 80.3789 62.209 80.3789C62.8535 80.3789 63.4375 80.5254 63.9609 80.8184C64.4883 81.1074 64.9004 81.5117 65.1973 82.0312C65.498 82.5469 65.6484 83.123 65.6484 83.7598C65.6484 84.3965 65.498 84.9746 65.1973 85.4941C64.9004 86.0098 64.4883 86.4141 63.9609 86.707C63.4375 86.9961 62.8535 87.1406 62.209 87.1406ZM60.4922 85.4824C60.9414 85.9316 61.5137 86.1562 62.209 86.1562C62.9043 86.1562 63.4766 85.9316 63.9258 85.4824C64.3789 85.0293 64.6055 84.4551 64.6055 83.7598C64.6055 83.0645 64.3789 82.4922 63.9258 82.043C63.4766 81.5898 62.9043 81.3633 62.209 81.3633C61.5137 81.3633 60.9414 81.5898 60.4922 82.043C60.043 82.4922 59.8184 83.0645 59.8184 83.7598C59.8184 84.4551 60.043 85.0293 60.4922 85.4824ZM69.8027 86.0566H70.5059V87H69.668C68.9688 87 68.418 86.7988 68.0156 86.3965C67.6172 85.9902 67.418 85.4355 67.418 84.7324V81.4395H66.2754V81.2578L68.2793 79.1484H68.4375V80.5195H70.4707V81.4395H68.4375V84.7031C68.4375 85.1406 68.5547 85.4766 68.7891 85.7109C69.0234 85.9414 69.3613 86.0566 69.8027 86.0566ZM77.8477 83.7891C77.8477 83.9062 77.8418 84.0273 77.8301 84.1523H72.3047C72.3828 84.7539 72.6289 85.2363 73.043 85.5996C73.4609 85.9629 73.9746 86.1445 74.584 86.1445C75.0293 86.1445 75.4258 86.0469 75.7734 85.8516C76.1211 85.6523 76.3965 85.377 76.5996 85.0254H77.6777C77.4004 85.6934 76.9902 86.2129 76.4473 86.584C75.9082 86.9551 75.2871 87.1406 74.584 87.1406C73.9668 87.1406 73.4043 86.9941 72.8965 86.7012C72.3926 86.4082 71.9961 86.0039 71.707 85.4883C71.4219 84.9727 71.2793 84.3965 71.2793 83.7598C71.2793 83.127 71.4219 82.5527 71.707 82.0371C71.9961 81.5176 72.3926 81.1113 72.8965 80.8184C73.4043 80.5254 73.9668 80.3789 74.584 80.3789C75.2246 80.3789 75.7949 80.5312 76.2949 80.8359C76.7949 81.1406 77.1777 81.5527 77.4434 82.0723C77.7129 82.5879 77.8477 83.1602 77.8477 83.7891ZM74.584 81.3457C73.998 81.3457 73.502 81.5156 73.0957 81.8555C72.6895 82.1914 72.4336 82.6426 72.3281 83.209H76.8281C76.7188 82.6348 76.4609 82.1816 76.0547 81.8496C75.6523 81.5137 75.1621 81.3457 74.584 81.3457ZM87.8672 80.5195H88.5469V86.0918C88.5469 87.1387 88.2637 87.9609 87.6973 88.5586C87.1309 89.1562 86.3555 89.4551 85.3711 89.4551C84.5781 89.4551 83.9121 89.2598 83.373 88.8691C82.834 88.4824 82.4766 87.9434 82.3008 87.252H83.3203C83.4609 87.6504 83.7168 87.9609 84.0879 88.1836C84.4629 88.4102 84.8906 88.5234 85.3711 88.5234C86.0273 88.5234 86.5547 88.3184 86.9531 87.9082C87.3516 87.498 87.5508 86.9375 87.5508 86.2266V85.8281C87.2578 86.1328 86.9082 86.3711 86.502 86.543C86.0957 86.7109 85.6582 86.7949 85.1895 86.7949C84.5996 86.7949 84.0605 86.6543 83.5723 86.373C83.084 86.0918 82.6992 85.707 82.418 85.2188C82.1406 84.7266 82.002 84.1836 82.002 83.5898C82.002 82.9961 82.1406 82.4531 82.418 81.9609C82.6992 81.4688 83.084 81.082 83.5723 80.8008C84.0605 80.5195 84.5996 80.3789 85.1895 80.3789C85.7012 80.3789 86.1738 80.4805 86.6074 80.6836C87.0449 80.8867 87.4121 81.168 87.709 81.5273L87.8672 80.5195ZM83.6836 85.1836C84.1133 85.6055 84.6523 85.8164 85.3008 85.8164C85.9492 85.8164 86.4844 85.6074 86.9062 85.1895C87.3281 84.7676 87.5391 84.2344 87.5391 83.5898C87.5391 82.9453 87.3281 82.4121 86.9062 81.9902C86.4844 81.5684 85.9492 81.3574 85.3008 81.3574C84.6523 81.3574 84.1133 81.5703 83.6836 81.9961C83.2578 82.418 83.0449 82.9492 83.0449 83.5898C83.0449 84.2266 83.2578 84.7578 83.6836 85.1836ZM93.5625 80.4844H94.1367V81.4512H93.4746C92.8887 81.4512 92.4336 81.6309 92.1094 81.9902C91.7852 82.3496 91.623 82.8457 91.623 83.4785V87H90.5977V80.5195H91.3242L91.4883 81.5039C91.957 80.8242 92.6484 80.4844 93.5625 80.4844ZM97.9395 87.1406C96.959 87.1406 96.1406 86.8203 95.4844 86.1797C94.832 85.5352 94.5059 84.7285 94.5059 83.7598C94.5059 83.1191 94.6543 82.541 94.9512 82.0254C95.248 81.5098 95.6582 81.1074 96.1816 80.8184C96.709 80.5254 97.2949 80.3789 97.9395 80.3789C98.584 80.3789 99.168 80.5254 99.6914 80.8184C100.219 81.1074 100.631 81.5117 100.928 82.0312C101.229 82.5469 101.379 83.123 101.379 83.7598C101.379 84.3965 101.229 84.9746 100.928 85.4941C100.631 86.0098 100.219 86.4141 99.6914 86.707C99.168 86.9961 98.584 87.1406 97.9395 87.1406ZM96.2227 85.4824C96.6719 85.9316 97.2441 86.1562 97.9395 86.1562C98.6348 86.1562 99.207 85.9316 99.6562 85.4824C100.109 85.0293 100.336 84.4551 100.336 83.7598C100.336 83.0645 100.109 82.4922 99.6562 82.043C99.207 81.5898 98.6348 81.3633 97.9395 81.3633C97.2441 81.3633 96.6719 81.5898 96.2227 82.043C95.7734 82.4922 95.5488 83.0645 95.5488 83.7598C95.5488 84.4551 95.7734 85.0293 96.2227 85.4824ZM110.736 80.5195H111.768L109.559 87H108.727L106.898 82.582L105.064 87H104.238L102.047 80.5195H103.113L104.725 85.2949L106.711 80.6191H107.08L109.078 85.3359L110.736 80.5195ZM115.705 86.0566H116.408V87H115.57C114.871 87 114.32 86.7988 113.918 86.3965C113.52 85.9902 113.32 85.4355 113.32 84.7324V81.4395H112.178V81.2578L114.182 79.1484H114.34V80.5195H116.373V81.4395H114.34V84.7031C114.34 85.1406 114.457 85.4766 114.691 85.7109C114.926 85.9414 115.264 86.0566 115.705 86.0566ZM121.02 80.3789C121.789 80.3789 122.398 80.627 122.848 81.123C123.297 81.6152 123.521 82.2812 123.521 83.1211V87H122.502V83.3613C122.502 82.7051 122.352 82.1992 122.051 81.8438C121.75 81.4883 121.318 81.3105 120.756 81.3105C120.201 81.3105 119.736 81.5176 119.361 81.9316C118.986 82.3457 118.799 82.8574 118.799 83.4668V87H117.773V78.2051H118.799V81.4043C119.053 81.0801 119.371 80.8281 119.754 80.6484C120.137 80.4688 120.559 80.3789 121.02 80.3789ZM1.26741 102.62C1.26741 102.172 1.33941 101.812 1.48341 101.54C1.63541 101.268 1.83941 101.072 2.09541 100.952C2.35141 100.824 2.63541 100.76 2.94741 100.76C3.25941 100.76 3.53941 100.824 3.78741 100.952C4.04341 101.072 4.24741 101.268 4.39941 101.54C4.55141 101.812 4.62741 102.172 4.62741 102.62C4.62741 103.06 4.55141 103.416 4.39941 103.688C4.24741 103.96 4.04341 104.16 3.78741 104.288C3.53941 104.416 3.25941 104.48 2.94741 104.48C2.63541 104.48 2.35141 104.416 2.09541 104.288C1.83941 104.16 1.63541 103.96 1.48341 103.688C1.33941 103.416 1.26741 103.06 1.26741 102.62ZM10.541 105.992H14.3789V107H9.49219V98.5977H14.25V99.5996H10.541V102.195H13.9336V103.168H10.541V105.992ZM19.248 100.379C20.0176 100.379 20.627 100.627 21.0762 101.123C21.5254 101.615 21.75 102.281 21.75 103.121V107H20.7305V103.361C20.7305 102.705 20.5801 102.199 20.2793 101.844C19.9785 101.488 19.5469 101.311 18.9844 101.311C18.4297 101.311 17.9648 101.518 17.5898 101.932C17.2148 102.346 17.0273 102.857 17.0273 103.467V107H16.002V98.2051H17.0273V101.404C17.2812 101.08 17.5996 100.828 17.9824 100.648C18.3652 100.469 18.7871 100.379 19.248 100.379ZM29.2266 100.52H30.041V107H29.1973L29.0859 106.016C28.7812 106.371 28.4102 106.648 27.9727 106.848C27.5391 107.043 27.0625 107.141 26.543 107.141C25.9141 107.141 25.3438 106.994 24.832 106.701C24.3203 106.408 23.918 106.004 23.625 105.488C23.3359 104.969 23.1914 104.393 23.1914 103.76C23.1914 102.791 23.5098 101.986 24.1465 101.346C24.7871 100.701 25.5859 100.379 26.543 100.379C27.0625 100.379 27.543 100.479 27.9844 100.678C28.4258 100.877 28.7988 101.156 29.1035 101.516L29.2266 100.52ZM24.9141 105.471C25.3672 105.928 25.9355 106.156 26.6191 106.156C27.3027 106.156 27.8691 105.93 28.3184 105.477C28.7715 105.02 28.998 104.447 28.998 103.76C28.998 103.072 28.7715 102.502 28.3184 102.049C27.8691 101.592 27.3027 101.363 26.6191 101.363C25.9355 101.363 25.3672 101.592 24.9141 102.049C24.4609 102.506 24.2344 103.076 24.2344 103.76C24.2344 104.443 24.4609 105.014 24.9141 105.471ZM35.3379 100.379C36.0957 100.379 36.7012 100.635 37.1543 101.146C37.6113 101.658 37.8398 102.316 37.8398 103.121V107H36.8203V103.361C36.8203 102.705 36.6699 102.199 36.3691 101.844C36.0684 101.488 35.6367 101.311 35.0742 101.311C34.5195 101.311 34.0547 101.518 33.6797 101.932C33.3047 102.346 33.1172 102.857 33.1172 103.467V107H32.0918V100.52H32.8184L33.0176 101.533C33.2637 101.17 33.5879 100.887 33.9902 100.684C34.3926 100.48 34.8418 100.379 35.3379 100.379ZM42.6504 107.141C42.0215 107.141 41.4492 106.994 40.9336 106.701C40.418 106.408 40.0137 106.004 39.7207 105.488C39.4277 104.969 39.2812 104.393 39.2812 103.76C39.2812 103.123 39.4277 102.547 39.7207 102.031C40.0137 101.516 40.418 101.111 40.9336 100.818C41.4492 100.525 42.0215 100.379 42.6504 100.379C43.4199 100.379 44.0859 100.59 44.6484 101.012C45.2148 101.434 45.5977 101.998 45.7969 102.705H44.7891C44.5977 102.287 44.3125 101.959 43.9336 101.721C43.5547 101.482 43.127 101.363 42.6504 101.363C41.9863 101.363 41.4316 101.594 40.9863 102.055C40.5449 102.512 40.3242 103.08 40.3242 103.76C40.3242 104.436 40.5469 105.004 40.9922 105.465C41.4375 105.926 41.9902 106.156 42.6504 106.156C43.127 106.156 43.5508 106.035 43.9219 105.793C44.293 105.551 44.5781 105.213 44.7773 104.779H45.8086C45.6094 105.494 45.2227 106.066 44.6484 106.496C44.0781 106.926 43.4121 107.141 42.6504 107.141ZM53.291 103.789C53.291 103.906 53.2852 104.027 53.2734 104.152H47.748C47.8262 104.754 48.0723 105.236 48.4863 105.6C48.9043 105.963 49.418 106.145 50.0273 106.145C50.4727 106.145 50.8691 106.047 51.2168 105.852C51.5645 105.652 51.8398 105.377 52.043 105.025H53.1211C52.8438 105.693 52.4336 106.213 51.8906 106.584C51.3516 106.955 50.7305 107.141 50.0273 107.141C49.4102 107.141 48.8477 106.994 48.3398 106.701C47.8359 106.408 47.4395 106.004 47.1504 105.488C46.8652 104.973 46.7227 104.396 46.7227 103.76C46.7227 103.127 46.8652 102.553 47.1504 102.037C47.4395 101.518 47.8359 101.111 48.3398 100.818C48.8477 100.525 49.4102 100.379 50.0273 100.379C50.668 100.379 51.2383 100.531 51.7383 100.836C52.2383 101.141 52.6211 101.553 52.8867 102.072C53.1562 102.588 53.291 103.16 53.291 103.789ZM50.0273 101.346C49.4414 101.346 48.9453 101.516 48.5391 101.855C48.1328 102.191 47.877 102.643 47.7715 103.209H52.2715C52.1621 102.635 51.9043 102.182 51.498 101.85C51.0957 101.514 50.6055 101.346 50.0273 101.346ZM60.0469 98.2051H61.0664V107H60.2754L60.1406 106.08C59.8359 106.416 59.4688 106.678 59.0391 106.865C58.6094 107.049 58.1445 107.141 57.6445 107.141C56.6758 107.141 55.877 106.82 55.248 106.18C54.6191 105.535 54.3047 104.729 54.3047 103.76C54.3047 103.119 54.4453 102.543 54.7266 102.031C55.0117 101.516 55.4082 101.111 55.916 100.818C56.4277 100.525 57.0039 100.379 57.6445 100.379C58.1211 100.379 58.5645 100.463 58.9746 100.631C59.3848 100.799 59.7422 101.035 60.0469 101.34V98.2051ZM56.0215 105.477C56.4746 105.93 57.043 106.156 57.7266 106.156C58.4102 106.156 58.9785 105.928 59.4316 105.471C59.8848 105.01 60.1113 104.439 60.1113 103.76C60.1113 103.076 59.8848 102.506 59.4316 102.049C58.9785 101.592 58.4102 101.363 57.7266 101.363C57.043 101.363 56.4746 101.592 56.0215 102.049C55.5723 102.502 55.3477 103.072 55.3477 103.76C55.3477 104.447 55.5723 105.02 56.0215 105.477ZM68.3145 107.141C67.5488 107.141 66.9336 106.949 66.4688 106.566C66.0039 106.184 65.7578 105.666 65.7305 105.014H66.7266C66.7539 105.389 66.9141 105.68 67.207 105.887C67.5039 106.094 67.8848 106.197 68.3496 106.197C68.7988 106.197 69.1641 106.107 69.4453 105.928C69.7305 105.748 69.873 105.502 69.873 105.189C69.873 105.068 69.8535 104.959 69.8145 104.861C69.7754 104.764 69.7129 104.682 69.627 104.615C69.541 104.545 69.4551 104.486 69.3691 104.439C69.2832 104.389 69.1641 104.344 69.0117 104.305C68.8633 104.266 68.7344 104.236 68.625 104.217C68.5195 104.193 68.375 104.166 68.1914 104.135C68.0469 104.111 67.9336 104.092 67.8516 104.076C67.7734 104.061 67.6641 104.037 67.5234 104.006C67.3867 103.975 67.2773 103.945 67.1953 103.918C67.1133 103.891 67.0117 103.855 66.8906 103.812C66.7695 103.77 66.6719 103.723 66.5977 103.672C66.5273 103.621 66.4473 103.562 66.3574 103.496C66.2676 103.426 66.1953 103.35 66.1406 103.268C66.0898 103.186 66.0391 103.096 65.9883 102.998C65.9375 102.896 65.9004 102.783 65.877 102.658C65.8574 102.533 65.8477 102.398 65.8477 102.254C65.8477 101.695 66.0723 101.244 66.5215 100.9C66.9707 100.553 67.5605 100.379 68.291 100.379C69.0215 100.379 69.6055 100.561 70.043 100.924C70.4844 101.283 70.7148 101.77 70.7344 102.383H69.7676C69.748 102.031 69.6074 101.762 69.3457 101.574C69.084 101.383 68.7246 101.287 68.2676 101.287C67.8301 101.287 67.4824 101.373 67.2246 101.545C66.9668 101.713 66.8379 101.938 66.8379 102.219C66.8379 102.328 66.8555 102.428 66.8906 102.518C66.9258 102.604 66.9844 102.678 67.0664 102.74C67.1484 102.803 67.2305 102.855 67.3125 102.898C67.3945 102.941 67.5078 102.98 67.6523 103.016C67.7969 103.051 67.9199 103.078 68.0215 103.098C68.123 103.117 68.2656 103.141 68.4492 103.168C69.0898 103.273 69.5488 103.385 69.8262 103.502C70.4668 103.771 70.8145 104.244 70.8691 104.92C70.877 104.994 70.8809 105.068 70.8809 105.143C70.8809 105.748 70.6465 106.232 70.1777 106.596C69.709 106.959 69.0879 107.141 68.3145 107.141ZM72.416 107V98.2051H73.4414V107H72.416ZM81.5449 103.789C81.5449 103.906 81.5391 104.027 81.5273 104.152H76.002C76.0801 104.754 76.3262 105.236 76.7402 105.6C77.1582 105.963 77.6719 106.145 78.2812 106.145C78.7266 106.145 79.123 106.047 79.4707 105.852C79.8184 105.652 80.0938 105.377 80.2969 105.025H81.375C81.0977 105.693 80.6875 106.213 80.1445 106.584C79.6055 106.955 78.9844 107.141 78.2812 107.141C77.6641 107.141 77.1016 106.994 76.5938 106.701C76.0898 106.408 75.6934 106.004 75.4043 105.488C75.1191 104.973 74.9766 104.396 74.9766 103.76C74.9766 103.127 75.1191 102.553 75.4043 102.037C75.6934 101.518 76.0898 101.111 76.5938 100.818C77.1016 100.525 77.6641 100.379 78.2812 100.379C78.9219 100.379 79.4922 100.531 79.9922 100.836C80.4922 101.141 80.875 101.553 81.1406 102.072C81.4102 102.588 81.5449 103.16 81.5449 103.789ZM78.2812 101.346C77.6953 101.346 77.1992 101.516 76.793 101.855C76.3867 102.191 76.1309 102.643 76.0254 103.209H80.5254C80.416 102.635 80.1582 102.182 79.752 101.85C79.3496 101.514 78.8594 101.346 78.2812 101.346ZM89.127 103.789C89.127 103.906 89.1211 104.027 89.1094 104.152H83.584C83.6621 104.754 83.9082 105.236 84.3223 105.6C84.7402 105.963 85.2539 106.145 85.8633 106.145C86.3086 106.145 86.7051 106.047 87.0527 105.852C87.4004 105.652 87.6758 105.377 87.8789 105.025H88.957C88.6797 105.693 88.2695 106.213 87.7266 106.584C87.1875 106.955 86.5664 107.141 85.8633 107.141C85.2461 107.141 84.6836 106.994 84.1758 106.701C83.6719 106.408 83.2754 106.004 82.9863 105.488C82.7012 104.973 82.5586 104.396 82.5586 103.76C82.5586 103.127 82.7012 102.553 82.9863 102.037C83.2754 101.518 83.6719 101.111 84.1758 100.818C84.6836 100.525 85.2461 100.379 85.8633 100.379C86.5039 100.379 87.0742 100.531 87.5742 100.836C88.0742 101.141 88.457 101.553 88.7227 102.072C88.9922 102.588 89.127 103.16 89.127 103.789ZM85.8633 101.346C85.2773 101.346 84.7812 101.516 84.375 101.855C83.9688 102.191 83.7129 102.643 83.6074 103.209H88.1074C87.998 102.635 87.7402 102.182 87.334 101.85C86.9316 101.514 86.4414 101.346 85.8633 101.346ZM94.0957 100.379C94.7324 100.379 95.3047 100.525 95.8125 100.818C96.3203 101.111 96.7148 101.516 96.9961 102.031C97.2812 102.543 97.4238 103.119 97.4238 103.76C97.4238 104.729 97.1094 105.535 96.4805 106.18C95.8516 106.82 95.0566 107.141 94.0957 107.141C93.6191 107.141 93.1719 107.053 92.7539 106.877C92.3398 106.701 91.9805 106.453 91.6758 106.133V109.314H90.6504V100.52H91.3535L91.5586 101.51C91.8633 101.154 92.2344 100.877 92.6719 100.678C93.1094 100.479 93.584 100.379 94.0957 100.379ZM92.3086 105.471C92.7656 105.928 93.3359 106.156 94.0195 106.156C94.7031 106.156 95.2695 105.93 95.7188 105.477C96.168 105.02 96.3926 104.447 96.3926 103.76C96.3926 103.072 96.168 102.502 95.7188 102.049C95.2695 101.592 94.7031 101.363 94.0195 101.363C93.3359 101.363 92.7656 101.592 92.3086 102.049C91.8555 102.506 91.6289 103.076 91.6289 103.76C91.6289 104.443 91.8555 105.014 92.3086 105.471ZM107.672 100.52H108.375V109.314H107.355V106.133C107.051 106.453 106.691 106.701 106.277 106.877C105.863 107.053 105.416 107.141 104.936 107.141C104.463 107.141 104.02 107.055 103.605 106.883C103.191 106.711 102.838 106.477 102.545 106.18C102.252 105.879 102.021 105.52 101.854 105.102C101.686 104.684 101.602 104.236 101.602 103.76C101.602 102.787 101.916 101.98 102.545 101.34C103.178 100.699 103.975 100.379 104.936 100.379C105.447 100.379 105.92 100.479 106.354 100.678C106.791 100.877 107.162 101.154 107.467 101.51L107.672 100.52ZM103.307 105.477C103.76 105.93 104.328 106.156 105.012 106.156C105.695 106.156 106.264 105.928 106.717 105.471C107.17 105.014 107.396 104.443 107.396 103.76C107.396 103.076 107.17 102.506 106.717 102.049C106.264 101.592 105.695 101.363 105.012 101.363C104.328 101.363 103.76 101.592 103.307 102.049C102.857 102.502 102.633 103.072 102.633 103.76C102.633 104.447 102.857 105.02 103.307 105.477ZM113.197 107.141C112.326 107.141 111.629 106.879 111.105 106.355C110.586 105.832 110.326 105.135 110.326 104.264V100.52H111.346V104.1C111.346 104.736 111.512 105.238 111.844 105.605C112.176 105.973 112.627 106.156 113.197 106.156C113.771 106.156 114.223 105.973 114.551 105.605C114.883 105.234 115.049 104.732 115.049 104.1V100.52H116.068V104.264C116.068 105.135 115.809 105.832 115.289 106.355C114.77 106.879 114.072 107.141 113.197 107.141ZM123.539 100.52H124.354V107H123.51L123.398 106.016C123.094 106.371 122.723 106.648 122.285 106.848C121.852 107.043 121.375 107.141 120.855 107.141C120.227 107.141 119.656 106.994 119.145 106.701C118.633 106.408 118.23 106.004 117.938 105.488C117.648 104.969 117.504 104.393 117.504 103.76C117.504 102.791 117.822 101.986 118.459 101.346C119.1 100.701 119.898 100.379 120.855 100.379C121.375 100.379 121.855 100.479 122.297 100.678C122.738 100.877 123.111 101.156 123.416 101.516L123.539 100.52ZM119.227 105.471C119.68 105.928 120.248 106.156 120.932 106.156C121.615 106.156 122.182 105.93 122.631 105.477C123.084 105.02 123.311 104.447 123.311 103.76C123.311 103.072 123.084 102.502 122.631 102.049C122.182 101.592 121.615 101.363 120.932 101.363C120.248 101.363 119.68 101.592 119.227 102.049C118.773 102.506 118.547 103.076 118.547 103.76C118.547 104.443 118.773 105.014 119.227 105.471ZM126.404 107V98.2051H127.43V107H126.404ZM129.434 99.4004V98.2285H130.541V99.4004H129.434ZM129.475 107V100.52H130.5V107H129.475ZM135.234 106.057H135.938V107H135.1C134.4 107 133.85 106.799 133.447 106.396C133.049 105.99 132.85 105.436 132.85 104.732V101.439H131.707V101.258L133.711 99.1484H133.869V100.52H135.902V101.439H133.869V104.703C133.869 105.141 133.986 105.477 134.221 105.711C134.455 105.941 134.793 106.057 135.234 106.057ZM142.043 100.52H143.127L140.039 107.27C139.688 108.039 139.328 108.572 138.961 108.869C138.598 109.166 138.111 109.314 137.502 109.314H136.893V108.389H137.414C137.844 108.389 138.168 108.301 138.387 108.125C138.605 107.949 138.846 107.588 139.107 107.041L139.342 106.561L136.459 100.52H137.572L139.875 105.424L142.043 100.52Z" fill="#262626"/>
<path d="M35.3525 66H32.7617L29.3027 61.2148V66H27.1836V56.1973H29.3027V60.7295L32.5156 56.1973H34.9902L31.6543 60.8936L35.3525 66ZM36.2344 57.4346V55.5342H38.2715V57.4346H36.2344ZM36.2344 66V58.4395H38.2783V66H36.2344ZM45.791 55.7119H47.835V66H46.3242L46.085 65.3711C45.415 65.9408 44.6243 66.2256 43.7129 66.2256C42.569 66.2256 41.6211 65.8451 40.8691 65.084C40.1172 64.3229 39.7412 63.3682 39.7412 62.2197C39.7412 61.6546 39.8415 61.126 40.042 60.6338C40.2425 60.137 40.516 59.7132 40.8623 59.3623C41.2132 59.0114 41.6348 58.7357 42.127 58.5352C42.6191 58.3301 43.1478 58.2275 43.7129 58.2275C44.4831 58.2275 45.1758 58.4349 45.791 58.8496V55.7119ZM42.4072 63.7031C42.7992 64.0951 43.2913 64.291 43.8838 64.291C44.4762 64.291 44.9661 64.0951 45.3535 63.7031C45.7454 63.3066 45.9414 62.8122 45.9414 62.2197C45.9414 61.6273 45.7454 61.1351 45.3535 60.7432C44.9661 60.3467 44.4762 60.1484 43.8838 60.1484C43.2913 60.1484 42.7992 60.3444 42.4072 60.7363C42.0199 61.1283 41.8262 61.6227 41.8262 62.2197C41.8262 62.8167 42.0199 63.3112 42.4072 63.7031ZM65.2939 66H63.1338L62.1699 59.6016L59.2441 65.9795H58.7246L55.7988 59.6084L54.835 66H52.6748L54.2061 56.1973H56.332L58.9844 62.2061L61.6436 56.1973H63.7764L65.2939 66ZM72.8613 58.4258H74.3926V65.9863H72.7861L72.6084 65.3096C71.9202 65.9111 71.1045 66.2119 70.1611 66.2119C69.4137 66.2119 68.737 66.0387 68.1309 65.6924C67.5247 65.346 67.0508 64.8675 66.709 64.2568C66.3672 63.6416 66.1963 62.958 66.1963 62.2061C66.1963 61.4587 66.3672 60.7819 66.709 60.1758C67.0508 59.5651 67.5247 59.0889 68.1309 58.7471C68.737 58.4007 69.4137 58.2275 70.1611 58.2275C71.1227 58.2275 71.9499 58.5352 72.6426 59.1504L72.8613 58.4258ZM68.8486 63.6895C69.2406 64.0814 69.7327 64.2773 70.3252 64.2773C70.9176 64.2773 71.4076 64.0814 71.7949 63.6895C72.1868 63.2975 72.3828 62.8031 72.3828 62.2061C72.3828 61.609 72.1868 61.1146 71.7949 60.7227C71.4076 60.3307 70.9176 60.1348 70.3252 60.1348C69.7327 60.1348 69.2406 60.333 68.8486 60.7295C68.4613 61.1214 68.2676 61.6136 68.2676 62.2061C68.2676 62.7985 68.4613 63.293 68.8486 63.6895ZM79.041 66.2119C78.0931 66.2119 77.3275 65.9658 76.7441 65.4736C76.1654 64.9769 75.8737 64.3229 75.8691 63.5117H77.8584C77.863 63.8353 77.9792 64.0837 78.207 64.2568C78.4395 64.43 78.7448 64.5166 79.123 64.5166C79.4238 64.5166 79.6768 64.4505 79.8818 64.3184C80.0915 64.1862 80.1963 63.9993 80.1963 63.7578C80.1963 63.6348 80.1598 63.5277 80.0869 63.4365C80.0186 63.3454 79.9092 63.2702 79.7588 63.2109C79.6084 63.1471 79.4603 63.0993 79.3145 63.0674C79.1686 63.0309 78.9772 62.9922 78.7402 62.9512C78.526 62.9147 78.346 62.8828 78.2002 62.8555C78.0544 62.8236 77.8766 62.778 77.667 62.7188C77.4619 62.6595 77.2887 62.5957 77.1475 62.5273C77.0062 62.4544 76.8558 62.3587 76.6963 62.2402C76.5413 62.1217 76.416 61.9919 76.3203 61.8506C76.2292 61.7048 76.1517 61.5293 76.0879 61.3242C76.0286 61.1191 75.999 60.8936 75.999 60.6475C75.999 59.932 76.2793 59.3509 76.8398 58.9043C77.4004 58.4531 78.1341 58.2275 79.041 58.2275C79.9525 58.2275 80.6839 58.46 81.2354 58.9248C81.7868 59.3851 82.0648 59.9935 82.0693 60.75H80.1279C80.1234 60.4538 80.0208 60.2305 79.8203 60.0801C79.6243 59.9297 79.3464 59.8545 78.9863 59.8545C78.6719 59.8545 78.4235 59.9206 78.2412 60.0527C78.0635 60.1849 77.9746 60.3604 77.9746 60.5791C77.9746 60.6611 77.9883 60.7363 78.0156 60.8047C78.0475 60.8685 78.0999 60.9255 78.1729 60.9756C78.2503 61.0212 78.321 61.0622 78.3848 61.0986C78.4531 61.1305 78.5534 61.1647 78.6855 61.2012C78.8223 61.2331 78.9316 61.2581 79.0137 61.2764C79.1003 61.29 79.2301 61.3128 79.4033 61.3447C80.137 61.4769 80.6657 61.6136 80.9893 61.7549C81.805 62.1195 82.2129 62.7575 82.2129 63.6689C82.2129 64.4391 81.9235 65.0566 81.3447 65.5215C80.766 65.9818 79.998 66.2119 79.041 66.2119ZM86.3965 66.2119C85.4486 66.2119 84.6829 65.9658 84.0996 65.4736C83.5208 64.9769 83.2292 64.3229 83.2246 63.5117H85.2139C85.2184 63.8353 85.3346 64.0837 85.5625 64.2568C85.7949 64.43 86.1003 64.5166 86.4785 64.5166C86.7793 64.5166 87.0322 64.4505 87.2373 64.3184C87.4469 64.1862 87.5518 63.9993 87.5518 63.7578C87.5518 63.6348 87.5153 63.5277 87.4424 63.4365C87.374 63.3454 87.2646 63.2702 87.1143 63.2109C86.9639 63.1471 86.8158 63.0993 86.6699 63.0674C86.5241 63.0309 86.3327 62.9922 86.0957 62.9512C85.8815 62.9147 85.7015 62.8828 85.5557 62.8555C85.4098 62.8236 85.2321 62.778 85.0225 62.7188C84.8174 62.6595 84.6442 62.5957 84.5029 62.5273C84.3617 62.4544 84.2113 62.3587 84.0518 62.2402C83.8968 62.1217 83.7715 61.9919 83.6758 61.8506C83.5846 61.7048 83.5072 61.5293 83.4434 61.3242C83.3841 61.1191 83.3545 60.8936 83.3545 60.6475C83.3545 59.932 83.6348 59.3509 84.1953 58.9043C84.7559 58.4531 85.4896 58.2275 86.3965 58.2275C87.3079 58.2275 88.0394 58.46 88.5908 58.9248C89.1423 59.3851 89.4202 59.9935 89.4248 60.75H87.4834C87.4788 60.4538 87.3763 60.2305 87.1758 60.0801C86.9798 59.9297 86.7018 59.8545 86.3418 59.8545C86.0273 59.8545 85.779 59.9206 85.5967 60.0527C85.4189 60.1849 85.3301 60.3604 85.3301 60.5791C85.3301 60.6611 85.3438 60.7363 85.3711 60.8047C85.403 60.8685 85.4554 60.9255 85.5283 60.9756C85.6058 61.0212 85.6764 61.0622 85.7402 61.0986C85.8086 61.1305 85.9089 61.1647 86.041 61.2012C86.1777 61.2331 86.2871 61.2581 86.3691 61.2764C86.4557 61.29 86.5856 61.3128 86.7588 61.3447C87.4925 61.4769 88.0212 61.6136 88.3447 61.7549C89.1605 62.1195 89.5684 62.7575 89.5684 63.6689C89.5684 64.4391 89.279 65.0566 88.7002 65.5215C88.1214 65.9818 87.3535 66.2119 86.3965 66.2119ZM97.2383 58.4258H98.7695V65.9863H97.1631L96.9854 65.3096C96.2972 65.9111 95.4814 66.2119 94.5381 66.2119C93.7907 66.2119 93.1139 66.0387 92.5078 65.6924C91.9017 65.346 91.4277 64.8675 91.0859 64.2568C90.7441 63.6416 90.5732 62.958 90.5732 62.2061C90.5732 61.4587 90.7441 60.7819 91.0859 60.1758C91.4277 59.5651 91.9017 59.0889 92.5078 58.7471C93.1139 58.4007 93.7907 58.2275 94.5381 58.2275C95.4997 58.2275 96.3268 58.5352 97.0195 59.1504L97.2383 58.4258ZM93.2256 63.6895C93.6175 64.0814 94.1097 64.2773 94.7021 64.2773C95.2946 64.2773 95.7845 64.0814 96.1719 63.6895C96.5638 63.2975 96.7598 62.8031 96.7598 62.2061C96.7598 61.609 96.5638 61.1146 96.1719 60.7227C95.7845 60.3307 95.2946 60.1348 94.7021 60.1348C94.1097 60.1348 93.6175 60.333 93.2256 60.7295C92.8382 61.1214 92.6445 61.6136 92.6445 62.2061C92.6445 62.7985 92.8382 63.293 93.2256 63.6895ZM106.836 58.4395H108.162V65.125C108.162 66.3053 107.818 67.235 107.13 67.9141C106.442 68.5977 105.498 68.9395 104.3 68.9395C103.274 68.9395 102.42 68.6934 101.736 68.2012C101.053 67.709 100.624 67.0299 100.451 66.1641H102.481C102.591 66.4876 102.814 66.7383 103.151 66.916C103.493 67.0983 103.865 67.1895 104.266 67.1895C104.799 67.1895 105.248 67.0277 105.612 66.7041C105.977 66.3851 106.159 65.9567 106.159 65.4189V65.1318C105.517 65.583 104.797 65.8086 103.999 65.8086C103.306 65.8086 102.671 65.6423 102.092 65.3096C101.518 64.9769 101.064 64.5212 100.731 63.9424C100.403 63.359 100.239 62.7188 100.239 62.0215C100.239 61.3288 100.403 60.693 100.731 60.1143C101.064 59.5309 101.518 59.0706 102.092 58.7334C102.671 58.3962 103.306 58.2275 103.999 58.2275C104.979 58.2275 105.815 58.5488 106.508 59.1914L106.836 58.4395ZM104.238 63.9834C104.794 63.9834 105.255 63.7988 105.619 63.4297C105.984 63.056 106.166 62.5866 106.166 62.0215C106.166 61.4609 105.984 60.9984 105.619 60.6338C105.259 60.2646 104.799 60.0801 104.238 60.0801C103.682 60.0801 103.222 60.2646 102.857 60.6338C102.493 60.9984 102.311 61.4609 102.311 62.0215C102.311 62.5866 102.491 63.056 102.851 63.4297C103.215 63.7988 103.678 63.9834 104.238 63.9834ZM117.466 62.1924C117.466 62.3975 117.452 62.598 117.425 62.7939H111.703C111.79 63.3089 111.995 63.7054 112.318 63.9834C112.646 64.2568 113.059 64.3936 113.556 64.3936C113.907 64.3936 114.221 64.3161 114.499 64.1611C114.782 64.0062 115 63.792 115.155 63.5186H117.302C117.028 64.3434 116.554 64.9997 115.88 65.4873C115.205 65.9704 114.431 66.2119 113.556 66.2119C112.822 66.2119 112.154 66.0387 111.553 65.6924C110.956 65.3415 110.486 64.8607 110.145 64.25C109.803 63.6393 109.632 62.9626 109.632 62.2197C109.632 61.4723 109.8 60.7933 110.138 60.1826C110.479 59.5719 110.949 59.0934 111.546 58.7471C112.147 58.4007 112.817 58.2275 113.556 58.2275C114.312 58.2275 114.991 58.4076 115.593 58.7676C116.194 59.123 116.657 59.6016 116.98 60.2031C117.304 60.8047 117.466 61.4678 117.466 62.1924ZM113.556 59.9707C113.104 59.9707 112.722 60.096 112.407 60.3467C112.093 60.5973 111.876 60.9482 111.758 61.3994H115.422C115.281 60.9391 115.048 60.5859 114.725 60.3398C114.406 60.0938 114.016 59.9707 113.556 59.9707Z" fill="#11346F"/>
<path d="M69.5 9H64H63.5V7.5L64 3.5L67 1.5L70.5 0.5L74.5 1C74.8333 1.16667 75.8 1.7 77 2.5C78.2 3.3 78.8333 5.5 79 6.5V9H76.5L72.5 7L69.5 9Z" fill="#197AFF"/>
<path fill-rule="evenodd" clip-rule="evenodd" d="M69.2461 0.0392477C69.1429 0.0553575 68.8049 0.121281 68.4952 0.185795C66.356 0.631375 64.4102 2.16901 63.4674 4.15875C62.94 5.27189 62.8472 5.71427 62.8076 7.30231L62.7723 8.71285L62.3764 9.06318C61.9091 9.47662 61.6991 9.8804 61.6264 10.505C61.5752 10.9458 61.5672 10.9592 61.3863 10.9114C61.2442 10.8739 61.1676 10.7699 61.0684 10.4802C60.647 9.24959 59.2573 8.6545 58.1429 9.2274C57.823 9.39198 57.373 9.87416 57.203 10.2347C56.9859 10.6952 56.923 12.6175 57.1128 12.9935C57.1793 13.1254 57.3012 13.5603 57.3836 13.96C57.9521 16.7179 59.7644 19.1163 62.2433 20.3913C62.9805 20.7704 63.2802 20.8844 64.2147 21.1406L64.9281 21.3362L64.9656 29.0185C64.9863 33.2438 65.0305 36.7426 65.0639 36.7936C65.1121 36.8673 64.5082 36.8864 62.1306 36.8864C59.2211 36.8864 59.1317 36.8907 58.9721 37.0378C58.7512 37.2413 58.7512 37.6451 58.9721 37.8486C59.1362 37.9998 59.1559 38 72.3667 38H85.5969L85.7948 37.8461C86.0684 37.6333 86.0684 37.2531 85.7948 37.0403C85.6018 36.8903 85.5194 36.8864 82.4994 36.8864H79.4019L79.5023 36.608C79.7352 35.9628 79.5753 35.1296 79.117 34.6002C78.8422 34.2828 78.1932 33.9169 77.905 33.9169H77.732V29.8067C77.732 25.7609 77.7296 25.6933 77.5763 25.5008C77.3813 25.2557 76.9794 25.2326 76.7558 25.4537C76.621 25.5869 76.6056 25.7011 76.6056 26.5672V27.5324H71.351H66.0964L66.0755 24.0823C66.0508 20.0192 66.1527 20.4006 65.0328 20.1821C63.3024 19.8446 62.0773 19.1916 60.7936 17.9226C60.0179 17.1557 59.6349 16.6453 59.203 15.8026C58.9194 15.2493 58.5231 14.081 58.4569 13.6033L58.4118 13.2785H59.3593H60.3068L60.3524 13.4827C60.5102 14.1884 60.9688 15.2274 61.3355 15.7098C61.4859 15.9078 61.57 15.9511 61.8038 15.9511C62.3235 15.9511 62.5074 15.558 62.2214 15.0585C61.9119 14.518 61.6685 13.9938 61.5569 13.6272L61.4524 13.2837L61.7141 13.131L61.9758 12.9784L62.2466 13.2134C62.5864 13.5084 63.017 13.6952 63.5031 13.7584L63.8805 13.8076L64.1354 14.3678C64.6214 15.4353 65.4471 16.4678 66.24 16.9996C66.4456 17.1375 66.6147 17.2754 66.6158 17.306C66.6228 17.5068 65.1197 17.2007 64.3645 16.8475C63.775 16.5718 63.6607 16.5663 63.4228 16.8015C63.1628 17.0585 63.1782 17.3726 63.4623 17.609C63.9689 18.0303 65.5552 18.4752 66.551 18.4752C67.0884 18.4752 67.093 18.4735 67.3791 18.1671L67.6668 17.8591L68.2124 18.0138C68.5125 18.0989 68.866 18.1897 68.9979 18.2155C69.1842 18.252 69.256 18.3171 69.3193 18.5066C69.447 18.889 69.886 19.3377 70.3557 19.5657C71.4254 20.085 72.7337 19.6232 73.2153 18.5562C73.3603 18.2351 73.3772 18.2242 74.1019 17.9845L74.8408 17.7401L75.2163 18.1364C75.7127 18.6603 76.1142 19.3426 76.3552 20.0714C76.5297 20.5991 76.5556 20.8174 76.5879 22.0294C76.6201 23.2353 76.6406 23.4097 76.7652 23.5327C76.9794 23.7445 77.3855 23.7163 77.5763 23.4763C77.7169 23.2998 77.732 23.1803 77.732 22.2491C77.732 21.4869 77.7566 21.2106 77.8259 21.1916C80.1466 20.5542 81.9914 19.307 83.2949 17.4942C84.0443 16.4522 84.769 14.7212 84.9121 13.6321C84.9403 13.4172 85.026 13.1617 85.1025 13.0643C85.2242 12.9096 85.2415 12.7459 85.24 11.7652C85.2386 10.7987 85.2173 10.597 85.0861 10.3111C84.7655 9.61247 84.3021 9.22331 83.5786 9.04492C82.5967 8.8029 81.457 9.52925 81.1685 10.581C81.0982 10.8371 81.0475 10.8953 80.8723 10.9207C80.67 10.9501 80.6608 10.9383 80.6603 10.6488C80.6594 9.98174 80.2975 9.2784 79.7982 8.97335L79.5343 8.81211V7.71456C79.5343 6.71664 79.5202 6.59935 79.3787 6.42147C79.1836 6.17634 78.7817 6.15325 78.5581 6.37433C78.4216 6.5093 78.4079 6.62177 78.4079 7.60981V8.69681L77.4129 8.65457C76.2733 8.60624 75.5762 8.44106 74.7917 8.03356C74.1604 7.70558 73.4919 7.10974 73.1511 6.57114C72.711 5.87552 72.3003 5.84041 71.9021 6.46431C71.3841 7.27581 70.4688 8.00105 69.5705 8.31159C68.6763 8.62079 68.1323 8.67573 65.9655 8.67573H63.8997L63.9291 7.35799C63.9572 6.10314 63.9703 6.00663 64.2032 5.33499C64.5563 4.31636 64.9516 3.69914 65.7483 2.92223C66.6608 2.03248 67.3954 1.61519 68.6544 1.27131C69.3796 1.07332 72.9548 1.07881 73.7144 1.27918C75.2744 1.69069 76.6928 2.72134 77.4703 4.00864C77.8791 4.68525 77.9397 4.74108 78.2651 4.74108C78.7673 4.74108 78.9171 4.32928 78.624 3.75445C78.1405 2.80612 76.9826 1.61704 75.9424 1.00094C75.2162 0.570871 74.0922 0.177554 73.2771 0.0684235C72.732 -0.00455308 69.6697 -0.0266762 69.2461 0.0392477ZM73.0816 8.18479C74.0654 9.09978 75.4002 9.64187 76.9688 9.76362L77.5948 9.81217L77.565 11.3041C77.5374 12.6777 77.5193 12.843 77.3351 13.3899C76.8088 14.9528 75.5074 16.3082 74.0042 16.8591C73.1704 17.1645 72.524 17.2322 70.7821 17.196C69.4046 17.1673 69.1431 17.1422 68.6829 16.9941C67.118 16.4905 65.9316 15.497 65.2656 14.1323C64.8019 13.1819 64.73 12.8208 64.6865 11.2264L64.6477 9.80534L66.6654 9.7709C68.4249 9.7409 68.7597 9.71611 69.2837 9.57654C70.4109 9.27639 71.7427 8.51159 72.2238 7.88813C72.3306 7.74968 72.4346 7.63639 72.4549 7.63639C72.4753 7.63639 72.7573 7.88316 73.0816 8.18479ZM63.554 11.2184C63.5711 12.0044 63.5832 12.6508 63.5808 12.6548C63.5784 12.6589 63.4685 12.6335 63.3367 12.5982C62.9491 12.4946 62.7672 12.1639 62.7279 11.4911C62.6793 10.6613 62.7575 10.2533 63.0138 9.99992C63.1309 9.88411 63.2934 9.78931 63.3747 9.78931C63.5156 9.78931 63.5241 9.85679 63.554 11.2184ZM79.2628 9.98656C79.5279 10.2486 79.5524 10.377 79.5223 11.3492L79.4968 12.1774L79.2515 12.3939C79.1167 12.513 78.9393 12.6104 78.8573 12.6104C78.7139 12.6104 78.7083 12.5571 78.7083 11.1998V9.78931H78.8858C78.9834 9.78931 79.1531 9.87802 79.2628 9.98656ZM59.6177 10.2926C59.8685 10.4551 60.02 10.7905 60.0653 11.2837C60.1148 11.8249 60.249 11.956 60.7989 12.0011C61.0255 12.0197 61.2108 12.0641 61.2108 12.0999C61.2108 12.1357 60.518 12.1649 59.6713 12.1649H58.1318V11.5078C58.1318 10.9481 58.1571 10.8131 58.3023 10.5984C58.6276 10.1169 59.1566 9.99398 59.6177 10.2926ZM83.6942 10.2773C84.0249 10.5046 84.1143 10.7597 84.1147 11.4782L84.1152 12.1649H82.5758C81.5995 12.1649 81.0363 12.1378 81.0363 12.0907C81.0363 12.0499 81.2034 12.0165 81.4075 12.0165C81.9709 12.0165 82.1753 11.809 82.2423 11.1694C82.2814 10.7962 82.3388 10.6245 82.4726 10.4811C82.8269 10.1014 83.319 10.0193 83.6942 10.2773ZM67.4781 10.5527C67.1448 10.8361 67.1264 11.777 67.448 12.0949C67.6371 12.2818 68.0035 12.2798 68.1948 12.0907C68.3212 11.9657 68.345 11.8433 68.345 11.3166C68.345 10.7291 68.3329 10.6816 68.1471 10.5371C67.8922 10.3389 67.725 10.3428 67.4781 10.5527ZM74.0865 10.5655C73.9231 10.7269 73.9021 10.8119 73.9021 11.3112C73.9021 11.8105 73.9231 11.8955 74.0865 12.0569C74.3214 12.2892 74.6093 12.2892 74.8442 12.0569C75.0075 11.8955 75.0286 11.8105 75.0286 11.3112C75.0286 10.8119 75.0075 10.7269 74.8442 10.5655C74.7428 10.4653 74.5723 10.3832 74.4653 10.3832C74.3583 10.3832 74.1878 10.4653 74.0865 10.5655ZM71.0961 11.0568C70.9423 11.1763 70.8982 11.2756 70.8982 11.5022C70.8982 11.735 70.8706 11.7938 70.7611 11.7938C70.5617 11.7938 70.2975 12.1051 70.2975 12.3401C70.2975 12.8606 71.0475 13.0929 71.5818 12.7377C72.1302 12.3732 72.1916 11.218 71.675 10.9853C71.4176 10.8694 71.3219 10.8812 71.0961 11.0568ZM80.5367 13.1291C80.7269 13.2231 80.7459 13.2638 80.7082 13.4979C80.685 13.6427 80.5083 14.0759 80.3156 14.4608C79.5821 15.926 78.1513 16.9781 76.4757 17.2843C76.1367 17.3462 76.0276 17.3418 75.9477 17.2628C75.8635 17.1796 75.9124 17.1096 76.246 16.8356C77.091 16.1417 77.6376 15.4384 78.1154 14.4305L78.4086 13.812L78.8025 13.7607C79.3188 13.6934 79.7448 13.5015 80.0189 13.2128C80.1408 13.0843 80.2591 12.9891 80.2817 13.0013C80.3044 13.0135 80.4191 13.071 80.5367 13.1291ZM69.0539 13.4319C68.8696 13.6332 68.8909 14.2107 69.0999 14.6793C69.7037 16.0329 71.513 16.4197 72.6451 15.4371C72.9977 15.131 73.2988 14.5206 73.3529 14.0019C73.3894 13.652 73.3728 13.5719 73.2358 13.4364C72.8844 13.0891 72.25 13.3364 72.25 13.8206C72.25 14.4188 71.5772 14.9755 70.9757 14.875C70.4577 14.7885 70.1419 14.4399 70.0316 13.8327C70.0021 13.6708 69.9264 13.4799 69.8633 13.4084C69.6996 13.2231 69.2327 13.2366 69.0539 13.4319ZM83.8143 13.3713C83.8127 13.6473 83.4836 14.7573 83.2334 15.3301C82.338 17.381 80.5511 19.0767 78.5202 19.8032C77.5163 20.1623 77.5301 20.1614 77.4687 19.8734C77.4397 19.7373 77.2844 19.3457 77.1234 19.0032C76.9625 18.6607 76.8309 18.3721 76.8309 18.3619C76.8309 18.3516 76.9576 18.3199 77.1125 18.2913C78.1135 18.1067 79.353 17.3871 80.2261 16.4837C81.0478 15.6335 81.5943 14.6229 81.9093 13.3713C81.9265 13.3032 82.1834 13.2785 82.8738 13.2785C83.5769 13.2785 83.8147 13.302 83.8143 13.3713ZM71.9527 18.4343C71.7042 18.7304 71.0306 18.7519 70.673 18.4752L70.4852 18.33L71.2641 18.3284C71.9359 18.327 72.0306 18.3415 71.9527 18.4343ZM71.858 20.5562C71.3869 20.6346 70.7317 20.9377 70.2403 21.3044L69.8405 21.6028L69.3019 21.2622C68.3881 20.6843 68.0183 20.6642 67.6383 21.172C67.4913 21.3684 67.4813 21.4766 67.4813 22.8794C67.4813 24.5362 67.5155 24.6739 67.9736 24.8615C68.2874 24.9899 68.5813 24.9098 69.2043 24.5259C69.5027 24.342 69.7883 24.1916 69.8389 24.1916C69.8895 24.1916 70.0854 24.3082 70.274 24.4506C70.7481 24.8085 71.3503 25.0771 71.8885 25.1708C73.1451 25.3896 74.7166 24.6641 75.1821 23.6503C75.346 23.2936 75.3741 22.6372 75.2419 22.2539C74.8521 21.1233 73.2573 20.3233 71.858 20.5562ZM73.4281 21.899C73.951 22.1451 74.2026 22.4588 74.2022 22.8641C74.2016 23.4036 73.7609 23.8004 72.9282 24.0113C72.1741 24.2022 71.5618 24.0476 70.8607 23.4889C70.4177 23.1359 70.2389 23.0609 69.8412 23.0609C69.5772 23.0609 69.3744 23.122 69.0735 23.2922C68.8486 23.4194 68.6434 23.5235 68.6174 23.5235C68.5915 23.5235 68.5702 23.2228 68.5702 22.8553C68.5702 22.4878 68.5823 22.1872 68.5971 22.1872C68.6119 22.1872 68.8509 22.3041 69.1283 22.447C69.4056 22.5899 69.7095 22.7068 69.8036 22.7068C70.0982 22.7068 70.4715 22.5422 70.8544 22.2435C71.3213 21.8792 71.5803 21.7472 71.9741 21.6728C72.4461 21.5838 72.9119 21.6562 73.4281 21.899ZM72.7983 22.3728C72.5769 22.5261 72.5134 22.8663 72.6555 23.1379C72.9442 23.6898 73.6768 23.4704 73.6768 22.832C73.6768 22.346 73.1983 22.0959 72.7983 22.3728ZM76.6056 29.0542V29.4626H71.3488H66.0921V29.0542V28.6459H71.3488H76.6056V29.0542ZM68.7204 30.9844V31.3928H67.4063H66.0921V30.9844V30.5761H67.4063H68.7204V30.9844ZM76.6056 30.9844V31.3928H75.2538H73.9021V30.9844V30.5761H75.2538H76.6056V30.9844ZM72.7902 33.8241C72.8075 35.8754 72.8372 36.5938 72.9097 36.7194L73.0062 36.8864H72.3572C71.7681 36.8864 71.7133 36.8745 71.7637 36.7565C72.2743 35.5614 71.5393 34.1795 70.2529 33.9155L69.8469 33.8321V32.4639V31.0958H71.3071H72.7672L72.7902 33.8241ZM68.7204 32.9147V33.323H67.4063H66.0921V32.9147V32.5063H67.4063H68.7204V32.9147ZM76.6056 32.9147V33.323H75.2538H73.9021V32.9147V32.5063H75.2538H76.6056V32.9147ZM68.8343 34.6807C68.9777 34.9066 69.0152 34.9212 69.5477 34.9602C70.0403 34.9963 70.4477 35.1133 70.4477 35.2187C70.4477 35.2377 69.4677 35.2532 68.2699 35.2532H66.0921V34.8449V34.4365L67.3875 34.4394L68.6829 34.4423L68.8343 34.6807ZM76.6056 34.535C76.6056 34.7567 76.9385 34.9371 77.4227 34.9778C77.7128 35.0022 77.9488 35.0645 78.0208 35.1357C78.1293 35.2429 77.9536 35.2532 76.0209 35.2532H73.9021V34.8449V34.4365H75.2538C76.3263 34.4365 76.6056 34.4569 76.6056 34.535ZM70.6557 36.455C70.6393 36.5036 70.5327 36.6122 70.4188 36.6963C70.2255 36.8391 70.093 36.8508 68.4249 36.8716L66.6381 36.8938L66.4027 36.6979C66.2731 36.5902 66.1672 36.4716 66.1672 36.4344C66.1672 36.3952 67.1172 36.3668 68.4263 36.3668C70.1386 36.3668 70.6783 36.3881 70.6557 36.455ZM78.3145 36.4595C78.2976 36.5106 78.1714 36.6275 78.0343 36.7194C77.7949 36.8797 77.7205 36.8864 76.1777 36.8864C74.4712 36.8864 74.2304 36.8443 74.0518 36.5145C73.9729 36.3686 73.999 36.3668 76.1586 36.3668C77.8743 36.3668 78.3387 36.3867 78.3145 36.4595Z" fill="black"/>
</svg>
