<svg width="149" height="132" viewBox="0 0 149 132" fill="none" xmlns="http://www.w3.org/2000/svg">
<path d="M28.3311 56.1973H30.4502V66H28.3311V61.9463H24.6396V66H22.5205V56.1973H24.6396V59.9775H28.3311V56.1973ZM39.7812 62.1924C39.7812 62.3975 39.7676 62.598 39.7402 62.7939H34.0186C34.1051 63.3089 34.3102 63.7054 34.6338 63.9834C34.9619 64.2568 35.3743 64.3936 35.8711 64.3936C36.222 64.3936 36.5365 64.3161 36.8145 64.1611C37.097 64.0062 37.3158 63.792 37.4707 63.5186H39.6172C39.3438 64.3434 38.8698 64.9997 38.1953 65.4873C37.5208 65.9704 36.7461 66.2119 35.8711 66.2119C35.1374 66.2119 34.4697 66.0387 33.8682 65.6924C33.2712 65.3415 32.8018 64.8607 32.46 64.25C32.1182 63.6393 31.9473 62.9626 31.9473 62.2197C31.9473 61.4723 32.1159 60.7933 32.4531 60.1826C32.7949 59.5719 33.2643 59.0934 33.8613 58.7471C34.4629 58.4007 35.1328 58.2275 35.8711 58.2275C36.6276 58.2275 37.3066 58.4076 37.9082 58.7676C38.5098 59.123 38.9723 59.6016 39.2959 60.2031C39.6195 60.8047 39.7812 61.4678 39.7812 62.1924ZM35.8711 59.9707C35.4199 59.9707 35.0371 60.096 34.7227 60.3467C34.4082 60.5973 34.1917 60.9482 34.0732 61.3994H37.7373C37.596 60.9391 37.3636 60.5859 37.04 60.3398C36.721 60.0938 36.3314 59.9707 35.8711 59.9707ZM47.4033 58.4258H48.9346V65.9863H47.3281L47.1504 65.3096C46.4622 65.9111 45.6465 66.2119 44.7031 66.2119C43.9557 66.2119 43.279 66.0387 42.6729 65.6924C42.0667 65.346 41.5928 64.8675 41.251 64.2568C40.9092 63.6416 40.7383 62.958 40.7383 62.2061C40.7383 61.4587 40.9092 60.7819 41.251 60.1758C41.5928 59.5651 42.0667 59.0889 42.6729 58.7471C43.279 58.4007 43.9557 58.2275 44.7031 58.2275C45.6647 58.2275 46.4919 58.5352 47.1846 59.1504L47.4033 58.4258ZM43.3906 63.6895C43.7826 64.0814 44.2747 64.2773 44.8672 64.2773C45.4596 64.2773 45.9495 64.0814 46.3369 63.6895C46.7288 63.2975 46.9248 62.8031 46.9248 62.2061C46.9248 61.609 46.7288 61.1146 46.3369 60.7227C45.9495 60.3307 45.4596 60.1348 44.8672 60.1348C44.2747 60.1348 43.7826 60.333 43.3906 60.7295C43.0033 61.1214 42.8096 61.6136 42.8096 62.2061C42.8096 62.7985 43.0033 63.293 43.3906 63.6895ZM56.4541 55.7119H58.498V66H56.9873L56.748 65.3711C56.0781 65.9408 55.2874 66.2256 54.376 66.2256C53.2321 66.2256 52.2842 65.8451 51.5322 65.084C50.7803 64.3229 50.4043 63.3682 50.4043 62.2197C50.4043 61.6546 50.5046 61.126 50.7051 60.6338C50.9056 60.137 51.179 59.7132 51.5254 59.3623C51.8763 59.0114 52.2979 58.7357 52.79 58.5352C53.2822 58.3301 53.8109 58.2275 54.376 58.2275C55.1462 58.2275 55.8389 58.4349 56.4541 58.8496V55.7119ZM53.0703 63.7031C53.4622 64.0951 53.9544 64.291 54.5469 64.291C55.1393 64.291 55.6292 64.0951 56.0166 63.7031C56.4085 63.3066 56.6045 62.8122 56.6045 62.2197C56.6045 61.6273 56.4085 61.1351 56.0166 60.7432C55.6292 60.3467 55.1393 60.1484 54.5469 60.1484C53.9544 60.1484 53.4622 60.3444 53.0703 60.7363C52.6829 61.1283 52.4893 61.6227 52.4893 62.2197C52.4893 62.8167 52.6829 63.3112 53.0703 63.7031ZM75.957 66H73.7969L72.833 59.6016L69.9072 65.9795H69.3877L66.4619 59.6084L65.498 66H63.3379L64.8691 56.1973H66.9951L69.6475 62.2061L72.3066 56.1973H74.4395L75.957 66ZM83.5244 58.4258H85.0557V65.9863H83.4492L83.2715 65.3096C82.5833 65.9111 81.7676 66.2119 80.8242 66.2119C80.0768 66.2119 79.4001 66.0387 78.7939 65.6924C78.1878 65.346 77.7139 64.8675 77.3721 64.2568C77.0303 63.6416 76.8594 62.958 76.8594 62.2061C76.8594 61.4587 77.0303 60.7819 77.3721 60.1758C77.7139 59.5651 78.1878 59.0889 78.7939 58.7471C79.4001 58.4007 80.0768 58.2275 80.8242 58.2275C81.7858 58.2275 82.613 58.5352 83.3057 59.1504L83.5244 58.4258ZM79.5117 63.6895C79.9036 64.0814 80.3958 64.2773 80.9883 64.2773C81.5807 64.2773 82.0706 64.0814 82.458 63.6895C82.8499 63.2975 83.0459 62.8031 83.0459 62.2061C83.0459 61.609 82.8499 61.1146 82.458 60.7227C82.0706 60.3307 81.5807 60.1348 80.9883 60.1348C80.3958 60.1348 79.9036 60.333 79.5117 60.7295C79.1243 61.1214 78.9307 61.6136 78.9307 62.2061C78.9307 62.7985 79.1243 63.293 79.5117 63.6895ZM89.7041 66.2119C88.7562 66.2119 87.9906 65.9658 87.4072 65.4736C86.8285 64.9769 86.5368 64.3229 86.5322 63.5117H88.5215C88.526 63.8353 88.6423 64.0837 88.8701 64.2568C89.1025 64.43 89.4079 64.5166 89.7861 64.5166C90.0869 64.5166 90.3398 64.4505 90.5449 64.3184C90.7546 64.1862 90.8594 63.9993 90.8594 63.7578C90.8594 63.6348 90.8229 63.5277 90.75 63.4365C90.6816 63.3454 90.5723 63.2702 90.4219 63.2109C90.2715 63.1471 90.1234 63.0993 89.9775 63.0674C89.8317 63.0309 89.6403 62.9922 89.4033 62.9512C89.1891 62.9147 89.0091 62.8828 88.8633 62.8555C88.7174 62.8236 88.5397 62.778 88.3301 62.7188C88.125 62.6595 87.9518 62.5957 87.8105 62.5273C87.6693 62.4544 87.5189 62.3587 87.3594 62.2402C87.2044 62.1217 87.0791 61.9919 86.9834 61.8506C86.8923 61.7048 86.8148 61.5293 86.751 61.3242C86.6917 61.1191 86.6621 60.8936 86.6621 60.6475C86.6621 59.932 86.9424 59.3509 87.5029 58.9043C88.0635 58.4531 88.7972 58.2275 89.7041 58.2275C90.6156 58.2275 91.347 58.46 91.8984 58.9248C92.4499 59.3851 92.7279 59.9935 92.7324 60.75H90.791C90.7865 60.4538 90.6839 60.2305 90.4834 60.0801C90.2874 59.9297 90.0094 59.8545 89.6494 59.8545C89.335 59.8545 89.0866 59.9206 88.9043 60.0527C88.7266 60.1849 88.6377 60.3604 88.6377 60.5791C88.6377 60.6611 88.6514 60.7363 88.6787 60.8047C88.7106 60.8685 88.763 60.9255 88.8359 60.9756C88.9134 61.0212 88.984 61.0622 89.0479 61.0986C89.1162 61.1305 89.2165 61.1647 89.3486 61.2012C89.4854 61.2331 89.5947 61.2581 89.6768 61.2764C89.7633 61.29 89.8932 61.3128 90.0664 61.3447C90.8001 61.4769 91.3288 61.6136 91.6523 61.7549C92.4681 62.1195 92.876 62.7575 92.876 63.6689C92.876 64.4391 92.5866 65.0566 92.0078 65.5215C91.429 65.9818 90.6611 66.2119 89.7041 66.2119ZM97.0596 66.2119C96.1117 66.2119 95.346 65.9658 94.7627 65.4736C94.1839 64.9769 93.8923 64.3229 93.8877 63.5117H95.877C95.8815 63.8353 95.9977 64.0837 96.2256 64.2568C96.458 64.43 96.7633 64.5166 97.1416 64.5166C97.4424 64.5166 97.6953 64.4505 97.9004 64.3184C98.11 64.1862 98.2148 63.9993 98.2148 63.7578C98.2148 63.6348 98.1784 63.5277 98.1055 63.4365C98.0371 63.3454 97.9277 63.2702 97.7773 63.2109C97.627 63.1471 97.4788 63.0993 97.333 63.0674C97.1872 63.0309 96.9958 62.9922 96.7588 62.9512C96.5446 62.9147 96.3646 62.8828 96.2188 62.8555C96.0729 62.8236 95.8952 62.778 95.6855 62.7188C95.4805 62.6595 95.3073 62.5957 95.166 62.5273C95.0247 62.4544 94.8743 62.3587 94.7148 62.2402C94.5599 62.1217 94.4346 61.9919 94.3389 61.8506C94.2477 61.7048 94.1702 61.5293 94.1064 61.3242C94.0472 61.1191 94.0176 60.8936 94.0176 60.6475C94.0176 59.932 94.2979 59.3509 94.8584 58.9043C95.4189 58.4531 96.1527 58.2275 97.0596 58.2275C97.971 58.2275 98.7025 58.46 99.2539 58.9248C99.8053 59.3851 100.083 59.9935 100.088 60.75H98.1465C98.1419 60.4538 98.0394 60.2305 97.8389 60.0801C97.6429 59.9297 97.3649 59.8545 97.0049 59.8545C96.6904 59.8545 96.4421 59.9206 96.2598 60.0527C96.082 60.1849 95.9932 60.3604 95.9932 60.5791C95.9932 60.6611 96.0068 60.7363 96.0342 60.8047C96.0661 60.8685 96.1185 60.9255 96.1914 60.9756C96.2689 61.0212 96.3395 61.0622 96.4033 61.0986C96.4717 61.1305 96.5719 61.1647 96.7041 61.2012C96.8408 61.2331 96.9502 61.2581 97.0322 61.2764C97.1188 61.29 97.2487 61.3128 97.4219 61.3447C98.1556 61.4769 98.6842 61.6136 99.0078 61.7549C99.8236 62.1195 100.231 62.7575 100.231 63.6689C100.231 64.4391 99.9421 65.0566 99.3633 65.5215C98.7845 65.9818 98.0166 66.2119 97.0596 66.2119ZM107.901 58.4258H109.433V65.9863H107.826L107.648 65.3096C106.96 65.9111 106.145 66.2119 105.201 66.2119C104.454 66.2119 103.777 66.0387 103.171 65.6924C102.565 65.346 102.091 64.8675 101.749 64.2568C101.407 63.6416 101.236 62.958 101.236 62.2061C101.236 61.4587 101.407 60.7819 101.749 60.1758C102.091 59.5651 102.565 59.0889 103.171 58.7471C103.777 58.4007 104.454 58.2275 105.201 58.2275C106.163 58.2275 106.99 58.5352 107.683 59.1504L107.901 58.4258ZM103.889 63.6895C104.281 64.0814 104.773 64.2773 105.365 64.2773C105.958 64.2773 106.448 64.0814 106.835 63.6895C107.227 63.2975 107.423 62.8031 107.423 62.2061C107.423 61.609 107.227 61.1146 106.835 60.7227C106.448 60.3307 105.958 60.1348 105.365 60.1348C104.773 60.1348 104.281 60.333 103.889 60.7295C103.501 61.1214 103.308 61.6136 103.308 62.2061C103.308 62.7985 103.501 63.293 103.889 63.6895ZM117.499 58.4395H118.825V65.125C118.825 66.3053 118.481 67.235 117.793 67.9141C117.105 68.5977 116.161 68.9395 114.963 68.9395C113.938 68.9395 113.083 68.6934 112.399 68.2012C111.716 67.709 111.287 67.0299 111.114 66.1641H113.145C113.254 66.4876 113.477 66.7383 113.814 66.916C114.156 67.0983 114.528 67.1895 114.929 67.1895C115.462 67.1895 115.911 67.0277 116.275 66.7041C116.64 66.3851 116.822 65.9567 116.822 65.4189V65.1318C116.18 65.583 115.46 65.8086 114.662 65.8086C113.969 65.8086 113.334 65.6423 112.755 65.3096C112.181 64.9769 111.727 64.5212 111.395 63.9424C111.066 63.359 110.902 62.7188 110.902 62.0215C110.902 61.3288 111.066 60.693 111.395 60.1143C111.727 59.5309 112.181 59.0706 112.755 58.7334C113.334 58.3962 113.969 58.2275 114.662 58.2275C115.642 58.2275 116.478 58.5488 117.171 59.1914L117.499 58.4395ZM114.901 63.9834C115.457 63.9834 115.918 63.7988 116.282 63.4297C116.647 63.056 116.829 62.5866 116.829 62.0215C116.829 61.4609 116.647 60.9984 116.282 60.6338C115.922 60.2646 115.462 60.0801 114.901 60.0801C114.345 60.0801 113.885 60.2646 113.521 60.6338C113.156 60.9984 112.974 61.4609 112.974 62.0215C112.974 62.5866 113.154 63.056 113.514 63.4297C113.878 63.7988 114.341 63.9834 114.901 63.9834ZM128.129 62.1924C128.129 62.3975 128.115 62.598 128.088 62.7939H122.366C122.453 63.3089 122.658 63.7054 122.981 63.9834C123.31 64.2568 123.722 64.3936 124.219 64.3936C124.57 64.3936 124.884 64.3161 125.162 64.1611C125.445 64.0062 125.663 63.792 125.818 63.5186H127.965C127.691 64.3434 127.217 64.9997 126.543 65.4873C125.868 65.9704 125.094 66.2119 124.219 66.2119C123.485 66.2119 122.817 66.0387 122.216 65.6924C121.619 65.3415 121.149 64.8607 120.808 64.25C120.466 63.6393 120.295 62.9626 120.295 62.2197C120.295 61.4723 120.464 60.7933 120.801 60.1826C121.143 59.5719 121.612 59.0934 122.209 58.7471C122.811 58.4007 123.48 58.2275 124.219 58.2275C124.975 58.2275 125.654 58.4076 126.256 58.7676C126.857 59.123 127.32 59.6016 127.644 60.2031C127.967 60.8047 128.129 61.4678 128.129 62.1924ZM124.219 59.9707C123.768 59.9707 123.385 60.096 123.07 60.3467C122.756 60.5973 122.539 60.9482 122.421 61.3994H126.085C125.944 60.9391 125.711 60.5859 125.388 60.3398C125.069 60.0938 124.679 59.9707 124.219 59.9707Z" fill="#11346F"/>
<path d="M0.779125 81.62C0.779125 81.172 0.851125 80.812 0.995125 80.54C1.14713 80.268 1.35113 80.072 1.60713 79.952C1.86313 79.824 2.14713 79.76 2.45913 79.76C2.77113 79.76 3.05113 79.824 3.29913 79.952C3.55513 80.072 3.75913 80.268 3.91113 80.54C4.06313 80.812 4.13913 81.172 4.13913 81.62C4.13913 82.06 4.06313 82.416 3.91113 82.688C3.75913 82.96 3.55513 83.16 3.29913 83.288C3.05113 83.416 2.77113 83.48 2.45913 83.48C2.14713 83.48 1.86313 83.416 1.60713 83.288C1.35113 83.16 1.14713 82.96 0.995125 82.688C0.851125 82.416 0.779125 82.06 0.779125 81.62ZM12.3262 86L10.3984 82.7129H8.48242V86H7.43359V77.5977H10.6152C11.4043 77.5977 12.0566 77.8398 12.5723 78.3242C13.0918 78.8086 13.3516 79.4238 13.3516 80.1699C13.3516 80.7559 13.1836 81.2656 12.8477 81.6992C12.5117 82.1289 12.0625 82.4258 11.5 82.5898L13.5098 86H12.3262ZM8.48242 78.5996V81.7168H10.5625C11.0742 81.7168 11.4883 81.5723 11.8047 81.2832C12.1211 80.9902 12.2793 80.6152 12.2793 80.1582C12.2793 79.7051 12.1191 79.332 11.7988 79.0391C11.4824 78.7461 11.0703 78.5996 10.5625 78.5996H8.48242ZM20.9512 82.7891C20.9512 82.9062 20.9453 83.0273 20.9336 83.1523H15.4082C15.4863 83.7539 15.7324 84.2363 16.1465 84.5996C16.5645 84.9629 17.0781 85.1445 17.6875 85.1445C18.1328 85.1445 18.5293 85.0469 18.877 84.8516C19.2246 84.6523 19.5 84.377 19.7031 84.0254H20.7812C20.5039 84.6934 20.0938 85.2129 19.5508 85.584C19.0117 85.9551 18.3906 86.1406 17.6875 86.1406C17.0703 86.1406 16.5078 85.9941 16 85.7012C15.4961 85.4082 15.0996 85.0039 14.8105 84.4883C14.5254 83.9727 14.3828 83.3965 14.3828 82.7598C14.3828 82.127 14.5254 81.5527 14.8105 81.0371C15.0996 80.5176 15.4961 80.1113 16 79.8184C16.5078 79.5254 17.0703 79.3789 17.6875 79.3789C18.3281 79.3789 18.8984 79.5312 19.3984 79.8359C19.8984 80.1406 20.2812 80.5527 20.5469 81.0723C20.8164 81.5879 20.9512 82.1602 20.9512 82.7891ZM17.6875 80.3457C17.1016 80.3457 16.6055 80.5156 16.1992 80.8555C15.793 81.1914 15.5371 81.6426 15.4316 82.209H19.9316C19.8223 81.6348 19.5645 81.1816 19.1582 80.8496C18.7559 80.5137 18.2656 80.3457 17.6875 80.3457ZM27.707 77.2051H28.7266V86H27.9355L27.8008 85.0801C27.4961 85.416 27.1289 85.6777 26.6992 85.8652C26.2695 86.0488 25.8047 86.1406 25.3047 86.1406C24.3359 86.1406 23.5371 85.8203 22.9082 85.1797C22.2793 84.5352 21.9648 83.7285 21.9648 82.7598C21.9648 82.1191 22.1055 81.543 22.3867 81.0312C22.6719 80.5156 23.0684 80.1113 23.5762 79.8184C24.0879 79.5254 24.6641 79.3789 25.3047 79.3789C25.7812 79.3789 26.2246 79.4629 26.6348 79.6309C27.0449 79.7988 27.4023 80.0352 27.707 80.3398V77.2051ZM23.6816 84.4766C24.1348 84.9297 24.7031 85.1562 25.3867 85.1562C26.0703 85.1562 26.6387 84.9277 27.0918 84.4707C27.5449 84.0098 27.7715 83.4395 27.7715 82.7598C27.7715 82.0762 27.5449 81.5059 27.0918 81.0488C26.6387 80.5918 26.0703 80.3633 25.3867 80.3633C24.7031 80.3633 24.1348 80.5918 23.6816 81.0488C23.2324 81.502 23.0078 82.0723 23.0078 82.7598C23.0078 83.4473 23.2324 84.0195 23.6816 84.4766ZM33.5488 86.1406C32.6777 86.1406 31.9805 85.8789 31.457 85.3555C30.9375 84.832 30.6777 84.1348 30.6777 83.2637V79.5195H31.6973V83.0996C31.6973 83.7363 31.8633 84.2383 32.1953 84.6055C32.5273 84.9727 32.9785 85.1562 33.5488 85.1562C34.123 85.1562 34.5742 84.9727 34.9023 84.6055C35.2344 84.2344 35.4004 83.7324 35.4004 83.0996V79.5195H36.4199V83.2637C36.4199 84.1348 36.1602 84.832 35.6406 85.3555C35.1211 85.8789 34.4238 86.1406 33.5488 86.1406ZM41.2246 86.1406C40.5957 86.1406 40.0234 85.9941 39.5078 85.7012C38.9922 85.4082 38.5879 85.0039 38.2949 84.4883C38.002 83.9688 37.8555 83.3926 37.8555 82.7598C37.8555 82.123 38.002 81.5469 38.2949 81.0312C38.5879 80.5156 38.9922 80.1113 39.5078 79.8184C40.0234 79.5254 40.5957 79.3789 41.2246 79.3789C41.9941 79.3789 42.6602 79.5898 43.2227 80.0117C43.7891 80.4336 44.1719 80.998 44.3711 81.7051H43.3633C43.1719 81.2871 42.8867 80.959 42.5078 80.7207C42.1289 80.4824 41.7012 80.3633 41.2246 80.3633C40.5605 80.3633 40.0059 80.5938 39.5605 81.0547C39.1191 81.5117 38.8984 82.0801 38.8984 82.7598C38.8984 83.4355 39.1211 84.0039 39.5664 84.4648C40.0117 84.9258 40.5645 85.1562 41.2246 85.1562C41.7012 85.1562 42.125 85.0352 42.4961 84.793C42.8672 84.5508 43.1523 84.2129 43.3516 83.7793H44.3828C44.1836 84.4941 43.7969 85.0664 43.2227 85.4961C42.6523 85.9258 41.9863 86.1406 41.2246 86.1406ZM51.8652 82.7891C51.8652 82.9062 51.8594 83.0273 51.8477 83.1523H46.3223C46.4004 83.7539 46.6465 84.2363 47.0605 84.5996C47.4785 84.9629 47.9922 85.1445 48.6016 85.1445C49.0469 85.1445 49.4434 85.0469 49.791 84.8516C50.1387 84.6523 50.4141 84.377 50.6172 84.0254H51.6953C51.418 84.6934 51.0078 85.2129 50.4648 85.584C49.9258 85.9551 49.3047 86.1406 48.6016 86.1406C47.9844 86.1406 47.4219 85.9941 46.9141 85.7012C46.4102 85.4082 46.0137 85.0039 45.7246 84.4883C45.4395 83.9727 45.2969 83.3965 45.2969 82.7598C45.2969 82.127 45.4395 81.5527 45.7246 81.0371C46.0137 80.5176 46.4102 80.1113 46.9141 79.8184C47.4219 79.5254 47.9844 79.3789 48.6016 79.3789C49.2422 79.3789 49.8125 79.5312 50.3125 79.8359C50.8125 80.1406 51.1953 80.5527 51.4609 81.0723C51.7305 81.5879 51.8652 82.1602 51.8652 82.7891ZM48.6016 80.3457C48.0156 80.3457 47.5195 80.5156 47.1133 80.8555C46.707 81.1914 46.4512 81.6426 46.3457 82.209H50.8457C50.7363 81.6348 50.4785 81.1816 50.0723 80.8496C49.6699 80.5137 49.1797 80.3457 48.6016 80.3457ZM58.5801 86.1406C57.8145 86.1406 57.1992 85.9492 56.7344 85.5664C56.2695 85.1836 56.0234 84.666 55.9961 84.0137H56.9922C57.0195 84.3887 57.1797 84.6797 57.4727 84.8867C57.7695 85.0938 58.1504 85.1973 58.6152 85.1973C59.0645 85.1973 59.4297 85.1074 59.7109 84.9277C59.9961 84.748 60.1387 84.502 60.1387 84.1895C60.1387 84.0684 60.1191 83.959 60.0801 83.8613C60.041 83.7637 59.9785 83.6816 59.8926 83.6152C59.8066 83.5449 59.7207 83.4863 59.6348 83.4395C59.5488 83.3887 59.4297 83.3438 59.2773 83.3047C59.1289 83.2656 59 83.2363 58.8906 83.2168C58.7852 83.1934 58.6406 83.166 58.457 83.1348C58.3125 83.1113 58.1992 83.0918 58.1172 83.0762C58.0391 83.0605 57.9297 83.0371 57.7891 83.0059C57.6523 82.9746 57.543 82.9453 57.4609 82.918C57.3789 82.8906 57.2773 82.8555 57.1562 82.8125C57.0352 82.7695 56.9375 82.7227 56.8633 82.6719C56.793 82.6211 56.7129 82.5625 56.623 82.4961C56.5332 82.4258 56.4609 82.3496 56.4062 82.2676C56.3555 82.1855 56.3047 82.0957 56.2539 81.998C56.2031 81.8965 56.166 81.7832 56.1426 81.6582C56.123 81.5332 56.1133 81.3984 56.1133 81.2539C56.1133 80.6953 56.3379 80.2441 56.7871 79.9004C57.2363 79.5527 57.8262 79.3789 58.5566 79.3789C59.2871 79.3789 59.8711 79.5605 60.3086 79.9238C60.75 80.2832 60.9805 80.7695 61 81.3828H60.0332C60.0137 81.0312 59.873 80.7617 59.6113 80.5742C59.3496 80.3828 58.9902 80.2871 58.5332 80.2871C58.0957 80.2871 57.748 80.373 57.4902 80.5449C57.2324 80.7129 57.1035 80.9375 57.1035 81.2188C57.1035 81.3281 57.1211 81.4277 57.1562 81.5176C57.1914 81.6035 57.25 81.6777 57.332 81.7402C57.4141 81.8027 57.4961 81.8555 57.5781 81.8984C57.6602 81.9414 57.7734 81.9805 57.918 82.0156C58.0625 82.0508 58.1855 82.0781 58.2871 82.0977C58.3887 82.1172 58.5312 82.1406 58.7148 82.168C59.3555 82.2734 59.8145 82.3848 60.0918 82.502C60.7324 82.7715 61.0801 83.2441 61.1348 83.9199C61.1426 83.9941 61.1465 84.0684 61.1465 84.1426C61.1465 84.748 60.9121 85.2324 60.4434 85.5957C59.9746 85.959 59.3535 86.1406 58.5801 86.1406ZM65.3125 85.0566H66.0156V86H65.1777C64.4785 86 63.9277 85.7988 63.5254 85.3965C63.127 84.9902 62.9277 84.4355 62.9277 83.7324V80.4395H61.7852V80.2578L63.7891 78.1484H63.9473V79.5195H65.9805V80.4395H63.9473V83.7031C63.9473 84.1406 64.0645 84.4766 64.2988 84.7109C64.5332 84.9414 64.8711 85.0566 65.3125 85.0566ZM70.3457 79.4844H70.9199V80.4512H70.2578C69.6719 80.4512 69.2168 80.6309 68.8926 80.9902C68.5684 81.3496 68.4062 81.8457 68.4062 82.4785V86H67.3809V79.5195H68.1074L68.2715 80.5039C68.7402 79.8242 69.4316 79.4844 70.3457 79.4844ZM77.8574 82.7891C77.8574 82.9062 77.8516 83.0273 77.8398 83.1523H72.3145C72.3926 83.7539 72.6387 84.2363 73.0527 84.5996C73.4707 84.9629 73.9844 85.1445 74.5938 85.1445C75.0391 85.1445 75.4355 85.0469 75.7832 84.8516C76.1309 84.6523 76.4062 84.377 76.6094 84.0254H77.6875C77.4102 84.6934 77 85.2129 76.457 85.584C75.918 85.9551 75.2969 86.1406 74.5938 86.1406C73.9766 86.1406 73.4141 85.9941 72.9062 85.7012C72.4023 85.4082 72.0059 85.0039 71.7168 84.4883C71.4316 83.9727 71.2891 83.3965 71.2891 82.7598C71.2891 82.127 71.4316 81.5527 71.7168 81.0371C72.0059 80.5176 72.4023 80.1113 72.9062 79.8184C73.4141 79.5254 73.9766 79.3789 74.5938 79.3789C75.2344 79.3789 75.8047 79.5312 76.3047 79.8359C76.8047 80.1406 77.1875 80.5527 77.4531 81.0723C77.7227 81.5879 77.8574 82.1602 77.8574 82.7891ZM74.5938 80.3457C74.0078 80.3457 73.5117 80.5156 73.1055 80.8555C72.6992 81.1914 72.4434 81.6426 72.3379 82.209H76.8379C76.7285 81.6348 76.4707 81.1816 76.0645 80.8496C75.6621 80.5137 75.1719 80.3457 74.5938 80.3457ZM81.4316 86.1406C80.666 86.1406 80.0508 85.9492 79.5859 85.5664C79.1211 85.1836 78.875 84.666 78.8477 84.0137H79.8438C79.8711 84.3887 80.0312 84.6797 80.3242 84.8867C80.6211 85.0938 81.002 85.1973 81.4668 85.1973C81.916 85.1973 82.2812 85.1074 82.5625 84.9277C82.8477 84.748 82.9902 84.502 82.9902 84.1895C82.9902 84.0684 82.9707 83.959 82.9316 83.8613C82.8926 83.7637 82.8301 83.6816 82.7441 83.6152C82.6582 83.5449 82.5723 83.4863 82.4863 83.4395C82.4004 83.3887 82.2812 83.3438 82.1289 83.3047C81.9805 83.2656 81.8516 83.2363 81.7422 83.2168C81.6367 83.1934 81.4922 83.166 81.3086 83.1348C81.1641 83.1113 81.0508 83.0918 80.9688 83.0762C80.8906 83.0605 80.7812 83.0371 80.6406 83.0059C80.5039 82.9746 80.3945 82.9453 80.3125 82.918C80.2305 82.8906 80.1289 82.8555 80.0078 82.8125C79.8867 82.7695 79.7891 82.7227 79.7148 82.6719C79.6445 82.6211 79.5645 82.5625 79.4746 82.4961C79.3848 82.4258 79.3125 82.3496 79.2578 82.2676C79.207 82.1855 79.1562 82.0957 79.1055 81.998C79.0547 81.8965 79.0176 81.7832 78.9941 81.6582C78.9746 81.5332 78.9648 81.3984 78.9648 81.2539C78.9648 80.6953 79.1895 80.2441 79.6387 79.9004C80.0879 79.5527 80.6777 79.3789 81.4082 79.3789C82.1387 79.3789 82.7227 79.5605 83.1602 79.9238C83.6016 80.2832 83.832 80.7695 83.8516 81.3828H82.8848C82.8652 81.0312 82.7246 80.7617 82.4629 80.5742C82.2012 80.3828 81.8418 80.2871 81.3848 80.2871C80.9473 80.2871 80.5996 80.373 80.3418 80.5449C80.084 80.7129 79.9551 80.9375 79.9551 81.2188C79.9551 81.3281 79.9727 81.4277 80.0078 81.5176C80.043 81.6035 80.1016 81.6777 80.1836 81.7402C80.2656 81.8027 80.3477 81.8555 80.4297 81.8984C80.5117 81.9414 80.625 81.9805 80.7695 82.0156C80.9141 82.0508 81.0371 82.0781 81.1387 82.0977C81.2402 82.1172 81.3828 82.1406 81.5664 82.168C82.207 82.2734 82.666 82.3848 82.9434 82.502C83.584 82.7715 83.9316 83.2441 83.9863 83.9199C83.9941 83.9941 83.998 84.0684 83.998 84.1426C83.998 84.748 83.7637 85.2324 83.2949 85.5957C82.8262 85.959 82.2051 86.1406 81.4316 86.1406ZM87.584 86.1406C86.8184 86.1406 86.2031 85.9492 85.7383 85.5664C85.2734 85.1836 85.0273 84.666 85 84.0137H85.9961C86.0234 84.3887 86.1836 84.6797 86.4766 84.8867C86.7734 85.0938 87.1543 85.1973 87.6191 85.1973C88.0684 85.1973 88.4336 85.1074 88.7148 84.9277C89 84.748 89.1426 84.502 89.1426 84.1895C89.1426 84.0684 89.123 83.959 89.084 83.8613C89.0449 83.7637 88.9824 83.6816 88.8965 83.6152C88.8105 83.5449 88.7246 83.4863 88.6387 83.4395C88.5527 83.3887 88.4336 83.3438 88.2812 83.3047C88.1328 83.2656 88.0039 83.2363 87.8945 83.2168C87.7891 83.1934 87.6445 83.166 87.4609 83.1348C87.3164 83.1113 87.2031 83.0918 87.1211 83.0762C87.043 83.0605 86.9336 83.0371 86.793 83.0059C86.6562 82.9746 86.5469 82.9453 86.4648 82.918C86.3828 82.8906 86.2812 82.8555 86.1602 82.8125C86.0391 82.7695 85.9414 82.7227 85.8672 82.6719C85.7969 82.6211 85.7168 82.5625 85.627 82.4961C85.5371 82.4258 85.4648 82.3496 85.4102 82.2676C85.3594 82.1855 85.3086 82.0957 85.2578 81.998C85.207 81.8965 85.1699 81.7832 85.1465 81.6582C85.127 81.5332 85.1172 81.3984 85.1172 81.2539C85.1172 80.6953 85.3418 80.2441 85.791 79.9004C86.2402 79.5527 86.8301 79.3789 87.5605 79.3789C88.291 79.3789 88.875 79.5605 89.3125 79.9238C89.7539 80.2832 89.9844 80.7695 90.0039 81.3828H89.0371C89.0176 81.0312 88.877 80.7617 88.6152 80.5742C88.3535 80.3828 87.9941 80.2871 87.5371 80.2871C87.0996 80.2871 86.752 80.373 86.4941 80.5449C86.2363 80.7129 86.1074 80.9375 86.1074 81.2188C86.1074 81.3281 86.125 81.4277 86.1602 81.5176C86.1953 81.6035 86.2539 81.6777 86.3359 81.7402C86.418 81.8027 86.5 81.8555 86.582 81.8984C86.6641 81.9414 86.7773 81.9805 86.9219 82.0156C87.0664 82.0508 87.1895 82.0781 87.291 82.0977C87.3926 82.1172 87.5352 82.1406 87.7188 82.168C88.3594 82.2734 88.8184 82.3848 89.0957 82.502C89.7363 82.7715 90.084 83.2441 90.1387 83.9199C90.1465 83.9941 90.1504 84.0684 90.1504 84.1426C90.1504 84.748 89.916 85.2324 89.4473 85.5957C88.9785 85.959 88.3574 86.1406 87.584 86.1406ZM101.23 86H100.076C99.8301 85.7344 99.5957 85.4824 99.373 85.2441C98.7051 85.834 97.873 86.1289 96.877 86.1289C96.1113 86.1289 95.4961 85.9258 95.0312 85.5195C94.5664 85.1094 94.334 84.5684 94.334 83.8965C94.334 83.6035 94.377 83.332 94.4629 83.082C94.5527 82.832 94.6816 82.6074 94.8496 82.4082C95.0215 82.209 95.1973 82.0352 95.377 81.8867C95.5605 81.7383 95.7773 81.5859 96.0273 81.4297C95.6719 80.957 95.4258 80.5605 95.2891 80.2402C95.1523 79.916 95.084 79.5918 95.084 79.2676C95.084 78.7129 95.2773 78.2754 95.6641 77.9551C96.0508 77.6309 96.5645 77.4688 97.2051 77.4688C97.8262 77.4688 98.3301 77.6309 98.7168 77.9551C99.1035 78.2754 99.2969 78.6953 99.2969 79.2148C99.2969 79.4492 99.2578 79.6719 99.1797 79.8828C99.1016 80.0938 99.0078 80.2754 98.8984 80.4277C98.7891 80.5762 98.6387 80.7305 98.4473 80.8906C98.2559 81.0508 98.082 81.1816 97.9258 81.2832C97.7734 81.3848 97.5781 81.5059 97.3398 81.6465C97.8516 82.2754 98.5059 83.0293 99.3027 83.9082C99.5957 83.4238 99.7422 82.875 99.7422 82.2617H100.609C100.609 83.1602 100.385 83.9414 99.9355 84.6055C100.006 84.6797 100.438 85.1445 101.23 86ZM97.2051 78.2715C96.8457 78.2715 96.5527 78.3633 96.3262 78.5469C96.1035 78.7305 95.9922 78.9707 95.9922 79.2676C95.9922 79.6543 96.2656 80.2207 96.8125 80.9668C97.0117 80.8496 97.1738 80.752 97.2988 80.6738C97.4277 80.5918 97.5684 80.4922 97.7207 80.375C97.873 80.2539 97.9922 80.1406 98.0781 80.0352C98.168 79.9258 98.2422 79.8008 98.3008 79.6602C98.3594 79.5156 98.3887 79.3672 98.3887 79.2148C98.3887 78.9375 98.2773 78.7109 98.0547 78.5352C97.8359 78.3594 97.5527 78.2715 97.2051 78.2715ZM96.9648 85.209C97.6484 85.209 98.2422 84.9941 98.7461 84.5645C97.75 83.4746 97.0234 82.6562 96.5664 82.1094C96.1602 82.3711 95.8477 82.6367 95.6289 82.9062C95.4102 83.1758 95.3008 83.4941 95.3008 83.8613C95.3008 84.2637 95.4531 84.5898 95.7578 84.8398C96.0625 85.0859 96.4648 85.209 96.9648 85.209ZM110.734 79.5195H111.549V86H110.705L110.594 85.0156C110.289 85.3711 109.918 85.6484 109.48 85.8477C109.047 86.043 108.57 86.1406 108.051 86.1406C107.422 86.1406 106.852 85.9941 106.34 85.7012C105.828 85.4082 105.426 85.0039 105.133 84.4883C104.844 83.9688 104.699 83.3926 104.699 82.7598C104.699 81.791 105.018 80.9863 105.654 80.3457C106.295 79.7012 107.094 79.3789 108.051 79.3789C108.57 79.3789 109.051 79.4785 109.492 79.6777C109.934 79.877 110.307 80.1562 110.611 80.5156L110.734 79.5195ZM106.422 84.4707C106.875 84.9277 107.443 85.1562 108.127 85.1562C108.811 85.1562 109.377 84.9297 109.826 84.4766C110.279 84.0195 110.506 83.4473 110.506 82.7598C110.506 82.0723 110.279 81.502 109.826 81.0488C109.377 80.5918 108.811 80.3633 108.127 80.3633C107.443 80.3633 106.875 80.5918 106.422 81.0488C105.969 81.5059 105.742 82.0762 105.742 82.7598C105.742 83.4434 105.969 84.0137 106.422 84.4707ZM116.846 79.3789C117.604 79.3789 118.209 79.6348 118.662 80.1465C119.119 80.6582 119.348 81.3164 119.348 82.1211V86H118.328V82.3613C118.328 81.7051 118.178 81.1992 117.877 80.8438C117.576 80.4883 117.145 80.3105 116.582 80.3105C116.027 80.3105 115.562 80.5176 115.188 80.9316C114.812 81.3457 114.625 81.8574 114.625 82.4668V86H113.6V79.5195H114.326L114.525 80.5332C114.771 80.1699 115.096 79.8867 115.498 79.6836C115.9 79.4805 116.35 79.3789 116.846 79.3789ZM126.355 86H125.213L123.35 83.2988L121.486 86H120.367L122.74 82.6309L120.561 79.5195H121.709L123.361 81.916L125.043 79.5195H126.168L123.965 82.584L126.355 86ZM127.41 78.4004V77.2285H128.518V78.4004H127.41ZM127.451 86V79.5195H128.477V86H127.451ZM136.58 82.7891C136.58 82.9062 136.574 83.0273 136.562 83.1523H131.037C131.115 83.7539 131.361 84.2363 131.775 84.5996C132.193 84.9629 132.707 85.1445 133.316 85.1445C133.762 85.1445 134.158 85.0469 134.506 84.8516C134.854 84.6523 135.129 84.377 135.332 84.0254H136.41C136.133 84.6934 135.723 85.2129 135.18 85.584C134.641 85.9551 134.02 86.1406 133.316 86.1406C132.699 86.1406 132.137 85.9941 131.629 85.7012C131.125 85.4082 130.729 85.0039 130.439 84.4883C130.154 83.9727 130.012 83.3965 130.012 82.7598C130.012 82.127 130.154 81.5527 130.439 81.0371C130.729 80.5176 131.125 80.1113 131.629 79.8184C132.137 79.5254 132.699 79.3789 133.316 79.3789C133.957 79.3789 134.527 79.5312 135.027 79.8359C135.527 80.1406 135.91 80.5527 136.176 81.0723C136.445 81.5879 136.58 82.1602 136.58 82.7891ZM133.316 80.3457C132.73 80.3457 132.234 80.5156 131.828 80.8555C131.422 81.1914 131.166 81.6426 131.061 82.209H135.561C135.451 81.6348 135.193 81.1816 134.787 80.8496C134.385 80.5137 133.895 80.3457 133.316 80.3457ZM140.723 85.0566H141.426V86H140.588C139.889 86 139.338 85.7988 138.936 85.3965C138.537 84.9902 138.338 84.4355 138.338 83.7324V80.4395H137.195V80.2578L139.199 78.1484H139.357V79.5195H141.391V80.4395H139.357V83.7031C139.357 84.1406 139.475 84.4766 139.709 84.7109C139.943 84.9414 140.281 85.0566 140.723 85.0566ZM147.531 79.5195H148.615L145.527 86.2695C145.176 87.0391 144.816 87.5723 144.449 87.8691C144.086 88.166 143.6 88.3145 142.99 88.3145H142.381V87.3887H142.902C143.332 87.3887 143.656 87.3008 143.875 87.125C144.094 86.9492 144.334 86.5879 144.596 86.041L144.83 85.5605L141.947 79.5195H143.061L145.363 84.4238L147.531 79.5195ZM7.91584 101.62C7.91584 101.172 7.98784 100.812 8.13184 100.54C8.28384 100.268 8.48784 100.072 8.74384 99.952C8.99984 99.824 9.28384 99.76 9.59584 99.76C9.90784 99.76 10.1878 99.824 10.4358 99.952C10.6918 100.072 10.8958 100.268 11.0478 100.54C11.1998 100.812 11.2758 101.172 11.2758 101.62C11.2758 102.06 11.1998 102.416 11.0478 102.688C10.8958 102.96 10.6918 103.16 10.4358 103.288C10.1878 103.416 9.90784 103.48 9.59584 103.48C9.28384 103.48 8.99984 103.416 8.74384 103.288C8.48784 103.16 8.28384 102.96 8.13184 102.688C7.98784 102.416 7.91584 102.06 7.91584 101.62ZM17.0723 106.105C16.1426 106.105 15.3926 105.861 14.8223 105.373C14.2559 104.885 13.9727 104.23 13.9727 103.41H15.0449C15.0449 103.922 15.2324 104.328 15.6074 104.629C15.9824 104.926 16.4668 105.074 17.0605 105.074C17.5996 105.074 18.0488 104.943 18.4082 104.682C18.7676 104.416 18.9473 104.064 18.9473 103.627C18.9473 103.521 18.9336 103.422 18.9062 103.328C18.8789 103.23 18.8477 103.146 18.8125 103.076C18.7773 103.002 18.7207 102.932 18.6426 102.865C18.5684 102.799 18.5 102.742 18.4375 102.695C18.3789 102.648 18.291 102.602 18.1738 102.555C18.0566 102.504 17.9609 102.465 17.8867 102.438C17.8164 102.406 17.707 102.371 17.5586 102.332C17.4102 102.293 17.2988 102.264 17.2246 102.244C17.1504 102.225 17.0293 102.195 16.8613 102.156C16.1465 101.984 15.6348 101.826 15.3262 101.682C14.6504 101.357 14.2617 100.871 14.1602 100.223C14.1406 100.098 14.1309 99.9668 14.1309 99.8301C14.1309 99.1074 14.3887 98.5371 14.9043 98.1191C15.4199 97.7012 16.1152 97.4922 16.9902 97.4922C17.8574 97.4922 18.541 97.7168 19.041 98.166C19.5449 98.6113 19.7969 99.2168 19.7969 99.9824H18.7539C18.7539 99.5254 18.5859 99.1641 18.25 98.8984C17.918 98.6328 17.4902 98.5 16.9668 98.5C16.4473 98.5 16.0195 98.6172 15.6836 98.8516C15.3516 99.082 15.1855 99.3926 15.1855 99.7832C15.1855 99.9121 15.2051 100.031 15.2441 100.141C15.2871 100.246 15.3379 100.34 15.3965 100.422C15.4551 100.5 15.541 100.576 15.6543 100.65C15.7676 100.721 15.8711 100.779 15.9648 100.826C16.0586 100.869 16.1875 100.916 16.3516 100.967C16.5195 101.018 16.6582 101.057 16.7676 101.084C16.877 101.111 17.0293 101.148 17.2246 101.195C17.9395 101.371 18.4512 101.531 18.7598 101.676C19.4551 101.996 19.8652 102.479 19.9902 103.123C20.0215 103.279 20.0371 103.443 20.0371 103.615C20.0371 104.131 19.9043 104.58 19.6387 104.963C19.377 105.342 19.0234 105.627 18.5781 105.818C18.1367 106.01 17.6348 106.105 17.0723 106.105ZM24.2969 105.057H25V106H24.1621C23.4629 106 22.9121 105.799 22.5098 105.396C22.1113 104.99 21.9121 104.436 21.9121 103.732V100.439H20.7695V100.258L22.7734 98.1484H22.9316V99.5195H24.9648V100.439H22.9316V103.703C22.9316 104.141 23.0488 104.477 23.2832 104.711C23.5176 104.941 23.8555 105.057 24.2969 105.057ZM29.3301 99.4844H29.9043V100.451H29.2422C28.6562 100.451 28.2012 100.631 27.877 100.99C27.5527 101.35 27.3906 101.846 27.3906 102.479V106H26.3652V99.5195H27.0918L27.2559 100.504C27.7246 99.8242 28.416 99.4844 29.3301 99.4844ZM36.8418 102.789C36.8418 102.906 36.8359 103.027 36.8242 103.152H31.2988C31.377 103.754 31.623 104.236 32.0371 104.6C32.4551 104.963 32.9688 105.145 33.5781 105.145C34.0234 105.145 34.4199 105.047 34.7676 104.852C35.1152 104.652 35.3906 104.377 35.5938 104.025H36.6719C36.3945 104.693 35.9844 105.213 35.4414 105.584C34.9023 105.955 34.2812 106.141 33.5781 106.141C32.9609 106.141 32.3984 105.994 31.8906 105.701C31.3867 105.408 30.9902 105.004 30.7012 104.488C30.416 103.973 30.2734 103.396 30.2734 102.76C30.2734 102.127 30.416 101.553 30.7012 101.037C30.9902 100.518 31.3867 100.111 31.8906 99.8184C32.3984 99.5254 32.9609 99.3789 33.5781 99.3789C34.2188 99.3789 34.7891 99.5312 35.2891 99.8359C35.7891 100.141 36.1719 100.553 36.4375 101.072C36.707 101.588 36.8418 102.16 36.8418 102.789ZM33.5781 100.346C32.9922 100.346 32.4961 100.516 32.0898 100.855C31.6836 101.191 31.4277 101.643 31.3223 102.209H35.8223C35.7129 101.635 35.4551 101.182 35.0488 100.85C34.6465 100.514 34.1562 100.346 33.5781 100.346ZM41.6113 99.3789C42.3691 99.3789 42.9746 99.6348 43.4277 100.146C43.8848 100.658 44.1133 101.316 44.1133 102.121V106H43.0938V102.361C43.0938 101.705 42.9434 101.199 42.6426 100.844C42.3418 100.488 41.9102 100.311 41.3477 100.311C40.793 100.311 40.3281 100.518 39.9531 100.932C39.5781 101.346 39.3906 101.857 39.3906 102.467V106H38.3652V99.5195H39.0918L39.291 100.533C39.5371 100.17 39.8613 99.8867 40.2637 99.6836C40.666 99.4805 41.1152 99.3789 41.6113 99.3789ZM51.4199 99.5195H52.0996V105.092C52.0996 106.139 51.8164 106.961 51.25 107.559C50.6836 108.156 49.9082 108.455 48.9238 108.455C48.1309 108.455 47.4648 108.26 46.9258 107.869C46.3867 107.482 46.0293 106.943 45.8535 106.252H46.873C47.0137 106.65 47.2695 106.961 47.6406 107.184C48.0156 107.41 48.4434 107.523 48.9238 107.523C49.5801 107.523 50.1074 107.318 50.5059 106.908C50.9043 106.498 51.1035 105.938 51.1035 105.227V104.828C50.8105 105.133 50.4609 105.371 50.0547 105.543C49.6484 105.711 49.2109 105.795 48.7422 105.795C48.1523 105.795 47.6133 105.654 47.125 105.373C46.6367 105.092 46.252 104.707 45.9707 104.219C45.6934 103.727 45.5547 103.184 45.5547 102.59C45.5547 101.996 45.6934 101.453 45.9707 100.961C46.252 100.469 46.6367 100.082 47.125 99.8008C47.6133 99.5195 48.1523 99.3789 48.7422 99.3789C49.2539 99.3789 49.7266 99.4805 50.1602 99.6836C50.5977 99.8867 50.9648 100.168 51.2617 100.527L51.4199 99.5195ZM47.2363 104.184C47.666 104.605 48.2051 104.816 48.8535 104.816C49.502 104.816 50.0371 104.607 50.459 104.189C50.8809 103.768 51.0918 103.234 51.0918 102.59C51.0918 101.945 50.8809 101.412 50.459 100.99C50.0371 100.568 49.502 100.357 48.8535 100.357C48.2051 100.357 47.666 100.57 47.2363 100.996C46.8105 101.418 46.5977 101.949 46.5977 102.59C46.5977 103.227 46.8105 103.758 47.2363 104.184ZM56.8398 105.057H57.543V106H56.7051C56.0059 106 55.4551 105.799 55.0527 105.396C54.6543 104.99 54.4551 104.436 54.4551 103.732V100.439H53.3125V100.258L55.3164 98.1484H55.4746V99.5195H57.5078V100.439H55.4746V103.703C55.4746 104.141 55.5918 104.477 55.8262 104.711C56.0605 104.941 56.3984 105.057 56.8398 105.057ZM62.1543 99.3789C62.9238 99.3789 63.5332 99.627 63.9824 100.123C64.4316 100.615 64.6562 101.281 64.6562 102.121V106H63.6367V102.361C63.6367 101.705 63.4863 101.199 63.1855 100.844C62.8848 100.488 62.4531 100.311 61.8906 100.311C61.3359 100.311 60.8711 100.518 60.4961 100.932C60.1211 101.346 59.9336 101.857 59.9336 102.467V106H58.9082V97.2051H59.9336V100.404C60.1875 100.08 60.5059 99.8281 60.8887 99.6484C61.2715 99.4688 61.6934 99.3789 62.1543 99.3789ZM72.666 102.789C72.666 102.906 72.6602 103.027 72.6484 103.152H67.123C67.2012 103.754 67.4473 104.236 67.8613 104.6C68.2793 104.963 68.793 105.145 69.4023 105.145C69.8477 105.145 70.2441 105.047 70.5918 104.852C70.9395 104.652 71.2148 104.377 71.418 104.025H72.4961C72.2188 104.693 71.8086 105.213 71.2656 105.584C70.7266 105.955 70.1055 106.141 69.4023 106.141C68.7852 106.141 68.2227 105.994 67.7148 105.701C67.2109 105.408 66.8145 105.004 66.5254 104.488C66.2402 103.973 66.0977 103.396 66.0977 102.76C66.0977 102.127 66.2402 101.553 66.5254 101.037C66.8145 100.518 67.2109 100.111 67.7148 99.8184C68.2227 99.5254 68.7852 99.3789 69.4023 99.3789C70.043 99.3789 70.6133 99.5312 71.1133 99.8359C71.6133 100.141 71.9961 100.553 72.2617 101.072C72.5312 101.588 72.666 102.16 72.666 102.789ZM69.4023 100.346C68.8164 100.346 68.3203 100.516 67.9141 100.855C67.5078 101.191 67.252 101.643 67.1465 102.209H71.6465C71.5371 101.635 71.2793 101.182 70.873 100.85C70.4707 100.514 69.9805 100.346 69.4023 100.346ZM77.4355 99.3789C78.1934 99.3789 78.7988 99.6348 79.252 100.146C79.709 100.658 79.9375 101.316 79.9375 102.121V106H78.918V102.361C78.918 101.705 78.7676 101.199 78.4668 100.844C78.166 100.488 77.7344 100.311 77.1719 100.311C76.6172 100.311 76.1523 100.518 75.7773 100.932C75.4023 101.346 75.2148 101.857 75.2148 102.467V106H74.1895V99.5195H74.916L75.1152 100.533C75.3613 100.17 75.6855 99.8867 76.0879 99.6836C76.4902 99.4805 76.9395 99.3789 77.4355 99.3789ZM88.2754 99.3789C89.0449 99.3789 89.6543 99.627 90.1035 100.123C90.5527 100.615 90.7773 101.281 90.7773 102.121V106H89.7578V102.361C89.7578 101.705 89.6074 101.199 89.3066 100.844C89.0059 100.488 88.5742 100.311 88.0117 100.311C87.457 100.311 86.9922 100.518 86.6172 100.932C86.2422 101.346 86.0547 101.857 86.0547 102.467V106H85.0293V97.2051H86.0547V100.404C86.3086 100.08 86.627 99.8281 87.0098 99.6484C87.3926 99.4688 87.8145 99.3789 88.2754 99.3789ZM98.2539 99.5195H99.0684V106H98.2246L98.1133 105.016C97.8086 105.371 97.4375 105.648 97 105.848C96.5664 106.043 96.0898 106.141 95.5703 106.141C94.9414 106.141 94.3711 105.994 93.8594 105.701C93.3477 105.408 92.9453 105.004 92.6523 104.488C92.3633 103.969 92.2188 103.393 92.2188 102.76C92.2188 101.791 92.5371 100.986 93.1738 100.346C93.8145 99.7012 94.6133 99.3789 95.5703 99.3789C96.0898 99.3789 96.5703 99.4785 97.0117 99.6777C97.4531 99.877 97.8262 100.156 98.1309 100.516L98.2539 99.5195ZM93.9414 104.471C94.3945 104.928 94.9629 105.156 95.6465 105.156C96.3301 105.156 96.8965 104.93 97.3457 104.477C97.7988 104.02 98.0254 103.447 98.0254 102.76C98.0254 102.072 97.7988 101.502 97.3457 101.049C96.8965 100.592 96.3301 100.363 95.6465 100.363C94.9629 100.363 94.3945 100.592 93.9414 101.049C93.4883 101.506 93.2617 102.076 93.2617 102.76C93.2617 103.443 93.4883 104.014 93.9414 104.471ZM101.078 98.4004V97.2285H102.186V98.4004H101.078ZM101.119 106V99.5195H102.145V106H101.119ZM107.154 99.4844H107.729V100.451H107.066C106.48 100.451 106.025 100.631 105.701 100.99C105.377 101.35 105.215 101.846 105.215 102.479V106H104.189V99.5195H104.916L105.08 100.504C105.549 99.8242 106.24 99.4844 107.154 99.4844ZM114.584 99.4844H115.158V100.451H114.496C113.91 100.451 113.455 100.631 113.131 100.99C112.807 101.35 112.645 101.846 112.645 102.479V106H111.619V99.5195H112.346L112.51 100.504C112.979 99.8242 113.67 99.4844 114.584 99.4844ZM118.961 106.141C117.98 106.141 117.162 105.82 116.506 105.18C115.854 104.535 115.527 103.729 115.527 102.76C115.527 102.119 115.676 101.541 115.973 101.025C116.27 100.51 116.68 100.107 117.203 99.8184C117.73 99.5254 118.316 99.3789 118.961 99.3789C119.605 99.3789 120.189 99.5254 120.713 99.8184C121.24 100.107 121.652 100.512 121.949 101.031C122.25 101.547 122.4 102.123 122.4 102.76C122.4 103.396 122.25 103.975 121.949 104.494C121.652 105.01 121.24 105.414 120.713 105.707C120.189 105.996 119.605 106.141 118.961 106.141ZM117.244 104.482C117.693 104.932 118.266 105.156 118.961 105.156C119.656 105.156 120.229 104.932 120.678 104.482C121.131 104.029 121.357 103.455 121.357 102.76C121.357 102.064 121.131 101.492 120.678 101.043C120.229 100.59 119.656 100.363 118.961 100.363C118.266 100.363 117.693 100.59 117.244 101.043C116.795 101.492 116.57 102.064 116.57 102.76C116.57 103.455 116.795 104.029 117.244 104.482ZM126.871 106.141C125.891 106.141 125.072 105.82 124.416 105.18C123.764 104.535 123.438 103.729 123.438 102.76C123.438 102.119 123.586 101.541 123.883 101.025C124.18 100.51 124.59 100.107 125.113 99.8184C125.641 99.5254 126.227 99.3789 126.871 99.3789C127.516 99.3789 128.1 99.5254 128.623 99.8184C129.15 100.107 129.562 100.512 129.859 101.031C130.16 101.547 130.311 102.123 130.311 102.76C130.311 103.396 130.16 103.975 129.859 104.494C129.562 105.01 129.15 105.414 128.623 105.707C128.1 105.996 127.516 106.141 126.871 106.141ZM125.154 104.482C125.604 104.932 126.176 105.156 126.871 105.156C127.566 105.156 128.139 104.932 128.588 104.482C129.041 104.029 129.268 103.455 129.268 102.76C129.268 102.064 129.041 101.492 128.588 101.043C128.139 100.59 127.566 100.363 126.871 100.363C126.176 100.363 125.604 100.59 125.154 101.043C124.705 101.492 124.48 102.064 124.48 102.76C124.48 103.455 124.705 104.029 125.154 104.482ZM134.465 105.057H135.168V106H134.33C133.631 106 133.08 105.799 132.678 105.396C132.279 104.99 132.08 104.436 132.08 103.732V100.439H130.938V100.258L132.941 98.1484H133.1V99.5195H135.133V100.439H133.1V103.703C133.1 104.141 133.217 104.477 133.451 104.711C133.686 104.941 134.023 105.057 134.465 105.057ZM138.584 106.141C137.818 106.141 137.203 105.949 136.738 105.566C136.273 105.184 136.027 104.666 136 104.014H136.996C137.023 104.389 137.184 104.68 137.477 104.887C137.773 105.094 138.154 105.197 138.619 105.197C139.068 105.197 139.434 105.107 139.715 104.928C140 104.748 140.143 104.502 140.143 104.189C140.143 104.068 140.123 103.959 140.084 103.861C140.045 103.764 139.982 103.682 139.896 103.615C139.811 103.545 139.725 103.486 139.639 103.439C139.553 103.389 139.434 103.344 139.281 103.305C139.133 103.266 139.004 103.236 138.895 103.217C138.789 103.193 138.645 103.166 138.461 103.135C138.316 103.111 138.203 103.092 138.121 103.076C138.043 103.061 137.934 103.037 137.793 103.006C137.656 102.975 137.547 102.945 137.465 102.918C137.383 102.891 137.281 102.855 137.16 102.812C137.039 102.77 136.941 102.723 136.867 102.672C136.797 102.621 136.717 102.562 136.627 102.496C136.537 102.426 136.465 102.35 136.41 102.268C136.359 102.186 136.309 102.096 136.258 101.998C136.207 101.896 136.17 101.783 136.146 101.658C136.127 101.533 136.117 101.398 136.117 101.254C136.117 100.695 136.342 100.244 136.791 99.9004C137.24 99.5527 137.83 99.3789 138.561 99.3789C139.291 99.3789 139.875 99.5605 140.312 99.9238C140.754 100.283 140.984 100.77 141.004 101.383H140.037C140.018 101.031 139.877 100.762 139.615 100.574C139.354 100.383 138.994 100.287 138.537 100.287C138.1 100.287 137.752 100.373 137.494 100.545C137.236 100.713 137.107 100.938 137.107 101.219C137.107 101.328 137.125 101.428 137.16 101.518C137.195 101.604 137.254 101.678 137.336 101.74C137.418 101.803 137.5 101.855 137.582 101.898C137.664 101.941 137.777 101.98 137.922 102.016C138.066 102.051 138.189 102.078 138.291 102.098C138.393 102.117 138.535 102.141 138.719 102.168C139.359 102.273 139.818 102.385 140.096 102.502C140.736 102.771 141.084 103.244 141.139 103.92C141.146 103.994 141.15 104.068 141.15 104.143C141.15 104.748 140.916 105.232 140.447 105.596C139.979 105.959 139.357 106.141 138.584 106.141Z" fill="#262626"/>
<path d="M90.6026 0.782227C90.837 0.957431 90.8745 1.17013 90.7764 1.44483C90.5349 2.12186 90.3128 2.8061 90.0842 3.48745C90.0446 3.60425 90.0085 3.72177 89.9581 3.88039C90.5695 3.88039 91.1391 3.86381 91.7079 3.88977C91.8781 3.8977 92.1088 3.97989 92.1889 4.10607C92.2566 4.21206 92.1889 4.46008 92.1052 4.59635C90.6942 6.85599 89.2695 9.1077 87.8513 11.3623C87.7215 11.5685 87.5766 11.7531 87.3026 11.6435C87.0286 11.5339 87.0502 11.3097 87.0928 11.0667C87.3588 9.54823 87.6155 8.02763 87.8751 6.50847C87.8823 6.46593 87.8844 6.42267 87.8917 6.34913C87.4324 6.34913 86.9875 6.34913 86.5426 6.34913C86.1331 6.34913 85.9781 6.14868 86.0899 5.75213C86.5191 4.22552 86.9546 2.70059 87.3963 1.17734C87.4381 1.03314 87.5621 0.91489 87.6472 0.784387L90.6026 0.782227ZM88.0791 1.56091L86.9313 5.59278C87.4143 5.59278 87.8369 5.58846 88.2594 5.59278C88.6502 5.59783 88.79 5.77664 88.7201 6.16527C88.5932 6.87402 88.4649 7.58205 88.3416 8.2908C88.2853 8.61309 88.2406 8.9397 88.1909 9.25983L88.263 9.27569L91.1852 4.63457C90.5637 4.63457 90.0165 4.64106 89.4692 4.63457C89.1239 4.6288 88.9746 4.41827 89.0799 4.08949C89.2536 3.54585 89.4404 3.00797 89.6228 2.46506C89.7216 2.168 89.8153 1.86951 89.9206 1.54433C89.3344 1.54433 88.7965 1.54433 88.2586 1.54433C88.206 1.54289 88.1498 1.5537 88.077 1.56091H88.0791Z" fill="#262626"/>
<path d="M61.5888 0.782227C61.8606 0.952384 61.8772 1.17734 61.7755 1.46286C61.4972 2.24731 61.2384 3.03753 60.9536 3.88039C61.5549 3.88039 62.1202 3.86525 62.684 3.88904C62.8578 3.89625 63.1224 3.96475 63.175 4.08156C63.2399 4.22576 63.1793 4.48388 63.0842 4.63601C61.6864 6.87738 60.2768 9.1125 58.8555 11.3414C58.7466 11.504 58.5784 11.6173 58.3868 11.6572C58.1409 11.6889 58.0263 11.4351 58.0934 11.0523C58.2376 10.208 58.389 9.3651 58.5361 8.5208C58.6593 7.81277 58.7805 7.10474 58.9103 6.35129C58.474 6.35129 58.0537 6.37219 57.637 6.34191C57.438 6.32749 57.2462 6.21574 57.0508 6.14868V5.80476C57.0799 5.74382 57.1054 5.68123 57.1272 5.6173C57.5382 4.18178 57.9477 2.74697 58.363 1.31793C58.4185 1.13047 58.5411 0.961755 58.6319 0.784387L61.5888 0.782227ZM62.1916 4.63457C61.5975 4.63457 61.0935 4.63457 60.5902 4.63457C60.0869 4.63457 59.9622 4.44711 60.1237 3.96331C60.3357 3.32378 60.5563 2.68568 60.7669 2.04687C60.8188 1.89041 60.8656 1.73179 60.9147 1.57245C60.8795 1.56023 60.8433 1.55106 60.8065 1.54505C60.4172 1.54505 60.0278 1.53496 59.6385 1.54505C58.9607 1.55803 59.1258 1.42969 58.9391 2.06706C58.5966 3.225 58.2758 4.38942 57.9333 5.59278C58.3882 5.59278 58.8086 5.59278 59.2311 5.59278C59.6536 5.59278 59.787 5.74996 59.7236 6.16959C59.676 6.48611 59.6096 6.79975 59.5556 7.11483C59.4296 7.84161 59.3046 8.56862 59.1806 9.29588L59.2405 9.31967L62.1916 4.63457Z" fill="#262626"/>
<path d="M80.7074 35.2264V22.8705H77.4766C77.5184 23.8886 77.1947 24.7596 76.3806 25.4034C75.8664 25.8169 75.2194 26.0296 74.5601 26.0019C72.9897 25.9528 72.0863 24.9247 71.8051 22.8684H68.5851V23.2786C68.5851 26.0516 68.5851 28.8246 68.5851 31.5976C68.5851 32.0684 68.4597 32.2746 68.1821 32.2645C67.9167 32.2544 67.8079 32.0648 67.8079 31.6048C67.8079 30.1376 67.8021 28.671 67.8129 27.2067C67.8208 27.1008 67.7988 26.9948 67.7495 26.9007C67.7002 26.8067 67.6255 26.7283 67.5339 26.6746C65.9477 25.569 64.3646 24.4565 62.7846 23.337C61.3318 22.3125 60.9403 20.7558 61.7391 19.1725C62.9353 16.8047 64.1444 14.4434 65.329 12.0691C65.7804 11.1657 66.4625 10.7237 67.4776 10.8254C67.5332 10.8304 67.5894 10.8254 67.6471 10.8254C67.7668 10.3589 67.8554 9.89889 68.0025 9.45547C68.7892 7.1021 70.4741 5.79347 72.8665 5.32482C74.1203 5.07896 75.3799 5.12654 76.6243 5.34789C77.5674 5.51517 78.1759 6.12514 78.4636 7.05019C78.499 7.16339 78.615 7.31191 78.7174 7.33282C80.1183 7.62627 80.8884 8.56358 81.3131 9.85202C81.4198 10.175 81.4861 10.511 81.5596 10.7951C81.9475 10.8254 82.3268 10.8131 82.6858 10.8939C83.2136 11.0114 83.6073 11.351 83.8524 11.8312C85.1214 14.3288 86.3969 16.8242 87.6435 19.3297C88.3306 20.7126 87.9413 22.2685 86.7062 23.1914C86.0097 23.7127 85.2858 24.1965 84.5771 24.7019C84.355 24.8605 84.1444 24.8807 83.9865 24.6384C83.8286 24.3962 83.9339 24.2152 84.1545 24.0616C84.8039 23.6127 85.4504 23.1587 86.0941 22.6996C87.2174 21.9022 87.5072 20.7378 86.8872 19.5049C85.9708 17.6886 85.0493 15.8746 84.1163 14.0331L82.0816 15.199C82.1393 15.3194 82.1905 15.429 82.2446 15.5372L84.5057 20.0074C84.7184 20.4285 84.6888 20.5402 84.3002 20.8005C83.4516 21.3622 82.608 21.9253 81.7507 22.4812C81.5827 22.5908 81.4962 22.7025 81.4969 22.9181C81.5036 26.9173 81.5056 30.9165 81.5027 34.9157C81.5027 35.0051 81.5142 35.0952 81.5236 35.2264H87.058C87.1611 35.2264 87.2895 35.1904 87.3623 35.238C87.4971 35.3266 87.6651 35.4478 87.7019 35.5862C87.7596 35.8025 87.5945 35.9467 87.3724 35.977C87.2698 35.9859 87.1667 35.9876 87.0638 35.982H62.2446C61.755 35.982 61.5654 35.8732 61.5957 35.5855C61.6353 35.1594 61.9691 35.225 62.2446 35.225C68.2371 35.225 74.2299 35.225 80.2229 35.225L80.7074 35.2264ZM70.4352 12.6942C70.4352 14.0216 70.4352 15.3259 70.4352 16.6302C70.4352 16.7676 70.446 16.9048 70.4677 17.0405C70.8116 19.1573 72.7864 20.7746 74.8391 20.6231C77.1709 20.4508 78.9013 18.6548 78.9157 16.3851C78.9222 15.354 78.9063 14.323 78.9229 13.2919C78.9287 12.9516 78.8912 12.6957 78.5429 12.5161C78.3194 12.4008 78.1269 12.1859 77.9762 11.9761C77.6525 11.5219 77.3641 11.0388 77.0541 10.5622C75.0497 11.8045 72.7446 12.2371 70.4352 12.6942ZM69.6363 15.6244V12.6171C69.6363 12.085 69.6983 12.0403 70.2218 11.93C71.472 11.6639 72.7287 11.4166 73.9609 11.0799C75.0518 10.7821 76.1175 10.3877 76.9935 9.61697C77.2437 9.40067 77.4982 9.49224 77.6424 9.81453C77.8335 10.2291 78.0108 10.6523 78.2387 11.0467C78.5098 11.5168 78.853 11.9321 79.3923 12.1282C79.6245 12.2112 79.6735 12.395 79.672 12.6214C79.6663 13.4809 79.672 14.3403 79.672 15.199C79.677 15.2865 79.6869 15.3736 79.7016 15.46C80.14 15.1947 80.4017 14.8183 80.5935 14.2869C80.7103 13.9639 80.4637 13.775 80.3707 13.5313C80.0859 12.7836 80.1666 12.0994 80.6728 11.4685C80.7449 11.3791 80.8386 11.2385 80.817 11.1527C80.6353 10.5204 80.4918 9.86356 80.2085 9.2781C79.853 8.54484 79.1911 8.14972 78.3677 8.07258C77.8738 8.02643 77.8133 7.9774 77.7606 7.47847C77.6885 6.77188 77.1045 6.16551 76.408 6.08043C75.4412 5.96291 74.4743 5.86413 73.4995 6.00833C72.2997 6.17849 71.1822 6.54476 70.2485 7.34869C69.2095 8.24274 68.7163 9.42879 68.4611 10.7417C68.4005 11.0525 68.42 11.2904 68.6666 11.5349C68.9745 11.842 69.0826 12.2559 69.0992 12.6971C69.1187 13.2018 68.8901 13.6243 68.676 14.0548C68.6233 14.1593 68.5613 14.3014 68.5916 14.3973C68.7603 14.9193 69.0574 15.3519 69.6363 15.6244ZM65.2014 14.0432C65.1531 14.1326 65.1135 14.2019 65.0774 14.2725C64.1843 16.0361 63.2917 17.8004 62.3996 19.5654C61.8019 20.7537 62.1061 21.9282 63.2006 22.6989C64.6234 23.6997 66.0464 24.6995 67.4697 25.6983C67.5598 25.7618 67.6536 25.8187 67.7689 25.8944C67.7857 25.8431 67.7976 25.7902 67.8043 25.7365C67.8043 24.7747 67.8158 23.8122 67.7963 22.8525C67.7963 22.7285 67.6665 22.5699 67.5533 22.492C66.7127 21.9152 65.8597 21.3607 65.0118 20.7969C64.6188 20.5359 64.59 20.4314 64.802 20.0103C65.5538 18.5202 66.3065 17.0301 67.0602 15.54C67.115 15.4312 67.1676 15.3237 67.2282 15.1961L65.2014 14.0432ZM81.1357 15.0325C80.5956 15.8018 80.5935 15.7975 79.809 16.2719C79.7696 16.3059 79.7375 16.3476 79.7148 16.3945C79.6921 16.4413 79.6793 16.4924 79.6771 16.5444C79.5913 18.1364 78.9128 19.414 77.6583 20.3939C77.5862 20.4523 77.4823 20.5381 77.4802 20.6195C77.4636 21.1055 77.4715 21.5922 77.4715 22.094C78.0166 22.094 78.5076 22.094 78.9986 22.094C79.6511 22.094 80.3447 22.2252 80.9453 22.045C81.5459 21.8647 82.047 21.3701 82.5921 21.0125C82.9807 20.7565 83.3686 20.4991 83.7688 20.2338L81.1357 15.0325ZM65.5417 20.2345C66.2015 20.6671 66.8576 21.05 67.451 21.5093C68.0128 21.9612 68.729 22.1756 69.4467 22.107C70.229 22.0507 71.0185 22.094 71.8383 22.094C71.8383 21.8092 71.8138 21.5569 71.8433 21.3117C71.9082 20.7854 71.7424 20.4249 71.3134 20.0629C70.2903 19.1977 69.7827 18.0376 69.6616 16.7052C69.6522 16.6028 69.6104 16.437 69.5462 16.4168C68.9074 16.2099 68.4589 15.7751 68.0883 15.2026L65.5417 20.2345ZM76.682 20.9786C75.3265 21.5323 73.9703 21.5273 72.5932 20.9541C72.5932 21.6751 72.5932 22.3507 72.5932 23.0255C72.5909 23.1285 72.594 23.2315 72.6026 23.3341C72.7165 24.4156 73.5327 25.19 74.5998 25.2369C75.1035 25.2598 75.5971 25.0903 75.9805 24.7628C76.3639 24.4354 76.6085 23.9744 76.6647 23.4733C76.7534 22.66 76.682 21.8344 76.682 20.9786ZM67.5894 14.5241C67.8381 14.0014 68.1085 13.5248 68.2938 13.0172C68.4842 12.4967 68.1612 11.8939 67.6406 11.6596C67.146 11.4368 66.5007 11.599 66.2137 12.0648C65.965 12.4686 65.7696 12.9048 65.5367 13.3532L67.5894 14.5241ZM83.7674 13.359C83.5806 12.9855 83.4133 12.6503 83.2446 12.315C83.2092 12.2434 83.1702 12.1736 83.1278 12.1059C82.981 11.8789 82.7607 11.7091 82.5038 11.6249C82.2469 11.5406 81.9689 11.547 81.7161 11.643C81.184 11.8557 80.8256 12.4361 81.003 12.9682C81.1804 13.5003 81.4688 13.9942 81.719 14.527L83.7674 13.359Z" fill="#262626"/>
<path d="M59.221 31.5234C58.841 31.5234 58.6636 31.2141 58.8165 30.9603C58.8756 30.8771 58.9446 30.8013 59.022 30.7347C60.2448 29.5104 61.4681 28.2866 62.6919 27.0633C62.7481 27.007 62.8044 26.9112 62.8664 26.9054C63.0308 26.891 63.2608 26.8549 63.3487 26.9429C63.4367 27.0308 63.3999 27.2608 63.3855 27.4252C63.3797 27.488 63.286 27.5449 63.229 27.6012C61.9976 28.8312 60.7658 30.0608 59.5339 31.2898C59.4365 31.3766 59.3318 31.4548 59.221 31.5234Z" fill="#262626"/>
<path d="M90.6057 31.1288C90.5077 31.2687 90.455 31.4173 90.3541 31.4684C90.2531 31.5196 90.0924 31.493 89.9691 31.4598C89.8905 31.4389 89.8285 31.3473 89.7636 31.2831L86.0677 27.588C86.0035 27.5231 85.8975 27.456 85.8925 27.3847C85.8824 27.2296 85.8752 27.0241 85.9646 26.9283C86.0367 26.8446 86.253 26.8518 86.3929 26.872C86.478 26.8843 86.5515 26.9953 86.6243 27.0681C87.8481 28.291 89.0712 29.5148 90.2935 30.7395C90.4042 30.8638 90.5084 30.9938 90.6057 31.1288Z" fill="#262626"/>
<path d="M65.4277 29.4513C65.3477 29.5862 65.3081 29.6972 65.2331 29.7729C64.2986 30.716 63.3613 31.6559 62.4211 32.5928C62.2445 32.7694 62.0462 32.8329 61.8508 32.6382C61.6554 32.4435 61.6936 32.2474 61.8753 32.0614C62.8126 31.1241 63.75 30.1767 64.7002 29.2495C64.8041 29.1485 65.029 29.1247 65.1876 29.1456C65.2749 29.1644 65.3434 29.3403 65.4277 29.4513Z" fill="#262626"/>
<path d="M83.9277 29.5418C83.9414 29.1582 84.2421 28.9981 84.5045 29.156C84.5799 29.2078 84.6486 29.2686 84.7093 29.337C85.5846 30.2104 86.4592 31.0843 87.333 31.9586C87.3734 31.999 87.4138 32.0401 87.4527 32.0819C87.6178 32.26 87.638 32.4532 87.4686 32.6313C87.2992 32.8094 87.1016 32.7878 86.9242 32.6227C86.8154 32.521 86.7123 32.4143 86.607 32.309C85.7894 31.4914 84.9696 30.6752 84.1556 29.8576C84.0704 29.7593 83.9941 29.6536 83.9277 29.5418Z" fill="#262626"/>
<path d="M59.3188 35.9782C59.1825 35.988 59.0456 35.988 58.9093 35.9782C58.6887 35.9465 58.5279 35.7994 58.5863 35.5853C58.6152 35.5074 58.6608 35.4368 58.72 35.3785C58.7792 35.3202 58.8504 35.2756 58.9288 35.2479C59.1408 35.1909 59.3801 35.2327 59.6072 35.2306C59.8668 35.2306 60.0319 35.3481 60.0261 35.6127C60.0204 35.8773 59.8466 35.9883 59.5935 35.9854C59.502 35.9854 59.4111 35.9854 59.3203 35.9854L59.3188 35.9782Z" fill="#262626"/>
<path d="M89.9752 35.2314C90.1 35.2314 90.2485 35.1896 90.3451 35.2422C90.4749 35.3143 90.6544 35.4585 90.6508 35.5688C90.6458 35.7073 90.498 35.9293 90.3768 35.956C90.0984 36.014 89.811 36.014 89.5325 35.956C89.4085 35.93 89.2441 35.7094 89.2441 35.5825C89.2441 35.4556 89.4309 35.3107 89.5693 35.2393C89.6767 35.1831 89.8368 35.2278 89.9731 35.2278L89.9752 35.2314Z" fill="#262626"/>
<path d="M82.9382 25.8779C82.8441 25.8745 82.753 25.8437 82.6761 25.7891C82.5993 25.7346 82.5401 25.6587 82.5058 25.571C82.4715 25.4832 82.4636 25.3873 82.4831 25.2951C82.5027 25.2029 82.5487 25.1185 82.6156 25.0521C82.6826 24.9858 82.7674 24.9405 82.8598 24.9217C82.9521 24.903 83.0479 24.9117 83.1354 24.9468C83.2229 24.9818 83.2982 25.0417 83.3521 25.119C83.4059 25.1963 83.436 25.2877 83.4386 25.3819C83.4384 25.4473 83.4253 25.5121 83.4001 25.5725C83.3748 25.6329 83.3379 25.6877 83.2914 25.7338C83.2449 25.7798 83.1898 25.8163 83.1292 25.841C83.0686 25.8658 83.0037 25.8783 82.9382 25.8779Z" fill="#262626"/>
<path d="M68.6772 33.7229C68.6789 33.7864 68.668 33.8495 68.6452 33.9087C68.6224 33.968 68.5881 34.0221 68.5444 34.0681C68.5007 34.1141 68.4483 34.151 68.3904 34.1768C68.3324 34.2026 68.2699 34.2167 68.2064 34.2183C68.143 34.2199 68.0799 34.209 68.0206 34.1862C67.9614 34.1634 67.9072 34.1291 67.8612 34.0854C67.8153 34.0417 67.7783 33.9894 67.7526 33.9314C67.7268 33.8734 67.7127 33.8109 67.7111 33.7474C67.7095 33.684 67.7204 33.6209 67.7432 33.5616C67.766 33.5024 67.8002 33.4483 67.8439 33.4023C67.8876 33.3563 67.94 33.3193 67.998 33.2936C68.056 33.2678 68.1185 33.2537 68.1819 33.2521C68.2453 33.2505 68.3085 33.2614 68.3677 33.2842C68.4269 33.307 68.4811 33.3412 68.5271 33.3849C68.5731 33.4286 68.61 33.481 68.6358 33.539C68.6615 33.597 68.6756 33.6595 68.6772 33.7229Z" fill="#262626"/>
<path d="M88.078 1.56099C88.1501 1.55378 88.2071 1.54297 88.2626 1.54297C88.8005 1.54297 89.3384 1.54297 89.9245 1.54297C89.8193 1.86814 89.7255 2.16664 89.6268 2.4637C89.4465 3.00517 89.2576 3.5452 89.0838 4.08812C88.9786 4.4169 89.1278 4.62744 89.4732 4.6332C90.0204 4.64186 90.5677 4.6332 91.1892 4.6332L88.2633 9.27577L88.1912 9.25991C88.241 8.9369 88.2857 8.611 88.3419 8.29088C88.4652 7.58213 88.5936 6.87409 88.7205 6.16534C88.7926 5.77672 88.6484 5.59791 88.2597 5.59286C87.8372 5.5871 87.4147 5.59286 86.9316 5.59286L88.078 1.56099Z" fill="#197AFF"/>
<path d="M62.1911 4.63446L59.2349 9.321L59.1751 9.29721C59.2996 8.57043 59.4245 7.84342 59.55 7.11616C59.6041 6.80108 59.6704 6.48744 59.718 6.17092C59.7814 5.7513 59.6459 5.59772 59.2255 5.59412C58.8052 5.59051 58.3856 5.59412 57.9277 5.59412C58.2702 4.39076 58.5939 3.22633 58.9371 2.06623C59.1239 1.42886 58.9588 1.5572 59.6365 1.54422C60.0259 1.53701 60.4152 1.54422 60.8046 1.54422C60.8413 1.55023 60.8775 1.5594 60.9127 1.57162C60.8637 1.73096 60.8168 1.88958 60.7649 2.04604C60.5486 2.68485 60.3323 3.32294 60.1218 3.96248C59.9603 4.44627 60.0893 4.63085 60.5883 4.63373C61.0872 4.63662 61.5969 4.63446 62.1911 4.63446Z" fill="#197AFF"/>
<path d="M69.6365 15.6242C69.0597 15.3517 68.7605 14.9191 68.5911 14.3927C68.5608 14.2968 68.6228 14.1548 68.6754 14.0502C68.8917 13.6176 69.1181 13.2002 69.0987 12.6926C69.0814 12.252 68.9732 11.8375 68.6661 11.5303C68.4195 11.2845 68.4 11.0465 68.4606 10.7372C68.7158 9.42426 69.209 8.2382 70.2479 7.34415C71.1809 6.53879 72.2978 6.17252 73.4982 6.00452C74.4731 5.86609 75.4399 5.96198 76.4068 6.07662C77.1033 6.1617 77.6851 6.76807 77.7594 7.47466C77.812 7.97359 77.8726 8.02262 78.3665 8.06877C79.1899 8.14591 79.8518 8.54102 80.2072 9.27429C80.4906 9.86119 80.6341 10.518 80.8158 11.1489C80.8403 11.2347 80.7437 11.3753 80.6715 11.4647C80.1668 12.0956 80.0847 12.7798 80.3694 13.5275C80.4625 13.7712 80.709 13.9601 80.5922 14.2831C80.4005 14.8145 80.1387 15.1909 79.7004 15.4562C79.6856 15.3698 79.6758 15.2827 79.6708 15.1952C79.6708 14.3365 79.6657 13.477 79.6708 12.6176C79.6708 12.3912 79.6232 12.2073 79.391 12.1244C78.851 11.9298 78.5078 11.5145 78.2374 11.0429C78.0096 10.6485 77.8322 10.2253 77.6412 9.81072C77.4926 9.48843 77.241 9.39398 76.9922 9.61316C76.1162 10.3839 75.0506 10.7783 73.9597 11.0761C72.7275 11.4128 71.4708 11.6601 70.2206 11.9262C69.6971 12.0372 69.6351 12.0812 69.6351 12.6133L69.6365 15.6242Z" fill="#197AFF"/>
<path d="M71.6973 14.646C71.6137 14.5739 71.4558 14.4939 71.4464 14.4023C71.4348 14.2877 71.5185 14.0865 71.6072 14.0512C72.0196 13.8894 72.443 13.7566 72.874 13.6539C72.9742 13.6294 73.1761 13.7376 73.2136 13.832C73.2511 13.9265 73.1631 14.1507 73.078 14.1846C72.6469 14.3562 72.1977 14.4845 71.6973 14.646Z" fill="#262626"/>
<path d="M77.6213 14.6514C77.1108 14.4849 76.653 14.35 76.2096 14.177C76.1295 14.146 76.0531 13.9369 76.0827 13.8446C76.1122 13.7523 76.299 13.6283 76.3804 13.6499C76.833 13.7598 77.2786 13.8963 77.715 14.0588C77.7987 14.0898 77.878 14.2837 77.8592 14.3868C77.8405 14.4899 77.702 14.5656 77.6213 14.6514Z" fill="#262626"/>
<path d="M71.8341 15.8103C71.8391 15.488 72.0713 15.227 72.3453 15.2335C72.6193 15.24 72.85 15.532 72.8442 15.8327C72.837 16.1521 72.6056 16.4001 72.3208 16.3936C72.036 16.3871 71.829 16.1456 71.8341 15.8103Z" fill="#262626"/>
<path d="M77.473 15.824C77.473 16.1564 77.2625 16.4008 76.9741 16.4008C76.6857 16.4008 76.4622 16.1441 76.4629 15.824C76.4629 15.5197 76.7088 15.2385 76.9741 15.2378C77.2394 15.2371 77.473 15.5002 77.473 15.824Z" fill="#262626"/>
</svg>
