<svg width="26" height="26" viewBox="0 0 26 26" fill="none" xmlns="http://www.w3.org/2000/svg">
<circle cx="13.0004" cy="13" r="7.37838" fill="#197AFF"/>
<path fill-rule="evenodd" clip-rule="evenodd" d="M12.6186 0.0370911C12.1457 0.150334 11.6736 0.509795 11.0668 1.21846C10.8622 1.45753 10.8193 1.48175 10.6008 1.48175C10.4295 1.48175 10.2869 1.43497 10.106 1.3194C9.61231 1.00412 9.28949 0.907502 8.71607 0.903456C8.24903 0.900185 8.15829 0.916371 7.91053 1.04724C7.39895 1.3174 7.00692 1.85446 6.80265 2.56501C6.59667 3.28155 6.43645 3.39762 5.76979 3.31337C5.28369 3.2519 4.65499 3.31952 4.31527 3.4699C3.52834 3.81816 3.14667 4.65914 3.28279 5.74501C3.32767 6.10314 3.32418 6.23972 3.26651 6.37763C3.16285 6.62584 3.08047 6.67855 2.60733 6.79961C1.85148 6.993 1.32455 7.3426 1.02943 7.8464C0.913192 8.04484 0.878898 8.18646 0.860505 8.54393C0.834078 9.05759 0.943885 9.466 1.26849 10.0614C1.51702 10.5173 1.52982 10.8415 1.30605 11.0133C1.22222 11.0777 1.02455 11.2284 0.86671 11.3483C0.31834 11.765 -5.53948e-05 12.3901 7.22893e-09 13.0499C7.22893e-09 13.3853 0.0278118 13.5055 0.173907 13.8024C0.339781 14.1395 0.548259 14.3674 1.22887 14.9555C1.5399 15.2242 1.54256 15.4503 1.24139 16.0139C0.851585 16.7435 0.748039 17.4065 0.937181 17.9619C1.12954 18.5267 1.76572 19.0086 2.59154 19.2151C3.05576 19.3312 3.14335 19.3836 3.26418 19.6173C3.33105 19.7467 3.33493 19.856 3.28645 20.2462C3.12933 21.5117 3.58219 22.3378 4.59438 22.6322C4.85222 22.7072 5.05655 22.7204 5.59871 22.6969C6.23218 22.6695 6.29174 22.6759 6.45888 22.7881C6.58321 22.8715 6.66082 22.9849 6.71107 23.1564C7.04238 24.2879 7.48244 24.86 8.18117 25.0676C8.72577 25.2294 9.29126 25.1314 9.99032 24.754C10.6301 24.4086 10.8164 24.4427 11.2405 24.9828C11.7563 25.6396 12.3791 26.0034 12.982 26C13.6752 25.996 14.153 25.6918 14.9548 24.7441C15.1938 24.4616 15.4347 24.4652 16.0135 24.76C17.0556 25.2907 17.8076 25.2746 18.4267 24.7085C18.7765 24.3886 19.0233 23.9543 19.1831 23.3774C19.2528 23.1257 19.3512 22.9098 19.4341 22.8269C19.5675 22.6935 19.5901 22.6904 20.4729 22.6871C21.3443 22.6837 21.3863 22.6782 21.6891 22.5295C22.4623 22.1496 22.8379 21.2817 22.688 20.2212C22.6345 19.8425 22.6368 19.7393 22.7022 19.6128C22.8177 19.3894 22.8829 19.3502 23.4455 19.1662C24.0459 18.97 24.3621 18.7955 24.6627 18.4948C24.9672 18.1902 25.079 17.9298 25.1047 17.4655C25.1312 16.9867 25.028 16.5922 24.7222 16.0023C24.5782 15.7245 24.5057 15.5118 24.5057 15.3673C24.5057 15.1741 24.538 15.1217 24.7955 14.898C25.8568 13.976 26.1655 13.3336 25.921 12.5558C25.7996 12.1699 25.3712 11.5973 24.9746 11.2913C24.8043 11.1599 24.6292 11.0011 24.5853 10.9385C24.446 10.7395 24.4896 10.4445 24.7227 10.0083C24.842 9.78494 24.9791 9.46672 25.0274 9.30109C25.1263 8.96148 25.142 8.42026 25.061 8.13774C24.9227 7.6555 24.4046 7.19554 23.7114 6.93968C23.4931 6.85909 23.2035 6.75139 23.0679 6.70034C22.9045 6.63881 22.7862 6.54752 22.7176 6.4299C22.6234 6.26854 22.6198 6.21283 22.6791 5.82206C22.9346 4.13572 21.9079 3.07968 20.2322 3.30533C19.8818 3.3525 19.7527 3.34956 19.6129 3.29108C19.3744 3.19137 19.333 3.12823 19.1897 2.64577C18.9562 1.85989 18.5486 1.27882 18.0529 1.02529C17.776 0.883612 17.2557 0.839545 16.8513 0.923576C16.68 0.959107 16.319 1.09923 16.049 1.23487C15.4463 1.53768 15.2044 1.55752 14.9861 1.322C14.9047 1.23415 14.7441 1.03643 14.6294 0.882558C14.1528 0.243788 13.2829 -0.121992 12.6186 0.0370911ZM13.2803 1.26713C13.3557 1.30155 13.5485 1.49134 13.7088 1.68895C14.2248 2.32522 14.7604 2.6537 15.2822 2.6537C15.6668 2.6537 15.9495 2.57283 16.589 2.27983C17.2073 1.99658 17.4419 1.97325 17.6775 2.17157C17.7953 2.27079 17.8571 2.39318 17.9084 2.62887C18.0958 3.48997 18.6363 4.18694 19.2781 4.39496C19.5456 4.4816 19.7428 4.49779 20.4009 4.48692C21.2975 4.47218 21.4213 4.50965 21.5017 4.81983C21.527 4.91772 21.5259 5.14831 21.4991 5.33222C21.4372 5.75737 21.4789 6.42829 21.5862 6.73675C21.7972 7.34293 22.2164 7.68432 23.1362 7.99905C23.5502 8.14068 23.767 8.24599 23.8426 8.34211C24.0143 8.56055 23.9826 8.84291 23.7343 9.30691C23.0724 10.5437 23.243 11.4271 24.3113 12.2943C24.5647 12.5 24.6951 12.6526 24.7576 12.8164C24.8845 13.1487 24.793 13.329 24.3118 13.6945C23.2351 14.5123 23.0567 15.4464 23.7346 16.7153C24.0697 17.3423 24.0082 17.6686 23.5147 17.8809C23.3628 17.9463 23.2058 18.0004 23.1658 18.0013C23.0043 18.0046 22.3224 18.3376 22.0946 18.5242C21.7316 18.8218 21.5181 19.2954 21.4802 19.8866C21.4636 20.1445 21.4721 20.506 21.4989 20.69C21.5574 21.0911 21.5 21.3533 21.3326 21.449C21.248 21.4974 20.9395 21.5204 20.3505 21.5224C19.5934 21.5249 19.4543 21.54 19.1748 21.6505C18.5833 21.8843 18.14 22.4734 17.9325 23.3016C17.8165 23.7648 17.6267 23.9862 17.3454 23.9862C17.24 23.9862 16.8915 23.8673 16.5518 23.7154C15.7835 23.3719 15.415 23.2911 15.0053 23.3762C14.6187 23.4565 14.1645 23.7852 13.7319 24.2978C13.3734 24.7225 13.249 24.8128 13.0181 24.8157C12.7628 24.8188 12.5294 24.6673 12.2341 24.3067C11.8915 23.8883 11.4138 23.528 11.0764 23.4335C10.9207 23.3899 10.6587 23.3723 10.4062 23.3885C10.0492 23.4114 9.90999 23.4548 9.40461 23.7006C9.08178 23.8577 8.74688 23.9862 8.66034 23.9862C8.40682 23.9862 8.18815 23.7532 8.02172 23.3059C7.63983 22.2797 7.40537 21.9238 6.96038 21.6953C6.65301 21.5374 6.16564 21.4769 5.52154 21.5166C5.01455 21.5478 4.87195 21.5391 4.7351 21.4682C4.64314 21.4207 4.54768 21.3504 4.52286 21.3121C4.49809 21.2738 4.47671 20.8558 4.47527 20.3832C4.47316 19.6479 4.45626 19.4831 4.35842 19.2396C4.11504 18.634 3.67371 18.2679 2.8901 18.0216C2.27243 17.8275 2.18273 17.7805 2.09082 17.6026C1.96727 17.3636 1.99741 17.144 2.20578 16.7647C2.61049 16.0281 2.72434 15.3665 2.53753 14.8368C2.4183 14.4988 2.0645 14.052 1.64937 13.7152C1.21497 13.3629 1.05929 13.0514 1.1866 12.7896C1.22943 12.7014 1.43863 12.4836 1.65142 12.3055C2.73747 11.3968 2.89886 10.5598 2.22943 9.30691C1.98627 8.85189 1.96112 8.63389 2.12129 8.37104C2.20711 8.2303 2.2968 8.17443 2.55049 8.10404C3.33947 7.88492 3.82457 7.60722 4.11986 7.20552C4.42336 6.79263 4.46984 6.58449 4.47399 5.6204L4.47782 4.74273L4.63078 4.61097C4.77893 4.48338 4.81067 4.47955 5.62802 4.49091C6.35179 4.501 6.51451 4.48703 6.76803 4.39297C7.34188 4.18006 7.63911 3.79189 7.97418 2.81761C8.26255 1.97929 8.54222 1.8584 9.27968 2.2535C9.8424 2.55498 10.2572 2.6654 10.7064 2.63314C11.2678 2.59278 11.6414 2.3648 12.2293 1.70347C12.4055 1.50531 12.6033 1.31286 12.6689 1.27583C12.8203 1.19036 13.103 1.18637 13.2803 1.26713ZM11.7078 4.83358C9.89824 5.139 8.36073 5.93508 7.09329 7.22276C5.55057 8.79014 4.72713 10.8045 4.72713 13.0111C4.72713 16.9239 7.42105 20.253 11.2815 21.111C12.0798 21.2884 13.4849 21.3149 14.3394 21.1686C16.0752 20.8716 17.6045 20.0772 18.8341 18.834C19.9863 17.669 20.7188 16.3189 21.0856 14.6841C21.1879 14.2283 21.206 13.9761 21.206 13.0111C21.206 12.0461 21.1879 11.7939 21.0856 11.3381C20.9124 10.5661 20.7191 10.0192 20.3742 9.32504C19.2075 6.97732 16.9572 5.30229 14.3755 4.85985C13.6433 4.73436 12.3699 4.72183 11.7078 4.83358ZM14.4779 6.07653C15.858 6.39132 16.9662 7.00559 17.9754 8.01529C19.0038 9.04423 19.6337 10.2014 19.9405 11.6254C20.0824 12.2841 20.0824 13.7381 19.9405 14.3968C19.6337 15.8208 19.0038 16.978 17.9754 18.0069C16.9472 19.0356 15.7929 19.6647 14.3671 19.9734C13.6685 20.1247 12.1969 20.1131 11.5077 19.9509C10.0718 19.613 9.00489 19.0236 7.9887 18.0069C6.96027 16.978 6.33041 15.8208 6.02359 14.3968C5.88165 13.7381 5.88165 12.2841 6.02359 11.6254C6.33334 10.1877 6.94797 9.06031 7.99058 8.01718C8.80483 7.20253 9.58256 6.70056 10.5936 6.33722C11.0146 6.18589 11.7869 5.9986 12.1787 5.95281C12.6579 5.89677 14.0083 5.96944 14.4779 6.07653Z" fill="#11346F"/>
<mask id="mask0_0_1403" style="mask-type:alpha" maskUnits="userSpaceOnUse" x="6" y="7" width="13" height="12">
<path d="M11.2426 17.5678L7.37772 13.3515L7.02637 12.6488L9.13448 11.2434L11.5939 10.1894L15.1074 8.43262L17.9183 9.83802L17.5669 11.5948L15.1074 16.865L11.2426 17.5678Z" fill="#C4C4C4" stroke="black"/>
</mask>
<g mask="url(#mask0_0_1403)">
<path fill-rule="evenodd" clip-rule="evenodd" d="M12.6176 0.0370911C12.1447 0.150334 11.6726 0.509795 11.0659 1.21846C10.8612 1.45753 10.8183 1.48175 10.5998 1.48175C10.4285 1.48175 10.2859 1.43497 10.105 1.3194C9.61134 1.00412 9.28851 0.907502 8.7151 0.903456C8.24806 0.900185 8.15731 0.916371 7.90955 1.04724C7.39797 1.3174 7.00594 1.85446 6.80168 2.56501C6.59569 3.28155 6.43547 3.39762 5.76882 3.31337C5.28272 3.2519 4.65402 3.31952 4.31429 3.4699C3.52736 3.81816 3.14569 4.65914 3.28182 5.74501C3.32669 6.10314 3.3232 6.23972 3.26553 6.37763C3.16187 6.62584 3.07949 6.67855 2.60636 6.79961C1.8505 6.993 1.32358 7.3426 1.02845 7.8464C0.912216 8.04484 0.877922 8.18646 0.859528 8.54393C0.833101 9.05759 0.942908 9.466 1.26751 10.0614C1.51604 10.5173 1.52884 10.8415 1.30507 11.0133C1.22125 11.0777 1.02357 11.2284 0.865733 11.3483C0.317364 11.765 -0.00103196 12.3901 -0.000976555 13.0499C-0.000976555 13.3853 0.0268353 13.5055 0.172931 13.8024C0.338804 14.1395 0.547282 14.3674 1.2279 14.9555C1.53892 15.2242 1.54158 15.4503 1.24042 16.0139C0.850609 16.7435 0.747062 17.4065 0.936205 17.9619C1.12856 18.5267 1.76474 19.0086 2.59057 19.2151C3.05478 19.3312 3.14237 19.3836 3.2632 19.6173C3.33007 19.7467 3.33395 19.856 3.28547 20.2462C3.12835 21.5117 3.58121 22.3378 4.59341 22.6322C4.85125 22.7072 5.05557 22.7204 5.59773 22.6969C6.2312 22.6695 6.29076 22.6759 6.45791 22.7881C6.58223 22.8715 6.65985 22.9849 6.7101 23.1564C7.0414 24.2879 7.48146 24.86 8.18019 25.0676C8.72479 25.2294 9.29028 25.1314 9.98934 24.754C10.6291 24.4086 10.8154 24.4427 11.2395 24.9828C11.7553 25.6396 12.3781 26.0034 12.9811 26C13.6742 25.996 14.152 25.6918 14.9539 24.7441C15.1928 24.4616 15.4337 24.4652 16.0125 24.76C17.0546 25.2907 17.8066 25.2746 18.4257 24.7085C18.7755 24.3886 19.0223 23.9543 19.1821 23.3774C19.2518 23.1257 19.3502 22.9098 19.4331 22.8269C19.5665 22.6935 19.5891 22.6904 20.472 22.6871C21.3433 22.6837 21.3853 22.6782 21.6881 22.5295C22.4613 22.1496 22.8369 21.2817 22.687 20.2212C22.6335 19.8425 22.6359 19.7393 22.7012 19.6128C22.8167 19.3894 22.8819 19.3502 23.4445 19.1662C24.0449 18.97 24.3611 18.7955 24.6618 18.4948C24.9662 18.1902 25.078 17.9298 25.1037 17.4655C25.1302 16.9867 25.0271 16.5922 24.7213 16.0023C24.5772 15.7245 24.5047 15.5118 24.5047 15.3673C24.5047 15.1741 24.537 15.1217 24.7945 14.898C25.8558 13.976 26.1645 13.3336 25.92 12.5558C25.7987 12.1699 25.3702 11.5973 24.9737 11.2913C24.8034 11.1599 24.6282 11.0011 24.5844 10.9385C24.4451 10.7395 24.4886 10.4445 24.7217 10.0083C24.841 9.78494 24.9782 9.46672 25.0264 9.30109C25.1254 8.96148 25.141 8.42026 25.06 8.13774C24.9218 7.6555 24.4036 7.19554 23.7104 6.93968C23.4921 6.85909 23.2026 6.75139 23.0669 6.70034C22.9035 6.63881 22.7852 6.54752 22.7166 6.4299C22.6224 6.26854 22.6189 6.21283 22.6781 5.82206C22.9336 4.13572 21.9069 3.07968 20.2312 3.30533C19.8808 3.3525 19.7517 3.34956 19.612 3.29108C19.3735 3.19137 19.3321 3.12823 19.1887 2.64577C18.9552 1.85989 18.5476 1.27882 18.052 1.02529C17.7751 0.883612 17.2547 0.839545 16.8503 0.923576C16.679 0.959107 16.318 1.09923 16.0481 1.23487C15.4453 1.53768 15.2035 1.55752 14.9851 1.322C14.9037 1.23415 14.7431 1.03643 14.6284 0.882558C14.1519 0.243788 13.2819 -0.121992 12.6176 0.0370911ZM13.2793 1.26713C13.3547 1.30155 13.5475 1.49134 13.7078 1.68895C14.2238 2.32522 14.7595 2.6537 15.2812 2.6537C15.6658 2.6537 15.9486 2.57283 16.5881 2.27983C17.2063 1.99658 17.4409 1.97325 17.6765 2.17157C17.7943 2.27079 17.8562 2.39318 17.9075 2.62887C18.0948 3.48997 18.6353 4.18694 19.2772 4.39496C19.5447 4.4816 19.7418 4.49779 20.3999 4.48692C21.2965 4.47218 21.4203 4.50965 21.5007 4.81983C21.526 4.91772 21.5249 5.14831 21.4981 5.33222C21.4362 5.75737 21.4779 6.42829 21.5853 6.73675C21.7962 7.34293 22.2155 7.68432 23.1353 7.99905C23.5492 8.14068 23.766 8.24599 23.8416 8.34211C24.0133 8.56055 23.9816 8.84291 23.7333 9.30691C23.0714 10.5437 23.242 11.4271 24.3103 12.2943C24.5637 12.5 24.6942 12.6526 24.7567 12.8164C24.8835 13.1487 24.792 13.329 24.3108 13.6945C23.2341 14.5123 23.0557 15.4464 23.7337 16.7153C24.0687 17.3423 24.0072 17.6686 23.5137 17.8809C23.3619 17.9463 23.2048 18.0004 23.1648 18.0013C23.0033 18.0046 22.3214 18.3376 22.0936 18.5242C21.7306 18.8218 21.5171 19.2954 21.4792 19.8866C21.4627 20.1445 21.4711 20.506 21.498 20.69C21.5565 21.0911 21.4991 21.3533 21.3316 21.449C21.247 21.4974 20.9386 21.5204 20.3495 21.5224C19.5924 21.5249 19.4533 21.54 19.1738 21.6505C18.5823 21.8843 18.139 22.4734 17.9316 23.3016C17.8155 23.7648 17.6257 23.9862 17.3445 23.9862C17.239 23.9862 16.8905 23.8673 16.5508 23.7154C15.7825 23.3719 15.414 23.2911 15.0043 23.3762C14.6177 23.4565 14.1635 23.7852 13.7309 24.2978C13.3725 24.7225 13.248 24.8128 13.0171 24.8157C12.7618 24.8188 12.5284 24.6673 12.2331 24.3067C11.8905 23.8883 11.4128 23.528 11.0754 23.4335C10.9198 23.3899 10.6578 23.3723 10.4052 23.3885C10.0482 23.4114 9.90901 23.4548 9.40363 23.7006C9.08081 23.8577 8.7459 23.9862 8.65936 23.9862C8.40584 23.9862 8.18717 23.7532 8.02074 23.3059C7.63886 22.2797 7.4044 21.9238 6.95941 21.6953C6.65204 21.5374 6.16466 21.4769 5.52056 21.5166C5.01357 21.5478 4.87097 21.5391 4.73413 21.4682C4.64216 21.4207 4.5467 21.3504 4.52188 21.3121C4.49712 21.2738 4.47573 20.8558 4.47429 20.3832C4.47219 19.6479 4.45529 19.4831 4.35745 19.2396C4.11407 18.634 3.67273 18.2679 2.88913 18.0216C2.27145 17.8275 2.18175 17.7805 2.08984 17.6026C1.9663 17.3636 1.99643 17.144 2.2048 16.7647C2.60951 16.0281 2.72336 15.3665 2.53655 14.8368C2.41732 14.4988 2.06353 14.052 1.6484 13.7152C1.21399 13.3629 1.05831 13.0514 1.18562 12.7896C1.22845 12.7014 1.43765 12.4836 1.65045 12.3055C2.73649 11.3968 2.89788 10.5598 2.22846 9.30691C1.9853 8.85189 1.96015 8.63389 2.12031 8.37104C2.20613 8.2303 2.29583 8.17443 2.54951 8.10404C3.33849 7.88492 3.82359 7.60722 4.11889 7.20552C4.42238 6.79263 4.46886 6.58449 4.47302 5.6204L4.47684 4.74273L4.62981 4.61097C4.77795 4.48338 4.8097 4.47955 5.62704 4.49091C6.35081 4.501 6.51353 4.48703 6.76705 4.39297C7.3409 4.18006 7.63814 3.79189 7.97321 2.81761C8.26158 1.97929 8.54125 1.8584 9.2787 2.2535C9.84142 2.55498 10.2563 2.6654 10.7054 2.63314C11.2669 2.59278 11.6404 2.3648 12.2283 1.70347C12.4045 1.50531 12.6023 1.31286 12.6679 1.27583C12.8193 1.19036 13.102 1.18637 13.2793 1.26713ZM11.7068 4.83358C9.89727 5.139 8.35975 5.93508 7.09232 7.22276C5.54959 8.79014 4.72615 10.8045 4.72615 13.0111C4.72615 16.9239 7.42007 20.253 11.2805 21.111C12.0788 21.2884 13.4839 21.3149 14.3384 21.1686C16.0742 20.8716 17.6035 20.0772 18.8331 18.834C19.9853 17.669 20.7178 16.3189 21.0846 14.6841C21.1869 14.2283 21.205 13.9761 21.205 13.0111C21.205 12.0461 21.1869 11.7939 21.0846 11.3381C20.9114 10.5661 20.7181 10.0192 20.3732 9.32504C19.2065 6.97732 16.9563 5.30229 14.3745 4.85985C13.6423 4.73436 12.3689 4.72183 11.7068 4.83358ZM14.4769 6.07653C15.857 6.39132 16.9652 7.00559 17.9744 8.01529C19.0028 9.04423 19.6327 10.2014 19.9395 11.6254C20.0814 12.2841 20.0814 13.7381 19.9395 14.3968C19.6327 15.8208 19.0028 16.978 17.9744 18.0069C16.9462 19.0356 15.7919 19.6647 14.3661 19.9734C13.6675 20.1247 12.196 20.1131 11.5068 19.9509C10.0708 19.613 9.00391 19.0236 7.98772 18.0069C6.9593 16.978 6.32943 15.8208 6.02261 14.3968C5.88067 13.7381 5.88067 12.2841 6.02261 11.6254C6.33237 10.1877 6.947 9.06031 7.98961 8.01718C8.80385 7.20253 9.58159 6.70056 10.5926 6.33722C11.0136 6.18589 11.7859 5.9986 12.1777 5.95281C12.657 5.89677 14.0073 5.96944 14.4769 6.07653ZM14.0503 12.3023L11.8199 14.5313L10.7799 13.501C10.0083 12.7365 9.69427 12.4607 9.56258 12.4322C9.16746 12.3465 8.77133 12.7427 8.85637 13.1384C8.88513 13.272 9.19798 13.6223 10.1206 14.5539C10.7949 15.2347 11.414 15.8271 11.4963 15.8703C11.5786 15.9135 11.74 15.9489 11.855 15.9489C12.0566 15.9489 12.1515 15.8616 14.5227 13.4961C15.9798 12.0426 17.0141 10.968 17.0616 10.8584C17.2251 10.481 16.9371 10.0733 16.5071 10.0733C16.2829 10.0733 16.259 10.095 14.0503 12.3023Z" fill="white"/>
</g>
</svg>
