<svg width="286" height="6" viewBox="0 0 286 6" fill="none" xmlns="http://www.w3.org/2000/svg">
<path fill-rule="evenodd" clip-rule="evenodd" d="M196.12 0.856624C196.18 0.781266 196.213 0.69691 196.213 0.607854C196.213 0.288336 195.78 0.0293164 195.245 0.0293164C182.382 0.0293164 169.519 0.0227845 156.654 0.0162523C130.924 0.00318691 105.192 -0.00987953 79.4616 0.0293183C77.4157 0.0324352 75.3477 0.0238004 73.2662 0.0151095C65.9031 -0.0156347 58.3718 -0.0470811 51.0535 0.43851C50.4943 0.475618 50.0559 0.510872 49.7363 0.545056C49.5781 0.561968 49.4302 0.580581 49.3032 0.602071C49.2398 0.612789 49.1662 0.626804 49.0916 0.645406C49.03 0.660756 48.9039 0.69453 48.7793 0.757598C48.67 0.812975 48.366 0.995065 48.4278 1.2894C48.4835 1.55501 48.7989 1.68657 48.8828 1.71935C49.0777 1.79549 49.2952 1.82323 49.3746 1.83337L49.3767 1.83364C49.6062 1.86293 49.9228 1.88342 50.2737 1.89981C51.7046 1.96666 54.5146 1.99824 57.8328 2.01184C62.0701 2.02921 67.218 2.01725 71.5398 2.00721C74.0028 2.00149 76.1975 1.99639 77.8023 1.9977C98.1245 2.01428 118.447 2.02073 138.769 2.02169C120.569 2.29072 102.371 2.61968 84.178 3.04244C63.1598 3.10141 43.3273 3.15658 27.16 3.20155C16.6534 3.23078 7.69469 3.2557 0.964239 3.27456C0.4292 3.27606 -0.00249959 3.53629 1.08942e-05 3.85581C0.0025213 4.17532 0.438291 4.43312 0.97333 4.43162C7.70361 4.41277 16.6622 4.38784 27.1686 4.35862C30.716 4.34875 34.4399 4.33839 38.314 4.32761C37.5713 4.3523 36.8286 4.3772 36.086 4.4023C29.7544 4.61632 26.5218 4.73877 25.3822 4.79911C25.2384 4.80673 25.1193 4.81379 25.0277 4.82039C24.9826 4.82364 24.936 4.82735 24.8926 4.83166L24.8896 4.83195C24.8644 4.83443 24.7714 4.84355 24.6736 4.86473C24.6435 4.87125 24.5821 4.88536 24.511 4.91011C24.4666 4.92556 24.2774 4.99139 24.1475 5.13231C24.092 5.20349 24.0298 5.36936 24.0308 5.46151C24.0554 5.55049 24.1576 5.70198 24.2262 5.76335C24.3773 5.88168 24.5613 5.93049 24.6062 5.94238C24.7229 5.97331 24.8262 5.98358 24.8493 5.98588L24.8515 5.98609C24.8911 5.99008 24.9257 5.99224 24.9481 5.99346C25.0295 5.99789 25.1296 5.99917 25.2188 5.99969C25.5993 6.00194 26.3717 5.99168 27.3844 5.97378C30.1908 5.92416 35.0154 5.81232 39.1556 5.71635C41.0275 5.67296 42.7594 5.63281 44.1016 5.60313C82.7964 4.74729 121.528 4.26648 160.261 3.98316C184.342 3.91336 205.934 3.84895 220.912 3.8006C241.808 3.73315 252.931 3.68951 257.744 3.66236C258.946 3.65557 259.758 3.6498 260.23 3.64492C260.46 3.64253 260.624 3.64023 260.711 3.63778C260.731 3.63723 260.765 3.63621 260.799 3.63418L260.8 3.63414C260.808 3.6337 260.868 3.63036 260.939 3.62029C260.999 3.61036 261.226 3.54866 261.374 3.4808C261.668 3.16 261.393 2.64451 261.132 2.53524C261.05 2.51453 260.928 2.49286 260.89 2.48814C260.869 2.48586 260.834 2.48278 260.819 2.48172C260.792 2.47985 260.769 2.4789 260.757 2.47845C260.731 2.47745 260.704 2.47681 260.681 2.47636C260.343 2.46972 258.857 2.46676 256.695 2.46602C247.996 2.46303 227.909 2.49669 224.147 2.50833C206.816 2.56195 189.479 2.63558 172.142 2.74512C181.559 2.63726 190.976 2.5399 200.393 2.44835C224.146 2.21744 236.757 2.13177 259.934 2.04276C265.365 2.0219 270.796 2.01263 276.228 2.00334C277.311 2.00149 278.395 1.99964 279.478 1.9977H285.061C285.292 1.9977 285.413 1.99765 285.439 1.99755L285.45 1.99748C285.45 1.99748 285.459 1.99741 285.47 1.99718C285.479 1.99696 285.515 1.99561 285.542 1.99407C286.238 1.74376 286.062 0.977636 285.537 0.843619C285.513 0.842261 285.479 0.841033 285.471 0.840828L285.457 0.840587L285.447 0.840484L285.438 0.840434L285.4 0.840343L285.237 0.840158C284.946 0.839896 284.364 0.839583 283.666 0.839375C282.27 0.838957 280.408 0.838956 279.475 0.840626H277.363C255.189 0.840626 233.015 0.846656 210.842 0.852686C205.934 0.854021 201.027 0.855355 196.12 0.856624ZM25.2145 5.97269C25.2033 5.97399 25.2009 5.97401 25.2105 5.97306C25.2112 5.97299 25.2125 5.97286 25.2145 5.97269ZM49.7522 0.697672C49.7527 0.697584 49.7593 0.6985 49.7708 0.700682C49.7575 0.69885 49.7518 0.69776 49.7522 0.697672Z" fill="#F6F8FC"/>
</svg>
